<svg width="4" height="24" viewBox="0 0 4 24" fill="none" xmlns="http://www.w3.org/2000/svg">
<path d="M4 1.71429C4 0.767512 3.25895 0 2.34483 0C1.4307 0 0.689655 0.767512 0.689655 1.71429C0.689655 2.66106 1.4307 3.42857 2.34483 3.42857C3.25895 3.42857 4 2.66106 4 1.71429Z" fill="black"/>
<path d="M4 12C4 11.0532 3.25895 10.2857 2.34483 10.2857C1.4307 10.2857 0.689655 11.0532 0.689655 12C0.689655 12.9468 1.4307 13.7143 2.34483 13.7143C3.25895 13.7143 4 12.9468 4 12Z" fill="black"/>
<path d="M4 22.2857C4 21.3389 3.25895 20.5714 2.34483 20.5714C1.4307 20.5714 0.689655 21.3389 0.689655 22.2857C0.689655 23.2325 1.4307 24 2.34483 24C3.25895 24 4 23.2325 4 22.2857Z" fill="black"/>
</svg>
