<svg width="400" height="55" viewBox="0 0 400 55" fill="none" xmlns="http://www.w3.org/2000/svg">
<rect width="400" height="55" rx="25" fill="#FDEF00"/>
<path d="M44.0625 16C36.2948 16 30 20.8266 30 26.7932C30 30.3315 32.2307 33.478 35.6653 35.4431C36.3865 35.8587 35.757 36.8858 35.757 36.8858L32.9335 40.4776C32.8846 40.626 32.9274 40.7803 33.0374 40.8872C33.1107 40.9584 33.2146 41 33.3246 41C33.4102 41 33.4958 40.9703 33.5691 40.9109C33.5691 40.9109 35.2986 40.5725 37.7249 39.4208C39.705 38.554 41.5324 37.4023 41.5324 37.4023C42.3574 37.5151 43.2069 37.5804 44.0625 37.5804C51.8302 37.5804 58.125 32.7478 58.125 26.7872C58.125 20.8266 51.8302 16 44.0625 16ZM36.9487 29.8862C36.9487 29.8862 36.9487 29.9159 36.9487 29.9278C36.9487 30.4621 36.5026 30.8896 35.9587 30.8896C35.4148 30.8896 34.9686 30.4562 34.9686 29.9278C34.9686 29.9159 34.9686 29.8981 34.9686 29.8862V25.3386H33.6424C33.1719 25.303 32.8052 24.9231 32.8052 24.46C32.8052 23.9969 33.1719 23.617 33.6424 23.5813H38.0549C38.5561 23.5813 38.9594 23.9732 38.9594 24.46C38.9594 24.9468 38.5561 25.3386 38.0549 25.3386H36.9487V29.8862ZM54.3359 30.848C54.012 30.848 53.7247 30.6996 53.5475 30.4681L51.8241 28.2061L51.4635 28.5564V29.91C51.4635 30.4443 51.0174 30.8718 50.4734 30.8718C50.0456 30.8718 48.7256 30.8896 48.7256 30.8896H43.2986C43.2986 30.8896 43.1947 30.8896 43.1458 30.8777C43.1397 30.8777 43.1274 30.8777 43.1213 30.8777C43.0724 30.8718 38.7455 30.8955 38.281 30.8955C37.731 30.8955 37.291 30.4621 37.291 29.9337C37.291 29.8091 37.3154 29.6903 37.3582 29.5835C37.3704 29.5538 37.3827 29.5241 37.3949 29.4944L39.7967 24.3769C39.8823 23.9257 44.1297 29.3994 44.1297 29.3994V24.739H44.1358C44.1358 24.7034 44.1297 24.6618 44.1297 24.6262C44.1297 24.0978 44.5759 23.6644 45.1198 23.6644C45.6637 23.6644 46.1098 24.0978 46.1098 24.6262C46.1098 24.6678 46.1098 24.7034 46.1037 24.739H46.1098V29.2391H48.7256C49.0617 29.2391 49.3489 29.4291 49.4834 29.7022V24.6322C49.4834 24.1038 49.9295 23.6704 50.4734 23.6704C51.0174 23.6704 51.4635 24.1038 51.4635 24.6322V25.8433L53.3642 23.9969C53.5475 23.7951 53.8103 23.6704 54.1037 23.6704C54.6537 23.6704 55.0937 24.1038 55.0937 24.6322C55.0937 24.8815 54.9959 25.1012 54.8431 25.2733L54.8248 25.2911C54.8126 25.309 54.7942 25.3208 54.7759 25.3386L53.2358 26.8347L55.1059 29.2926C55.2404 29.4588 55.3259 29.6666 55.3259 29.8981C55.3259 30.4324 54.8798 30.8599 54.3359 30.8599V30.848Z" fill="#411B1A"/>
<path d="M47.1549 22.7146C45.2787 22.8392 43.2802 23.7654 41.5751 23.0411C39.98 22.3583 38.0977 21.5806 36.2948 21.6815C34.2047 21.8003 32.9274 22.9283 32.1696 24.7331C31.2712 26.8763 32.4446 29.9278 34.0764 31.4476C36.2276 33.4543 39.4789 33.4424 42.2535 33.2702C45.0281 33.0981 48.035 32.8428 50.6934 32.1126C51.9035 31.7801 52.9914 31.2102 53.792 30.2543C54.1648 29.8091 54.4276 29.3816 54.6476 28.8532C54.9287 28.1705 55.876 25.9264 54.6354 28.5683L52.0808 30.4799C52.4108 30.4324 52.7347 30.3671 53.0586 30.29L47.7966 25.1783C48.5117 22.7917 47.3383 25.7839 47.2221 26.146C46.9532 26.9535 46.9288 28.0755 47.1366 28.877C47.6316 30.7768 49.1472 31.7979 50.9196 32.4332C56.096 34.2854 58.3267 26.2588 53.193 24.4184L52.6797 24.2344L55.2343 26.146L54.9531 25.677L55.3871 28.877C54.5803 29.9991 54.6048 29.9991 55.4665 28.877C55.7171 28.402 55.9126 27.9033 56.0471 27.3868C56.9944 24.2344 53.8836 21.5806 50.7851 22.2752C49.52 22.5602 48.4139 22.9164 47.5827 23.9554C47.2405 24.3887 47.0693 24.7153 46.8677 25.2258C46.6721 25.5524 46.5743 25.8967 46.5743 26.2767C46.2871 27.8202 46.7943 27.1197 48.1022 24.181C47.3505 23.8366 44.7653 24.7331 43.873 24.8281C42.9808 24.9231 42.0763 24.9884 41.1718 25.018C40.8112 25.0359 40.4506 25.0418 40.09 25.0299C38.935 24.8578 39.045 25.4989 40.4201 26.9535L36.2948 30.005C37.511 29.9397 39.6622 31.4595 41.239 31.7148C43.3658 32.0591 45.0953 31.1745 47.1549 31.038C52.6186 30.6758 52.6613 22.3643 47.1549 22.7264V22.7146Z" fill="#411B1A"/>
</svg>
