<svg width="20" height="18" viewBox="0 0 20 18" fill="none" xmlns="http://www.w3.org/2000/svg">
<path d="M9.52866 1.62155C12.074 1.62155 12.3745 1.63001 13.3791 1.67447C13.9824 1.68082 14.5812 1.78666 15.1485 1.98354C15.5634 2.12748 15.9379 2.35823 16.2451 2.65671C16.5613 2.94673 16.8058 3.30025 16.9583 3.69187C17.1691 4.22745 17.279 4.79266 17.2857 5.36211C17.3305 6.31048 17.3418 6.59626 17.3418 8.99683C17.3418 11.3974 17.3328 11.6832 17.2857 12.6315C17.279 13.201 17.1668 13.7662 16.9583 14.3018C16.6376 15.0871 15.9805 15.7074 15.1485 16.0101C14.5812 16.2091 13.9824 16.3128 13.3791 16.3192C12.3745 16.3615 12.074 16.3721 9.52866 16.3721C6.98335 16.3721 6.68285 16.3636 5.67818 16.3192C5.07268 16.3128 4.47616 16.207 3.90879 16.0101C3.49392 15.8662 3.11941 15.6354 2.81218 15.3369C2.49598 15.0469 2.25154 14.6934 2.09904 14.3018C1.88824 13.7662 1.77835 13.201 1.77163 12.6315C1.72678 11.6832 1.71556 11.3974 1.71556 8.99683C1.71556 6.59626 1.72453 6.31048 1.77163 5.36211C1.77835 4.79266 1.89048 4.22745 2.09904 3.69187C2.25154 3.30025 2.49598 2.94673 2.81218 2.65671C3.11941 2.35823 3.49392 2.12748 3.90879 1.98354C4.47616 1.78455 5.07493 1.68082 5.67818 1.67447C6.68285 1.63213 6.98559 1.62155 9.52866 1.62155ZM9.52866 0C6.94074 0 6.61557 0.0105845 5.59969 0.0529225C4.80806 0.0677408 4.0254 0.209573 3.28536 0.472069C2.64847 0.698577 2.07437 1.0521 1.59671 1.50935C1.11231 1.95813 0.737804 2.50218 0.49785 3.10338C0.219771 3.80195 0.0717621 4.54075 0.0560641 5.28802C0.00897026 6.24697 0 6.55392 0 8.99683C0 11.4397 0.0112128 11.7467 0.0583067 12.7056C0.0740047 13.4529 0.224257 14.1896 0.500092 14.8903C0.740047 15.4915 1.11455 16.0334 1.59895 16.4843C2.07437 16.9416 2.65071 17.2951 3.2876 17.5216C4.02765 17.7841 4.8103 17.9238 5.60193 17.9386C6.61781 17.9831 6.94298 17.9915 9.5309 17.9915C12.1188 17.9915 12.4418 17.981 13.4599 17.9386C14.2515 17.9238 15.0319 17.782 15.7742 17.5216C17.0547 17.0537 18.0661 16.099 18.5617 14.8903C18.8398 14.1917 18.9878 13.4529 19.0035 12.7056C19.0506 11.7467 19.0596 11.4397 19.0596 8.99683C19.0596 6.55392 19.0484 6.24697 19.0035 5.28802C18.9878 4.54075 18.8375 3.80407 18.5617 3.10338C18.3218 2.50218 17.9473 1.96025 17.4629 1.50935C16.9874 1.0521 16.4111 0.698577 15.7742 0.472069C15.0342 0.209573 14.2515 0.0677408 13.4599 0.0529225C12.4418 0.0084676 12.1188 0 9.5309 0" fill="white"/>
<path d="M9.52866 4.37563C6.82637 4.37563 4.63538 6.44384 4.63538 8.99471C4.63538 11.5456 6.82637 13.6138 9.52866 13.6138C12.231 13.6138 14.4219 11.5456 14.4219 8.99471C14.4219 6.44384 12.231 4.37563 9.52866 4.37563ZM9.52866 11.9944C7.77497 11.9944 6.35094 10.6522 6.35094 8.99471C6.35094 7.33929 7.77273 5.99506 9.52866 5.99506C11.2823 5.99506 12.7064 7.33718 12.7064 8.99471C12.7064 10.6501 11.2846 11.9944 9.52866 11.9944Z" fill="white"/>
<path d="M15.7585 4.19358C15.7585 4.79055 15.2472 5.2732 14.6148 5.2732C13.9824 5.2732 13.4711 4.79055 13.4711 4.19358C13.4711 3.59661 13.9824 3.11396 14.6148 3.11396C15.2472 3.11396 15.7585 3.59661 15.7585 4.19358Z" fill="white"/>
</svg>
