<svg width="65" height="65" viewBox="0 0 65 65" fill="none" xmlns="http://www.w3.org/2000/svg">
<circle cx="32.5" cy="32.5" r="32.5" fill="#25282C"/>
<path fill-rule="evenodd" clip-rule="evenodd" d="M21.0794 23.0166C21.3157 21.2743 22.8067 20 24.5493 20H40.4507C42.1933 20 43.6843 21.2743 43.9206 23.0166C44.2428 25.3917 44.7275 29.2591 44.8891 32.1342C45.0482 34.9651 45.0042 38.792 44.9523 41.1776C44.9134 42.9644 43.5322 44.4215 41.7506 44.5568C39.3279 44.7409 35.4063 45 32.5 45C29.5937 45 25.6721 44.7409 23.2494 44.5568C21.4678 44.4215 20.0866 42.9644 20.0477 41.1776C19.9958 38.792 19.9518 34.9651 20.1109 32.1342C20.2725 29.2591 20.7572 25.3917 21.0794 23.0166ZM24.5493 21.9231C23.7532 21.9231 23.0899 22.5017 22.985 23.2751C22.663 25.6491 22.1879 29.45 22.0309 32.2421C21.8764 34.991 21.9185 38.7516 21.9703 41.1358C21.9877 41.9328 22.5997 42.5788 23.3951 42.6393C25.8166 42.8232 29.6738 43.0769 32.5 43.0769C35.3262 43.0769 39.1834 42.8232 41.6049 42.6393C42.4003 42.5788 43.0123 41.9328 43.0297 41.1358C43.0815 38.7516 43.1236 34.991 42.9691 32.2421C42.8121 29.45 42.337 25.6491 42.015 23.2751C41.9101 22.5017 41.2468 21.9231 40.4507 21.9231H24.5493Z" fill="white"/>
<path fill-rule="evenodd" clip-rule="evenodd" d="M27.3718 25.1282C27.9028 25.1282 28.3333 25.5587 28.3333 26.0897C28.3333 28.3909 30.1988 30.2564 32.5 30.2564C34.8012 30.2564 36.6667 28.3909 36.6667 26.0897C36.6667 25.5587 37.0972 25.1282 37.6282 25.1282C38.1592 25.1282 38.5897 25.5587 38.5897 26.0897C38.5897 29.453 35.8633 32.1795 32.5 32.1795C29.1367 32.1795 26.4103 29.453 26.4103 26.0897C26.4103 25.5587 26.8408 25.1282 27.3718 25.1282Z" fill="white"/>
<path fill-rule="evenodd" clip-rule="evenodd" d="M21.0794 23.0166C21.3157 21.2743 22.8067 20 24.5493 20H40.4507C42.1933 20 43.6843 21.2743 43.9206 23.0166C44.2428 25.3917 44.7275 29.2591 44.8891 32.1342C45.0482 34.9651 45.0042 38.792 44.9523 41.1776C44.9134 42.9644 43.5322 44.4215 41.7506 44.5568C39.3279 44.7409 35.4063 45 32.5 45C29.5937 45 25.6721 44.7409 23.2494 44.5568C21.4678 44.4215 20.0866 42.9644 20.0477 41.1776C19.9958 38.792 19.9518 34.9651 20.1109 32.1342C20.2725 29.2591 20.7572 25.3917 21.0794 23.0166ZM24.5493 21.9231C23.7532 21.9231 23.0899 22.5017 22.985 23.2751C22.663 25.6491 22.1879 29.45 22.0309 32.2421C21.8764 34.991 21.9185 38.7516 21.9703 41.1358C21.9877 41.9328 22.5997 42.5788 23.3951 42.6393C25.8166 42.8232 29.6738 43.0769 32.5 43.0769C35.3262 43.0769 39.1834 42.8232 41.6049 42.6393C42.4003 42.5788 43.0123 41.9328 43.0297 41.1358C43.0815 38.7516 43.1236 34.991 42.9691 32.2421C42.8121 29.45 42.337 25.6491 42.015 23.2751C41.9101 22.5017 41.2468 21.9231 40.4507 21.9231H24.5493Z" stroke="white" stroke-width="0.5" stroke-linecap="round" stroke-linejoin="round"/>
<path fill-rule="evenodd" clip-rule="evenodd" d="M27.3718 25.1282C27.9028 25.1282 28.3333 25.5587 28.3333 26.0897C28.3333 28.3909 30.1988 30.2564 32.5 30.2564C34.8012 30.2564 36.6667 28.3909 36.6667 26.0897C36.6667 25.5587 37.0972 25.1282 37.6282 25.1282C38.1592 25.1282 38.5897 25.5587 38.5897 26.0897C38.5897 29.453 35.8633 32.1795 32.5 32.1795C29.1367 32.1795 26.4103 29.453 26.4103 26.0897C26.4103 25.5587 26.8408 25.1282 27.3718 25.1282Z" stroke="white" stroke-width="0.5" stroke-linecap="round" stroke-linejoin="round"/>
</svg>
