<svg width="20" height="18" viewBox="0 0 20 18" fill="none" xmlns="http://www.w3.org/2000/svg">
<path d="M10.1522 0C7.56233 0 7.23944 0.0105833 6.22143 0.0550329C5.4299 0.0698495 4.64734 0.211665 3.90738 0.47413C3.27056 0.700612 2.69653 1.05409 2.21892 1.51129C1.73459 1.96002 1.35788 2.504 1.1202 3.10513C0.84215 3.80362 0.691916 4.54233 0.67622 5.28951C0.629131 6.24835 0.61792 6.55527 0.61792 9C0.61792 11.4447 0.629131 11.7495 0.67622 12.7105C0.691916 13.4577 0.84215 14.1943 1.1202 14.8949C1.36012 15.496 1.73459 16.04 2.21892 16.4887C2.69429 16.9459 3.27056 17.3015 3.90738 17.5259C4.64734 17.7883 5.4299 17.928 6.22143 17.945C7.23719 17.9894 7.56233 18 10.1522 18C12.742 18 13.0649 17.9894 14.0829 17.945C14.8745 17.9302 15.6548 17.7883 16.397 17.5259C17.6773 17.0581 18.6886 16.1035 19.1842 14.8949C19.4622 14.1964 19.6102 13.4577 19.6282 12.7105C19.6752 11.7516 19.6865 11.4447 19.6865 9C19.6865 6.55527 19.6752 6.25047 19.6282 5.28951C19.6125 4.54233 19.4622 3.80362 19.1842 3.10513C18.9442 2.504 18.5698 1.96002 18.0854 1.51129C17.6101 1.05409 17.0338 0.698495 16.397 0.47413C15.657 0.211665 14.8745 0.0719661 14.0829 0.0550329C13.0672 0.0105833 12.742 0 10.1522 0Z" fill="white"/>
<path d="M10.3607 14.7192H10.2486C10.1275 14.6515 10.0647 14.5456 10.0109 14.4271C9.65215 13.6249 9.29114 12.8248 8.93462 12.0226C8.8965 11.9379 8.85165 11.9104 8.75523 11.9104C7.66323 11.9146 6.57123 11.9125 5.48147 11.9104C5.39626 11.9104 5.31106 11.904 5.22809 11.8913C4.49037 11.794 3.91635 11.2818 3.76611 10.5917C3.75266 10.5282 3.73472 10.4668 3.71678 10.4033C3.71678 8.51529 3.71678 6.62935 3.71678 4.7413C3.72575 4.7159 3.74145 4.6905 3.74369 4.66298C3.82665 3.9666 4.39396 3.38241 5.12046 3.25118C5.19446 3.23848 5.2707 3.21943 5.34469 3.20461C8.64536 3.20461 11.9438 3.20461 15.2445 3.20461C15.2714 3.21308 15.2983 3.22789 15.3274 3.23001C16.0315 3.30409 16.6324 3.80151 16.8006 4.4492C16.8298 4.55927 16.8499 4.67145 16.8724 4.78363V10.3398C16.8612 10.4012 16.8499 10.4626 16.8387 10.5219C16.6863 11.3579 15.9306 11.9189 15.0785 11.9125C14.0045 11.904 12.9326 11.9125 11.8586 11.9083C11.7599 11.9083 11.7173 11.94 11.6792 12.0226C11.3227 12.8248 10.9594 13.6249 10.6006 14.4271C10.5468 14.5477 10.484 14.6515 10.3607 14.7171V14.7192Z" fill="black"/>
<path d="M14.3655 6.6992C14.37 6.66745 14.3789 6.64628 14.3767 6.62723C14.361 6.53199 14.4103 6.51717 14.4978 6.51929C14.6906 6.52564 14.8834 6.51929 15.0808 6.51929C15.0808 6.55527 15.0852 6.58278 15.0852 6.6103C15.0852 7.25588 15.092 7.90146 15.0852 8.54704C15.0808 8.93438 14.9373 9.26035 14.5583 9.46143C14.3117 9.59055 14.0448 9.61383 13.7713 9.5969C13.7533 9.5969 13.7219 9.56303 13.7219 9.54398C13.7174 9.37888 13.7174 9.21378 13.7219 9.04657C13.7219 9.02752 13.7556 8.99788 13.778 8.99365C13.8206 8.98518 13.8677 8.99365 13.9103 8.98942C14.1816 8.97037 14.3296 8.84549 14.3655 8.58937C14.3789 8.50259 14.3655 8.41369 14.3655 8.31421C14.343 8.32479 14.3296 8.32902 14.3206 8.33749C13.8475 8.7333 13.0986 8.6063 12.8228 8.07079C12.621 7.67921 12.621 7.27916 12.8429 6.8897C13.0963 6.44309 13.8946 6.27587 14.3049 6.65898C14.3184 6.67168 14.3363 6.68015 14.361 6.69708L14.3655 6.6992ZM13.9215 7.98824C14.1928 7.98824 14.4058 7.78504 14.4036 7.52893C14.4036 7.27281 14.1861 7.0675 13.917 7.0675C13.6502 7.0675 13.4282 7.27705 13.4282 7.52681C13.4282 7.78293 13.6457 7.98824 13.9215 7.98824Z" fill="white"/>
<path d="M6.26628 6.7119C6.32906 6.66745 6.37167 6.63358 6.41875 6.60395C6.89636 6.29704 7.48385 6.42404 7.76862 6.89817C7.94352 7.19026 8.00182 7.50564 7.91661 7.83373C7.8045 8.26764 7.48609 8.49835 7.03987 8.58302C6.75734 8.63594 6.51742 8.55762 6.32682 8.35231C6.31785 8.34172 6.30664 8.33326 6.27076 8.32691C6.27076 8.37347 6.27076 8.42215 6.27076 8.46872C6.27076 8.51317 6.25282 8.5301 6.20798 8.5301C6.00169 8.5301 5.79764 8.5301 5.59134 8.5301C5.5465 8.5301 5.52408 8.51529 5.52856 8.47084C5.52856 8.45602 5.52856 8.44332 5.52856 8.4285C5.52856 7.51834 5.52856 6.6103 5.52632 5.70014C5.52632 5.61124 5.55547 5.59219 5.64292 5.59431C5.82006 5.60066 5.99944 5.59854 6.17883 5.59431C6.24834 5.59431 6.27076 5.61124 6.27076 5.67898C6.26628 5.98589 6.27076 6.29069 6.27076 6.5976C6.27076 6.62723 6.27076 6.65898 6.27076 6.7119H6.26628ZM6.74389 7.98824C7.01521 7.98824 7.22822 7.78716 7.23047 7.53104C7.23047 7.27916 7.01296 7.06961 6.74613 7.0675C6.4793 7.0675 6.24834 7.2834 6.25282 7.53316C6.25731 7.78716 6.47481 7.98824 6.74613 7.98824H6.74389Z" fill="white"/>
<path d="M9.80463 7.57126C9.81584 6.97437 10.1432 6.60395 10.7083 6.48754C10.9818 6.4325 11.2532 6.4325 11.52 6.5087C11.9729 6.63993 12.2129 6.94473 12.2801 7.37441C12.3496 7.82949 12.1658 8.21049 11.7689 8.40945C11.6142 8.48777 11.4393 8.53645 11.2666 8.57244C10.9617 8.63594 10.6612 8.60207 10.3809 8.46872C9.96832 8.27187 9.82032 7.92686 9.80463 7.57126ZM11.0312 7.98824C11.307 7.98824 11.5267 7.78293 11.5245 7.52681C11.5245 7.27705 11.298 7.0675 11.0334 7.0675C10.7688 7.0675 10.5468 7.27916 10.5446 7.52893C10.5446 7.77869 10.7643 7.98824 11.0334 7.98824H11.0312Z" fill="white"/>
<path d="M9.26199 7.53104C9.26199 7.83373 9.26199 8.13852 9.26199 8.44121C9.26199 8.51105 9.23733 8.53434 9.16333 8.53222C8.9974 8.52799 8.82923 8.52799 8.6633 8.53222C8.57809 8.53434 8.55118 8.51105 8.55118 8.4285C8.55567 7.88029 8.55342 7.3342 8.55118 6.78598C8.55118 6.64205 8.54221 6.496 8.45476 6.37324C8.40768 6.30762 8.32695 6.26529 8.26417 6.20814C8.24174 6.18909 8.21259 6.15945 8.21035 6.13617C8.20587 5.95626 8.21035 5.77634 8.20811 5.59643C8.20811 5.54986 8.22829 5.53293 8.27762 5.53293C8.67227 5.53716 9.03103 5.76787 9.14988 6.12982C9.20818 6.3055 9.23957 6.496 9.25078 6.68015C9.26648 6.96378 9.25527 7.24741 9.25527 7.53104H9.26199Z" fill="white"/>
<path d="M13.9215 7.98824C13.6457 7.98824 13.4259 7.78504 13.4282 7.52681C13.4282 7.27493 13.6524 7.0675 13.917 7.0675C14.1838 7.0675 14.4013 7.27281 14.4036 7.52893C14.4036 7.78504 14.1928 7.98824 13.9215 7.98824Z" fill="black"/>
<path d="M6.74389 7.98824C6.47257 7.98824 6.25507 7.78716 6.25058 7.53316C6.2461 7.2834 6.47705 7.06538 6.74389 7.0675C7.01072 7.0675 7.23047 7.27916 7.22822 7.53104C7.22822 7.78928 7.01521 7.98824 6.74164 7.98824L6.74389 7.98824Z" fill="black"/>
<path d="M11.0289 7.98824C10.7598 7.98824 10.5379 7.78081 10.5401 7.52893C10.5401 7.27916 10.7643 7.0675 11.0289 7.0675C11.2935 7.0675 11.5177 7.27493 11.52 7.52681C11.5222 7.78293 11.3025 7.98824 11.0267 7.98824H11.0289Z" fill="black"/>
</svg>
