<svg width="35" height="35" viewBox="0 0 35 35" fill="none" xmlns="http://www.w3.org/2000/svg">
<path d="M16.948 24.636C13.9085 24.636 10.869 24.636 7.82951 24.636C7.01601 24.636 7.0474 24.6255 7.00555 23.8386C6.95062 22.799 7.30113 22.02 8.16432 21.3989C9.51928 20.4251 10.0032 18.9355 10.2648 17.367C10.3929 16.5906 10.4139 15.7984 10.5002 15.0141C10.7879 12.4507 12.3129 10.6479 14.7952 9.96893C15.1693 9.86628 15.2582 9.6768 15.2582 9.32676C15.2582 8.67934 15.2504 8.02665 15.3341 7.38975C15.4439 6.53967 16.1737 5.98962 17.0474 6.00015C17.8923 6.01068 18.5959 6.63178 18.6744 7.49502C18.7319 8.11876 18.7346 8.74776 18.7346 9.37414C18.7346 9.7189 18.8889 9.86102 19.2054 9.96103C21.9179 10.8243 23.2572 12.5771 23.5292 15.4536C23.6365 16.5958 23.83 17.738 24.0995 18.8487C24.3532 19.8909 24.9391 20.7831 25.8337 21.4068C26.744 22.0411 27.0343 22.9148 26.9951 23.9807C26.9768 24.4808 26.8015 24.6492 26.3071 24.6439C24.0131 24.6229 21.7165 24.6334 19.4225 24.6334C18.5959 24.6334 17.772 24.6334 16.9454 24.6334L16.948 24.636Z" fill="black"/>
<path d="M16.982 25.2966C17.806 25.2966 18.6325 25.3019 19.4565 25.294C19.8279 25.2887 19.9378 25.4387 19.909 25.8125C19.8018 27.2547 18.4651 28.4074 16.8957 28.3811C15.4518 28.3574 14.1047 27.1099 14.0367 25.7545C14.0184 25.394 14.1884 25.2914 14.5023 25.2914C15.3262 25.2966 16.1528 25.2914 16.9768 25.2914L16.982 25.2966Z" fill="black"/>
</svg>
