<svg width="35" height="35" viewBox="0 0 35 35" fill="none" xmlns="http://www.w3.org/2000/svg">
<path d="M15.025 24.7437H10.015C6.69112 24.7437 4 21.9773 4 18.5671V11.1765C4 7.76635 6.69399 5 10.015 5H24.9851C28.3089 5 31 7.76635 31 11.1765V18.5671C31 21.9802 28.306 24.7437 24.9851 24.7437H20.1697L14.8246 30L15.0222 24.7437H15.025Z" fill="#FF1A77"/>
<path d="M11.5008 16.7739C12.5602 16.7739 13.4189 15.892 13.4189 14.8042C13.4189 13.7164 12.5602 12.8345 11.5008 12.8345C10.4414 12.8345 9.58265 13.7164 9.58265 14.8042C9.58265 15.892 10.4414 16.7739 11.5008 16.7739Z" fill="white"/>
<path d="M17.5014 16.7739C18.5608 16.7739 19.4196 15.892 19.4196 14.8042C19.4196 13.7164 18.5608 12.8345 17.5014 12.8345C16.4421 12.8345 15.5833 13.7164 15.5833 14.8042C15.5833 15.892 16.4421 16.7739 17.5014 16.7739Z" fill="white"/>
<path d="M23.5679 16.7739C24.6273 16.7739 25.4861 15.892 25.4861 14.8042C25.4861 13.7164 24.6273 12.8345 23.5679 12.8345C22.5086 12.8345 21.6498 13.7164 21.6498 14.8042C21.6498 15.892 22.5086 16.7739 23.5679 16.7739Z" fill="white"/>
</svg>
