<svg width="65" height="65" viewBox="0 0 65 65" fill="none" xmlns="http://www.w3.org/2000/svg">
<circle cx="32.5" cy="32.5" r="32.5" fill="#25282C"/>
<path d="M32.497 20C25.5997 19.994 20.006 25.5818 20 32.4791C20 36.294 21.737 39.8996 24.7267 42.2704C24.7686 42.3123 24.8164 42.3481 24.8702 42.378C29.3578 45.867 35.6422 45.867 40.1298 42.378C40.1806 42.3481 40.2284 42.3123 40.2733 42.2704C45.6757 37.9831 46.5816 30.1292 42.2943 24.7267C39.9205 21.737 36.3119 19.997 32.497 20Z" fill="white"/>
<path d="M40.1447 40.6171C39.1043 37.2895 35.983 35.0532 32.497 35.1429C29.011 35.0562 25.8897 37.2895 24.8493 40.6171C20.3588 36.3926 20.1405 29.3279 24.362 24.8374C28.5865 20.3468 35.6512 20.1286 40.1417 24.353C44.6323 28.5775 44.8505 35.6392 40.626 40.1327C40.4706 40.3002 40.3062 40.4616 40.1417 40.6171H40.1447Z" fill="#25282C"/>
<path d="M36.868 28.7479C36.874 31.1636 34.9217 33.1249 32.506 33.1308C30.0903 33.1368 28.129 31.1845 28.1231 28.7688C28.1171 26.3531 30.0694 24.3919 32.4851 24.3859C33.6481 24.3859 34.7632 24.8433 35.5854 25.6625C36.4046 26.4787 36.868 27.5879 36.868 28.7479Z" fill="white"/>
</svg>
