<svg width="65" height="65" viewBox="0 0 65 65" fill="none" xmlns="http://www.w3.org/2000/svg">
<circle cx="32.5" cy="32.5" r="32.5" fill="#25282C"/>
<path fill-rule="evenodd" clip-rule="evenodd" d="M26.4103 31.2182C26.4103 30.6871 26.8408 30.2567 27.3718 30.2567H37.6282C38.1592 30.2567 38.5897 30.6871 38.5897 31.2182C38.5897 31.7492 38.1592 32.1797 37.6282 32.1797H27.3718C26.8408 32.1797 26.4103 31.7492 26.4103 31.2182Z" fill="white"/>
<path fill-rule="evenodd" clip-rule="evenodd" d="M26.4103 36.3464C26.4103 35.8154 26.8408 35.3849 27.3718 35.3849H32.5C33.031 35.3849 33.4615 35.8154 33.4615 36.3464C33.4615 36.8774 33.031 37.3079 32.5 37.3079H27.3718C26.8408 37.3079 26.4103 36.8774 26.4103 36.3464Z" fill="white"/>
<path fill-rule="evenodd" clip-rule="evenodd" d="M32.5 23.2054C29.7863 23.2054 26.0788 23.4405 23.7647 23.6098C23.0032 23.6656 22.4031 24.2606 22.3413 25.0203C22.1628 27.2127 21.9231 30.6307 21.9231 33.1413C21.9231 35.6519 22.1628 39.0698 22.3413 41.2623C22.4031 42.0219 23.0032 42.617 23.7647 42.6727C26.0788 42.842 29.7863 43.0772 32.5 43.0772C35.2137 43.0772 38.9212 42.842 41.2353 42.6727C41.9968 42.617 42.5969 42.0219 42.6587 41.2623C42.8372 39.0698 43.0769 35.6519 43.0769 33.1413C43.0769 30.6307 42.8372 27.2127 42.6587 25.0203C42.5969 24.2606 41.9968 23.6656 41.2353 23.6098C38.9212 23.4405 35.2137 23.2054 32.5 23.2054ZM23.6244 21.6919C25.9395 21.5225 29.7092 21.2823 32.5 21.2823C35.2908 21.2823 39.0605 21.5225 41.3756 21.6919C43.0812 21.8167 44.4366 23.1583 44.5754 24.8642C44.7541 27.0584 45 30.5451 45 33.1413C45 35.7374 44.7541 39.2241 44.5754 41.4183C44.4366 43.1242 43.0812 44.4659 41.3756 44.5907C39.0605 44.76 35.2908 45.0002 32.5 45.0002C29.7092 45.0002 25.9395 44.76 23.6244 44.5907C21.9188 44.4659 20.5634 43.1242 20.4246 41.4183C20.2459 39.2241 20 35.7374 20 33.1413C20 30.5451 20.2459 27.0584 20.4246 24.8642C20.5634 23.1583 21.9188 21.8167 23.6244 21.6919Z" fill="white"/>
<path fill-rule="evenodd" clip-rule="evenodd" d="M28.6538 20.0002C29.1849 20.0002 29.6154 20.4307 29.6154 20.9618V24.1669C29.6154 24.698 29.1849 25.1284 28.6538 25.1284C28.1228 25.1284 27.6923 24.698 27.6923 24.1669V20.9618C27.6923 20.4307 28.1228 20.0002 28.6538 20.0002Z" fill="white"/>
<path fill-rule="evenodd" clip-rule="evenodd" d="M36.3462 20.0002C36.8772 20.0002 37.3077 20.4307 37.3077 20.9618V24.1669C37.3077 24.698 36.8772 25.1284 36.3462 25.1284C35.8151 25.1284 35.3846 24.698 35.3846 24.1669L35.3846 20.9618C35.3846 20.4307 35.8151 20.0002 36.3462 20.0002Z" fill="white"/>
<path fill-rule="evenodd" clip-rule="evenodd" d="M26.4103 31.2182C26.4103 30.6871 26.8408 30.2567 27.3718 30.2567H37.6282C38.1592 30.2567 38.5897 30.6871 38.5897 31.2182C38.5897 31.7492 38.1592 32.1797 37.6282 32.1797H27.3718C26.8408 32.1797 26.4103 31.7492 26.4103 31.2182Z" stroke="white" stroke-width="0.5" stroke-linecap="round" stroke-linejoin="round"/>
<path fill-rule="evenodd" clip-rule="evenodd" d="M26.4103 36.3464C26.4103 35.8154 26.8408 35.3849 27.3718 35.3849H32.5C33.031 35.3849 33.4615 35.8154 33.4615 36.3464C33.4615 36.8774 33.031 37.3079 32.5 37.3079H27.3718C26.8408 37.3079 26.4103 36.8774 26.4103 36.3464Z" stroke="white" stroke-width="0.5" stroke-linecap="round" stroke-linejoin="round"/>
<path fill-rule="evenodd" clip-rule="evenodd" d="M32.5 23.2054C29.7863 23.2054 26.0788 23.4405 23.7647 23.6098C23.0032 23.6656 22.4031 24.2606 22.3413 25.0203C22.1628 27.2127 21.9231 30.6307 21.9231 33.1413C21.9231 35.6519 22.1628 39.0698 22.3413 41.2623C22.4031 42.0219 23.0032 42.617 23.7647 42.6727C26.0788 42.842 29.7863 43.0772 32.5 43.0772C35.2137 43.0772 38.9212 42.842 41.2353 42.6727C41.9968 42.617 42.5969 42.0219 42.6587 41.2623C42.8372 39.0698 43.0769 35.6519 43.0769 33.1413C43.0769 30.6307 42.8372 27.2127 42.6587 25.0203C42.5969 24.2606 41.9968 23.6656 41.2353 23.6098C38.9212 23.4405 35.2137 23.2054 32.5 23.2054ZM23.6244 21.6919C25.9395 21.5225 29.7092 21.2823 32.5 21.2823C35.2908 21.2823 39.0605 21.5225 41.3756 21.6919C43.0812 21.8167 44.4366 23.1583 44.5754 24.8642C44.7541 27.0584 45 30.5451 45 33.1413C45 35.7374 44.7541 39.2241 44.5754 41.4183C44.4366 43.1242 43.0812 44.4659 41.3756 44.5907C39.0605 44.76 35.2908 45.0002 32.5 45.0002C29.7092 45.0002 25.9395 44.76 23.6244 44.5907C21.9188 44.4659 20.5634 43.1242 20.4246 41.4183C20.2459 39.2241 20 35.7374 20 33.1413C20 30.5451 20.2459 27.0584 20.4246 24.8642C20.5634 23.1583 21.9188 21.8167 23.6244 21.6919Z" stroke="white" stroke-width="0.5" stroke-linecap="round" stroke-linejoin="round"/>
<path fill-rule="evenodd" clip-rule="evenodd" d="M28.6538 20.0002C29.1849 20.0002 29.6154 20.4307 29.6154 20.9618V24.1669C29.6154 24.698 29.1849 25.1284 28.6538 25.1284C28.1228 25.1284 27.6923 24.698 27.6923 24.1669V20.9618C27.6923 20.4307 28.1228 20.0002 28.6538 20.0002Z" stroke="white" stroke-width="0.5" stroke-linecap="round" stroke-linejoin="round"/>
<path fill-rule="evenodd" clip-rule="evenodd" d="M36.3462 20.0002C36.8772 20.0002 37.3077 20.4307 37.3077 20.9618V24.1669C37.3077 24.698 36.8772 25.1284 36.3462 25.1284C35.8151 25.1284 35.3846 24.698 35.3846 24.1669L35.3846 20.9618C35.3846 20.4307 35.8151 20.0002 36.3462 20.0002Z" stroke="white" stroke-width="0.5" stroke-linecap="round" stroke-linejoin="round"/>
</svg>
