<svg width="170" height="19" viewBox="0 0 170 19" fill="none" xmlns="http://www.w3.org/2000/svg">
    <path d="M19.4874 5.9095L19.2802 4.6319L19.5509 3.56561C18.8285 0.996823 16.2659 -0.521184 13.7592 0.165118C12.5385 0.498575 11.553 1.29732 10.9333 2.32871L5.8192 11.4406C5.1566 12.5554 4.91583 13.9396 5.26299 15.3064C5.93306 17.9527 8.54239 19.5328 11.0901 18.8349C12.378 18.482 13.4027 17.6154 14.0149 16.5045L19.0842 7.47404C19.3344 7.03395 19.5173 6.55121 19.6274 6.04715L19.4893 5.91338L19.4874 5.9095Z" fill="black"/>
    <path d="M5.98555 0.164901C7.20623 0.498358 8.19173 1.2971 8.8114 2.3285L13.9255 11.4404C14.5881 12.5552 14.8289 13.9394 14.4817 15.3062C13.8117 17.9525 11.2024 19.5326 8.65461 18.8346C7.36674 18.4818 6.34205 17.6152 5.72984 16.5043L0.662364 7.46994C0.0389612 6.3707 -0.179416 5.02524 0.158416 3.69335C0.82848 1.04701 3.43781 -0.533033 5.98555 0.164901Z" fill="black"/>
    <path d="M23.4369 9.74039C22.1714 9.3856 21.1131 8.50349 20.4953 7.33445C20.3982 7.15997 20.3105 6.95834 20.2321 6.74315C20.1855 6.61907 20.1444 6.49305 20.1071 6.3651C19.7842 5.28718 19.6647 4.05998 19.6647 4.05998C19.6423 3.93784 19.6181 3.81764 19.5882 3.6955C18.9181 1.04917 16.3088 -0.530878 13.7611 0.167056C12.5404 0.500514 11.5549 1.29926 10.9352 2.33065L6.87563 9.56009C9.1154 8.60818 11.1256 9.2654 11.1256 9.2654C12.0756 9.53488 12.9081 10.0971 13.524 10.8571C13.5949 10.9443 13.6621 11.0354 13.7275 11.1266C13.7275 11.1266 13.7405 11.1459 13.748 11.1556C13.7667 11.1828 13.7853 11.2119 13.804 11.239C13.8189 11.2603 13.832 11.2817 13.845 11.303C13.9962 11.5395 14.1288 11.7877 14.2389 12.0494C14.2407 12.0552 14.2445 12.061 14.2463 12.0668C14.2557 12.0901 14.2669 12.1153 14.2762 12.1386C14.8492 13.5112 14.8884 14.9458 14.8884 14.9458C14.9108 15.066 14.9351 15.1862 14.9649 15.3064C15.635 17.9527 18.2443 19.5328 20.7921 18.8349C22.0799 18.482 23.1046 17.6154 23.7168 16.5045L27.6775 9.44764C25.4396 10.3937 23.4369 9.74039 23.4369 9.74039Z" fill="black"/>
    <path d="M9.26658 18.957C9.26658 18.957 12.531 13.7942 6.87563 9.56009C6.87563 9.56009 8.4136 8.74001 10.8512 9.19367C10.8512 9.19367 13.0555 9.55621 14.1288 11.8051C14.1288 11.8051 14.7447 12.9005 14.8903 14.9477C14.8903 14.9477 13.4027 19.4533 9.26845 18.9589L9.26658 18.957Z" fill="black"/>
    <path d="M28.7115 8.6993C28.7246 8.69736 28.7377 8.69348 28.7507 8.69155C28.8011 8.67991 28.8496 8.66634 28.8963 8.65277C28.9019 8.65277 28.9075 8.64889 28.9112 8.64889C28.9635 8.63144 29.0139 8.61206 29.0624 8.59073C29.0718 8.58686 29.0792 8.58298 29.0867 8.5791C29.124 8.56165 29.1613 8.54226 29.1949 8.52094C29.208 8.51318 29.2229 8.50349 29.236 8.49574C29.264 8.47829 29.292 8.4589 29.3181 8.43757C29.3312 8.42788 29.3443 8.41625 29.3573 8.40656C29.3835 8.38523 29.4077 8.36197 29.432 8.33676C29.4432 8.32707 29.4525 8.31544 29.4637 8.30574C29.4954 8.27085 29.5272 8.23401 29.5533 8.1933C30.3372 7.06109 28.8702 4.57567 26.2795 2.64278C23.6926 0.709894 20.9563 0.0623663 20.1743 1.19457C20.1481 1.23334 20.1239 1.27406 20.1015 1.31671C20.094 1.33028 20.0884 1.34579 20.0828 1.35936C20.0697 1.39038 20.0567 1.4214 20.0436 1.45242C20.038 1.46987 20.0324 1.48538 20.0268 1.50282C20.0175 1.53384 20.0082 1.5668 20.0007 1.59976C19.997 1.61721 19.9932 1.63272 19.9895 1.65017C19.982 1.68894 19.9764 1.72965 19.9727 1.77037C19.9727 1.782 19.969 1.79363 19.969 1.80332C19.9652 1.85761 19.9634 1.91383 19.9634 1.97005C19.9634 1.97393 19.9634 1.97781 19.9634 1.98168C19.9634 2.03403 19.969 2.08831 19.9746 2.1426C19.9746 2.15617 19.9783 2.16974 19.9802 2.18331C19.9858 2.22984 19.9932 2.27637 20.0026 2.32484C20.0044 2.34035 20.0082 2.35392 20.0119 2.36943C20.0231 2.42177 20.0343 2.47218 20.0473 2.52646C20.0492 2.53615 20.0529 2.54585 20.0548 2.55748C20.1089 2.75523 20.1855 2.96267 20.2863 3.17593C20.2881 3.18174 20.2919 3.18562 20.2937 3.19144C20.3255 3.25929 20.359 3.32715 20.3945 3.39694C20.3964 3.40082 20.3982 3.40663 20.402 3.41051C20.5588 3.70713 20.7529 4.01539 20.9843 4.32752C20.8667 5.704 21.4323 7.10568 22.5895 7.97035C23.7467 8.83307 25.2044 8.94164 26.4214 8.38911C26.7835 8.519 27.1306 8.614 27.4535 8.6741H27.461C27.5375 8.68961 27.6122 8.70124 27.685 8.71093C27.6906 8.71093 27.6962 8.71093 27.7018 8.71287C27.9313 8.74195 28.146 8.75358 28.3457 8.74389C28.3532 8.74389 28.3625 8.74389 28.37 8.74389C28.4241 8.74001 28.4782 8.73614 28.5305 8.73032C28.5435 8.73032 28.5585 8.72644 28.5715 8.7245C28.6182 8.71869 28.6649 8.70899 28.7097 8.70124L28.7115 8.6993ZM28.8142 7.7377C28.8142 7.7377 28.8011 7.75127 28.7937 7.75709C28.7806 7.76872 28.7694 7.78035 28.7563 7.79199C28.747 7.79974 28.7377 7.80556 28.7283 7.81331C28.7153 7.82301 28.7041 7.83076 28.691 7.83851C28.6798 7.84433 28.6686 7.85209 28.6555 7.8579C28.6425 7.86566 28.6294 7.87147 28.6163 7.87729C28.6033 7.88311 28.5902 7.88892 28.5753 7.89474C28.5622 7.90055 28.5491 7.90443 28.5342 7.90831C28.5193 7.91412 28.5025 7.918 28.4876 7.92188C28.4745 7.92576 28.4614 7.9277 28.4465 7.93157C28.4278 7.93545 28.411 7.93933 28.3905 7.94321C28.3793 7.94514 28.3662 7.94708 28.3532 7.94902C28.3308 7.9529 28.3102 7.95484 28.2878 7.95678C28.2804 7.95678 28.2729 7.95678 28.2673 7.95678C28.1385 7.96647 27.9967 7.96065 27.8399 7.94127C27.8007 7.93545 27.7615 7.92963 27.7223 7.92382C27.7186 7.92382 27.7148 7.92382 27.7111 7.92382C27.6719 7.91606 27.6327 7.90831 27.5916 7.90055C27.5879 7.90055 27.5823 7.90055 27.5786 7.89861C27.5375 7.88892 27.4965 7.88117 27.4535 7.86953C27.4498 7.86953 27.4461 7.86953 27.4423 7.8676C27.3994 7.85596 27.3546 7.84433 27.3098 7.8327C26.3784 7.57291 25.1615 6.94089 23.9427 6.03164C22.7164 5.11657 21.7458 4.11426 21.2139 3.27868C21.1896 3.24184 21.1672 3.20501 21.1448 3.16817C21.1411 3.16236 21.1374 3.1546 21.1336 3.14879C21.1131 3.11389 21.0944 3.08093 21.0739 3.04603C21.0702 3.03828 21.0646 3.03052 21.0608 3.02083C21.0422 2.98787 21.0254 2.95492 21.0086 2.9239C21.0048 2.91614 20.9992 2.90645 20.9955 2.89869C20.9787 2.86767 20.9638 2.83472 20.9489 2.8037C20.9451 2.79594 20.9414 2.78819 20.9377 2.78043C20.9227 2.74941 20.9097 2.71839 20.8966 2.68737C20.8947 2.68156 20.8929 2.67768 20.891 2.67186C20.8499 2.57299 20.8201 2.47799 20.7977 2.38687C20.7977 2.38106 20.7939 2.3733 20.7921 2.36749C20.7865 2.34616 20.7827 2.32677 20.779 2.30545C20.7771 2.29188 20.7734 2.27637 20.7715 2.2628C20.7678 2.24535 20.7678 2.2279 20.7641 2.21045C20.7641 2.19494 20.7603 2.17943 20.7603 2.16392C20.7603 2.14841 20.7603 2.1329 20.7585 2.11739C20.7585 2.10188 20.7585 2.08444 20.7585 2.06893C20.7585 2.05536 20.7585 2.03985 20.7603 2.02628C20.7603 2.01077 20.7641 1.99332 20.7659 1.97781C20.7659 1.96424 20.7697 1.9526 20.7715 1.94097C20.7753 1.92546 20.779 1.90801 20.7827 1.8925C20.7865 1.88087 20.7883 1.87118 20.7921 1.85955C20.7977 1.8421 20.8051 1.82465 20.8126 1.80914C20.8163 1.80139 20.8182 1.79363 20.8238 1.78394C20.835 1.76067 20.8481 1.73741 20.863 1.71414C21.3725 0.977435 23.575 1.71414 25.7849 3.36204C27.9948 5.00994 29.3723 6.94089 28.8627 7.6776C28.8627 7.6776 28.8627 7.6776 28.8627 7.67954C28.8478 7.70087 28.8328 7.72025 28.8142 7.7377ZM21.4845 4.94984C21.4845 4.94984 21.4771 4.94209 21.4733 4.93821C21.4771 4.94209 21.4808 4.94597 21.4845 4.94984Z" fill="black"/>
    <path d="M28.0303 7.04171C29.2771 5.22902 28.8758 2.71064 27.1325 1.40977C25.3873 0.108895 22.9572 0.523778 21.7029 2.33647C21.6954 2.3481 21.688 2.35973 21.6805 2.37136C22.2853 3.37368 23.2148 4.39537 24.3888 5.27167C25.6094 6.18092 26.888 6.77998 28.0284 7.04171H28.0303Z" fill="black"/>
    <path d="M33.5009 3.01695H36.8456L39.3336 13.738H39.4568L42.1688 3.01695H45.0451L47.757 13.7593H47.8802L50.3682 3.01695H53.713L49.491 18.356H46.4934L43.6788 8.2282H43.5556L40.7204 18.356H37.7229L33.5009 3.01695Z" fill="black"/>
    <path d="M61.6119 18.5693C57.6755 18.5693 54.6966 15.6767 54.6966 10.6884C54.6966 5.70012 57.6755 2.80757 61.6119 2.80757C65.5483 2.80757 68.5067 5.6788 68.5067 10.6884C68.5067 15.698 65.5184 18.5693 61.6119 18.5693ZM61.6119 15.7523C63.8871 15.7426 65.3952 13.9629 65.3859 10.6884C65.3971 7.40424 63.8871 5.63421 61.6119 5.62451C59.318 5.63421 57.8173 7.40424 57.8173 10.6884C57.8173 13.9726 59.3161 15.7426 61.6119 15.7523Z" fill="black"/>
    <path d="M69.2607 3.01695H72.6054L75.0934 13.738H75.2166L77.9286 3.01695H80.8049L83.5168 13.7593H83.64L86.128 3.01695H89.4728L85.2508 18.356H82.2532L79.4386 8.2282H79.3154L76.4802 18.356H73.4827L69.2607 3.01695Z" fill="black"/>
    <path d="M92.0933 3.01695H97.8868C101.243 3.01695 103.169 5.16698 103.169 8.18748C103.169 11.208 101.211 13.358 97.8047 13.358H95.1525V18.3579H92.0933V3.01695ZM97.3157 10.7931C99.1318 10.7931 100.018 9.73457 100.009 8.18748C100.02 6.66172 99.1318 5.63421 97.3157 5.62451H95.1543V10.795H97.3157V10.7931Z" fill="black"/>
    <path d="M105.108 3.01695H108.167V15.729H114.532V18.356H105.108V3.01695Z" fill="black"/>
    <path d="M116.061 18.3579L121.18 3.01889H125.117L130.216 18.3579H126.933L125.821 14.8198H120.477L119.366 18.3579H116.061ZM125.046 12.3402L123.2 6.47173H123.097L121.251 12.3402H125.046Z" fill="black"/>
    <path d="M143.686 18.3579H141.034L134.548 8.61206H134.425V18.3579H131.366V3.01695H134.059L140.504 12.7628H140.646V3.01695H143.685V18.356L143.686 18.3579Z" fill="black"/>
    <path d="M146.174 3.01695H156.087V5.6439H149.234V9.37203H155.578V11.999H149.234V15.7271H156.108V18.3541H146.174V3.01695Z" fill="black"/>
    <path d="M157.903 3.01695H170V5.6439H165.472V18.356H162.433V5.6439H157.905V3.01695H157.903Z" fill="black"/>
</svg>
