<svg width="27" height="27" viewBox="0 0 27 27" fill="none" xmlns="http://www.w3.org/2000/svg">
<path fill-rule="evenodd" clip-rule="evenodd" d="M2.07938 4.01658C2.3157 2.2743 3.80665 1 5.54929 1H21.4507C23.1933 1 24.6843 2.2743 24.9206 4.01658C25.2428 6.39169 25.7275 10.2591 25.8891 13.1342C26.0482 15.9651 26.0042 19.792 25.9523 22.1776C25.9134 23.9644 24.5322 25.4215 22.7506 25.5568C20.3279 25.7409 16.4063 26 13.5 26C10.5937 26 6.67208 25.7409 4.24938 25.5568C2.46776 25.4215 1.08657 23.9644 1.04771 22.1776C0.995823 19.792 0.951753 15.9651 1.11088 13.1342C1.27249 10.2591 1.75722 6.39169 2.07938 4.01658ZM5.54929 2.92308C4.75321 2.92308 4.08991 3.50165 3.98501 4.27505C3.663 6.64907 3.18787 10.45 3.03093 13.2421C2.87641 15.991 2.91848 19.7516 2.97033 22.1358C2.98766 22.9328 3.59968 23.5788 4.39506 23.6393C6.81656 23.8232 10.6738 24.0769 13.5 24.0769C16.3262 24.0769 20.1834 23.8232 22.6049 23.6393C23.4003 23.5788 24.0123 22.9328 24.0297 22.1358C24.0815 19.7516 24.1236 15.991 23.9691 13.2421C23.8121 10.45 23.337 6.64907 23.015 4.27505C22.9101 3.50165 22.2468 2.92308 21.4507 2.92308H5.54929Z" fill="black"/>
<path fill-rule="evenodd" clip-rule="evenodd" d="M8.3718 6.1282C8.90284 6.1282 9.33333 6.5587 9.33333 7.08974C9.33333 9.39093 11.1988 11.2564 13.5 11.2564C15.8012 11.2564 17.6667 9.39093 17.6667 7.08974C17.6667 6.5587 18.0972 6.1282 18.6282 6.1282C19.1592 6.1282 19.5897 6.5587 19.5897 7.08974C19.5897 10.453 16.8633 13.1795 13.5 13.1795C10.1367 13.1795 7.41026 10.453 7.41026 7.08974C7.41026 6.5587 7.84075 6.1282 8.3718 6.1282Z" fill="black"/>
<path fill-rule="evenodd" clip-rule="evenodd" d="M2.07938 4.01658C2.3157 2.2743 3.80665 1 5.54929 1H21.4507C23.1933 1 24.6843 2.2743 24.9206 4.01658C25.2428 6.39169 25.7275 10.2591 25.8891 13.1342C26.0482 15.9651 26.0042 19.792 25.9523 22.1776C25.9134 23.9644 24.5322 25.4215 22.7506 25.5568C20.3279 25.7409 16.4063 26 13.5 26C10.5937 26 6.67208 25.7409 4.24938 25.5568C2.46776 25.4215 1.08657 23.9644 1.04771 22.1776C0.995823 19.792 0.951753 15.9651 1.11088 13.1342C1.27249 10.2591 1.75722 6.39169 2.07938 4.01658ZM5.54929 2.92308C4.75321 2.92308 4.08991 3.50165 3.98501 4.27505C3.663 6.64907 3.18787 10.45 3.03093 13.2421C2.87641 15.991 2.91848 19.7516 2.97033 22.1358C2.98766 22.9328 3.59968 23.5788 4.39506 23.6393C6.81656 23.8232 10.6738 24.0769 13.5 24.0769C16.3262 24.0769 20.1834 23.8232 22.6049 23.6393C23.4003 23.5788 24.0123 22.9328 24.0297 22.1358C24.0815 19.7516 24.1236 15.991 23.9691 13.2421C23.8121 10.45 23.337 6.64907 23.015 4.27505C22.9101 3.50165 22.2468 2.92308 21.4507 2.92308H5.54929Z" stroke="black" stroke-width="0.5" stroke-linecap="round" stroke-linejoin="round"/>
<path fill-rule="evenodd" clip-rule="evenodd" d="M8.3718 6.1282C8.90284 6.1282 9.33333 6.5587 9.33333 7.08974C9.33333 9.39093 11.1988 11.2564 13.5 11.2564C15.8012 11.2564 17.6667 9.39093 17.6667 7.08974C17.6667 6.5587 18.0972 6.1282 18.6282 6.1282C19.1592 6.1282 19.5897 6.5587 19.5897 7.08974C19.5897 10.453 16.8633 13.1795 13.5 13.1795C10.1367 13.1795 7.41026 10.453 7.41026 7.08974C7.41026 6.5587 7.84075 6.1282 8.3718 6.1282Z" stroke="black" stroke-width="0.5" stroke-linecap="round" stroke-linejoin="round"/>
</svg>
