<svg width="25" height="25" viewBox="0 0 25 25" fill="none" xmlns="http://www.w3.org/2000/svg">
<path d="M12.4985 4.795e-06C5.60041 -0.00597535 0.00598015 5.58247 0 12.4806C0 16.2959 1.73723 19.9019 4.72731 22.2731C4.76917 22.3149 4.81701 22.3508 4.87083 22.3807C9.35893 25.8701 15.6441 25.8701 20.1322 22.3807C20.183 22.3508 20.2308 22.3149 20.2757 22.2731C25.6787 17.9853 26.5847 10.1304 22.297 4.72731C19.9229 1.73724 16.3138 -0.00298528 12.4985 4.795e-06ZM20.1471 20.6195C19.1066 17.2916 15.9849 15.055 12.4985 15.1447C9.01208 15.058 5.89044 17.2916 4.8499 20.6195C0.358809 16.3946 0.140533 9.32903 4.36252 4.83794C8.58749 0.346853 15.653 0.128578 20.1441 4.35355C24.6352 8.57852 24.8535 15.6411 20.6285 20.1352C20.473 20.3026 20.3086 20.4641 20.1441 20.6195H20.1471ZM16.87 8.74896C16.876 11.1649 14.9235 13.1264 12.5075 13.1324C10.0915 13.1384 8.13001 11.1859 8.12403 8.76989C8.11805 6.35391 10.0706 4.39242 12.4865 4.38644C13.6497 4.38644 14.765 4.84392 15.5873 5.6632C16.4065 6.47949 16.87 7.58881 16.87 8.74896Z" fill="#231815"/>
</svg>
