<svg width="23" height="23" viewBox="0 0 23 23" fill="none" xmlns="http://www.w3.org/2000/svg">
<circle cx="11.5" cy="11.5" r="11.5" fill="#D9D9D9"/>
<path d="M17.8982 17.4061L14.6577 14.1667C16.4456 12.1108 16.2268 8.99505 14.1702 7.20912C12.115 5.42319 8.9981 5.64057 7.21012 7.69645C5.42214 9.75233 5.64102 12.8681 7.69762 14.654C9.5524 16.2652 12.3097 16.2666 14.1659 14.6583L17.4064 17.8977C17.5429 18.0341 17.7632 18.0341 17.8982 17.8977C18.0332 17.7613 18.0346 17.5411 17.8982 17.4061ZM6.72688 10.9501C6.72688 8.61996 8.61577 6.73173 10.9467 6.73173C13.2776 6.73173 15.1665 8.61996 15.1665 10.9501C15.1665 13.2801 13.2776 15.1684 10.9467 15.1684C8.61719 15.1655 6.72972 13.2787 6.72688 10.9501Z" fill="black"/>
</svg>
