<svg width="3" height="15" viewBox="0 0 3 15" fill="none" xmlns="http://www.w3.org/2000/svg">
<path d="M3 1.07143C3 0.479695 2.53685 0 1.96552 0C1.39419 0 0.931035 0.479695 0.931035 1.07143C0.931035 1.66316 1.39419 2.14286 1.96552 2.14286C2.53685 2.14286 3 1.66316 3 1.07143Z" fill="black"/>
<path d="M3 7.5C3 6.90827 2.53685 6.42857 1.96552 6.42857C1.39419 6.42857 0.931035 6.90827 0.931035 7.5C0.931035 8.09173 1.39419 8.57143 1.96552 8.57143C2.53685 8.57143 3 8.09173 3 7.5Z" fill="black"/>
<path d="M3 13.9286C3 13.3368 2.53685 12.8571 1.96552 12.8571C1.39419 12.8571 0.931035 13.3368 0.931035 13.9286C0.931035 14.5203 1.39419 15 1.96552 15C2.53685 15 3 14.5203 3 13.9286Z" fill="black"/>
</svg>
