<svg width="15" height="15" viewBox="0 0 15 15" fill="none" xmlns="http://www.w3.org/2000/svg">
<rect width="15" height="15" rx="7.5" fill="black"/>
<path d="M8.47271 3.75L8.32729 9.09695H6.96259L6.81344 3.75H8.47271ZM7.64494 11.4833C7.39884 11.4833 7.18755 11.3963 7.01106 11.2223C6.83457 11.0458 6.74757 10.8345 6.75005 10.5884C6.74757 10.3448 6.83457 10.136 7.01106 9.962C7.18755 9.788 7.39884 9.70099 7.64494 9.70099C7.88109 9.70099 8.08865 9.788 8.26763 9.962C8.44661 10.136 8.53734 10.3448 8.53982 10.5884C8.53734 10.7525 8.49384 10.9029 8.40932 11.0396C8.32729 11.1738 8.21916 11.282 8.08492 11.364C7.95069 11.4435 7.80403 11.4833 7.64494 11.4833Z" fill="white"/>
</svg>
