<svg width="28" height="28" viewBox="0 0 28 28" fill="none" xmlns="http://www.w3.org/2000/svg">
<rect width="28" height="28" rx="10" fill="white"/>
<path d="M17.4614 11.7453L17.3278 10.9202L17.5015 10.2311C17.0381 8.57234 15.3914 7.59208 13.7825 8.03457C12.998 8.2505 12.366 8.76555 11.9673 9.43135L8.68266 15.3158C8.2568 16.0359 8.10289 16.9291 8.3257 17.8123C8.75665 19.5209 10.4319 20.5413 12.0678 20.0911C12.8944 19.8637 13.5524 19.3038 13.9458 18.5855L17.2013 12.7526C17.362 12.468 17.4798 12.1571 17.5504 11.8317L17.4614 11.7453Z" fill="#FF1A77"/>
<path d="M8.78999 8.03447C9.5745 8.2504 10.2065 8.76545 10.6053 9.43124L13.8899 15.3157C14.3157 16.0358 14.4697 16.929 14.2468 17.8122C13.8159 19.5208 12.1407 20.5412 10.5047 20.091C9.67814 19.8636 9.02015 19.3037 8.62676 18.5854L5.37152 12.7528C4.97107 12.0431 4.83129 11.1732 5.04789 10.3133C5.47883 8.60468 7.15432 7.58461 8.78999 8.03447Z" fill="#FF1A77"/>
<path d="M19.997 14.218C19.1836 13.9891 18.5042 13.4198 18.108 12.6649C18.0453 12.5525 17.9891 12.4224 17.9388 12.2835C17.9092 12.2035 17.8823 12.1221 17.8589 12.0389C17.6522 11.3427 17.5751 10.5498 17.5751 10.5498C17.5612 10.4713 17.5454 10.3926 17.5257 10.3141C17.0944 8.60582 15.4192 7.58545 13.7836 8.03561C12.999 8.25154 12.367 8.76659 11.9683 9.43239L9.36171 14.1018C10.8005 13.4867 12.0911 13.9109 12.0911 13.9109L12.0906 13.9118C12.7005 14.0847 13.2354 14.4484 13.6311 14.9393C13.6765 14.9956 13.7194 15.054 13.7612 15.1136C13.766 15.1201 13.7703 15.126 13.7748 15.1328C13.7872 15.1508 13.7991 15.1688 13.8112 15.1868C13.8203 15.2006 13.8293 15.2145 13.8381 15.2284C13.9352 15.3806 14.0199 15.5416 14.0911 15.7107C14.0928 15.7142 14.0942 15.718 14.0959 15.7219C14.1024 15.7372 14.1089 15.7526 14.1151 15.7682C14.4831 16.6552 14.5079 17.5809 14.5079 17.5809C14.5218 17.6585 14.5373 17.7361 14.5568 17.8136C14.9877 19.5222 16.6629 20.5426 18.2989 20.0924C19.1255 19.865 19.7835 19.3054 20.1768 18.5868L22.7204 14.0298C21.2839 14.6413 19.997 14.218 19.997 14.218Z" fill="#FF1A77"/>
<path d="M10.8974 20.1712C10.8974 20.1712 12.994 16.8372 9.36171 14.1018C9.36171 14.1018 10.3498 13.572 11.9143 13.8649C11.9143 13.8649 13.3295 14.0986 14.0188 15.5517C14.0188 15.5517 14.4147 16.2585 14.5079 17.5809C14.5079 17.5809 13.5531 20.4904 10.8974 20.1712Z" fill="#FF1A77"/>
<path d="M23.3856 13.546C23.3941 13.5443 23.4025 13.5428 23.411 13.5407C23.4432 13.5334 23.4746 13.5248 23.5048 13.5154C23.5082 13.5142 23.5115 13.5136 23.5149 13.5124C23.5485 13.5012 23.581 13.4888 23.6121 13.4746C23.6177 13.4723 23.6228 13.469 23.6282 13.4667C23.6522 13.4552 23.6756 13.4431 23.6979 13.4298C23.707 13.4245 23.7154 13.4189 23.7239 13.4133C23.7423 13.4015 23.7598 13.3891 23.7767 13.3758C23.7852 13.369 23.7939 13.3626 23.8021 13.3555C23.8188 13.3413 23.8343 13.3266 23.8496 13.3109C23.8564 13.3041 23.8631 13.2977 23.8696 13.2906C23.8905 13.2676 23.91 13.2437 23.9278 13.218C24.4308 12.4861 23.4895 10.8814 21.8256 9.63388C20.1617 8.38636 18.4052 7.96807 17.9022 8.69994C17.9022 8.70023 17.9019 8.70053 17.9016 8.70082C17.8844 8.72619 17.8692 8.75274 17.855 8.78017C17.8505 8.78902 17.8469 8.79846 17.8426 8.80761C17.8336 8.82708 17.8254 8.84714 17.818 8.86749C17.8141 8.87811 17.8107 8.88903 17.8073 8.89994C17.8011 8.92059 17.7955 8.94153 17.7907 8.96277C17.7881 8.97339 17.7859 8.98401 17.7836 8.99493C17.7788 9.0203 17.7754 9.04596 17.7729 9.07221C17.772 9.07959 17.7709 9.08667 17.7703 9.09404C17.7675 9.12885 17.7664 9.16484 17.7672 9.20142C17.7672 9.20408 17.7675 9.20673 17.7675 9.20909C17.7683 9.24301 17.7706 9.27753 17.7743 9.31263C17.7751 9.32148 17.7765 9.33063 17.7777 9.33948C17.7813 9.36956 17.7859 9.39995 17.7918 9.43092C17.7935 9.44036 17.7955 9.4498 17.7972 9.45954C17.8039 9.49258 17.8116 9.5265 17.8206 9.56042C17.8223 9.56691 17.8237 9.5734 17.8257 9.57989C17.8604 9.70762 17.9101 9.84155 17.9739 9.9796C17.9756 9.98314 17.9773 9.98639 17.9787 9.98993C17.9991 10.0336 18.0208 10.0778 18.044 10.1221C18.0454 10.125 18.0468 10.128 18.0485 10.1309C18.1487 10.3227 18.2744 10.5215 18.4227 10.7233C18.3473 11.6118 18.7102 12.5183 19.454 13.0761C20.197 13.6334 21.1334 13.7033 21.9146 13.346C22.1473 13.4298 22.3698 13.4915 22.5776 13.5301L22.5824 13.531C22.6313 13.5401 22.6796 13.5478 22.7268 13.554C22.7304 13.5546 22.7341 13.5549 22.7378 13.5555C22.8849 13.5749 23.0233 13.5817 23.1512 13.5752C23.1566 13.5752 23.1614 13.5744 23.1667 13.5741C23.202 13.572 23.2362 13.5687 23.2698 13.5646C23.2788 13.5634 23.2876 13.5623 23.2964 13.5611C23.3266 13.5569 23.3568 13.5519 23.3856 13.546ZM23.452 12.9245C23.4477 12.9289 23.4429 12.933 23.4384 12.9372C23.4305 12.9448 23.4229 12.9522 23.4141 12.959C23.4082 12.9637 23.402 12.9679 23.3958 12.9723C23.3879 12.9779 23.3797 12.9835 23.3712 12.9888C23.3641 12.9932 23.3565 12.9971 23.3489 13.0009C23.3407 13.0053 23.3322 13.0094 23.3235 13.0136C23.315 13.0174 23.3062 13.021 23.2975 13.0242C23.289 13.0274 23.2803 13.0304 23.2712 13.0333C23.2613 13.0366 23.2512 13.0395 23.2407 13.0425C23.2323 13.0448 23.2235 13.0466 23.2147 13.0487C23.2032 13.0513 23.1916 13.054 23.1794 13.0561C23.1718 13.0572 23.1639 13.0584 23.156 13.0593C23.1422 13.0614 23.128 13.0631 23.1136 13.0646C23.1091 13.0649 23.1043 13.0652 23.0998 13.0655C23.0176 13.0717 22.9258 13.0682 22.8259 13.0549C22.8013 13.0516 22.7753 13.0475 22.7496 13.0434C22.7474 13.0431 22.7451 13.0425 22.7426 13.0422C22.7174 13.0378 22.6917 13.0328 22.6658 13.0274C22.6629 13.0269 22.6601 13.0263 22.6573 13.0257C22.631 13.0201 22.6042 13.0139 22.5771 13.0071C22.5748 13.0065 22.5726 13.0059 22.5703 13.0053C22.5421 12.9982 22.5138 12.9909 22.4847 12.9826C21.8863 12.8145 21.1052 12.4068 20.3224 11.8198C19.5348 11.2292 18.9121 10.582 18.5695 10.0416C18.5543 10.0177 18.5399 9.99376 18.5257 9.97016C18.5232 9.96603 18.5207 9.9619 18.5181 9.95748C18.5048 9.93536 18.4924 9.91323 18.4803 9.8914C18.4775 9.88609 18.4743 9.88078 18.4715 9.87577C18.4599 9.85453 18.4489 9.83388 18.4382 9.81293C18.4354 9.80733 18.4326 9.80173 18.4297 9.79642C18.4196 9.77606 18.4097 9.75571 18.4004 9.73565C18.3981 9.73063 18.3958 9.72562 18.3936 9.7206C18.3845 9.70025 18.3755 9.68019 18.3673 9.66013C18.3659 9.65659 18.3648 9.65334 18.3634 9.6501C18.3374 9.58579 18.3173 9.52443 18.3032 9.46603C18.3021 9.4616 18.3007 9.45718 18.2998 9.45275C18.2967 9.43918 18.2945 9.42591 18.2919 9.41263C18.2902 9.40349 18.2882 9.39434 18.2868 9.3852C18.2851 9.37369 18.2837 9.36219 18.2826 9.35098C18.2815 9.34095 18.2803 9.33063 18.2798 9.32089C18.2789 9.31057 18.2786 9.30024 18.2786 9.29021C18.2786 9.27989 18.2784 9.26956 18.2786 9.25953C18.2786 9.25039 18.2795 9.24124 18.2801 9.2321C18.2809 9.22177 18.282 9.21145 18.2834 9.20113C18.2846 9.19287 18.2857 9.1849 18.2874 9.17694C18.2894 9.16632 18.2922 9.15599 18.2947 9.14567C18.2967 9.13888 18.2984 9.1318 18.3007 9.12502C18.3043 9.11381 18.3089 9.10319 18.3134 9.09257C18.3156 9.08726 18.3176 9.08195 18.3199 9.07693C18.3275 9.06159 18.336 9.04655 18.3456 9.03239C18.6726 8.55657 20.0874 9.03357 21.5062 10.0973C22.925 11.161 23.81 12.4091 23.483 12.8847C23.4827 12.8853 23.4822 12.8856 23.4819 12.8861C23.4726 12.8997 23.463 12.9127 23.452 12.9245Z" fill="#FF1A77"/>
<path d="M22.9481 12.4755C23.7484 11.305 23.4915 9.67813 22.372 8.83859C21.2512 7.99816 19.69 8.26601 18.8855 9.43683C18.8804 9.44421 18.8759 9.45187 18.8708 9.45954C19.2597 10.1068 19.8564 10.7669 20.6104 11.3324C21.3938 11.9198 22.2156 12.3071 22.9481 12.4755Z" fill="#FF1A77"/>
</svg>
