<svg width="24" height="24" viewBox="0 0 24 24" fill="none" xmlns="http://www.w3.org/2000/svg">
<path d="M1.00325 17.6756L2.44542 15.9385C4.01229 14.3523 5.58469 12.7688 7.17067 11.2017C8.238 10.1478 9.3627 10.1861 10.4109 11.2863C11.9287 12.8807 13.441 14.4779 14.9587 16.0723C15.0597 16.1788 15.158 16.2962 15.2754 16.3808C15.5347 16.5692 15.805 16.5638 16.0397 16.3399C16.2718 16.1215 16.3209 15.8566 16.1435 15.5809C16.0479 15.4335 15.9196 15.3106 15.7804 15.1441L15.7777 15.1413C15.8623 15.0485 17.7635 13.1412 17.8235 13.0784C19.1802 11.686 21.4167 15.5726 22.7843 16.9596M11.9887 22.9988C9.87592 22.9988 7.76574 23.0015 5.65291 22.9988C2.96138 22.9933 1.00955 21.0549 1.00409 18.3739C0.998635 14.1039 0.998635 9.8366 1.00409 5.5666C1.00682 2.98931 2.96957 1.01539 5.54099 1.0072C9.85399 0.996282 14.1672 0.999012 18.4774 1.0072C20.9943 1.01266 22.9816 2.98112 22.9898 5.49835C23.0034 9.82568 23.0034 14.153 22.9898 18.4803C22.9816 21.0221 21.0052 22.9769 18.4556 22.9961C18.4256 22.9961 18.3955 22.9961 18.3682 22.9961C16.2418 22.9961 14.1152 22.9961 11.9887 22.9961V22.9988ZM17.926 9.15664C17.5712 9.15664 17.3036 8.88908 17.3091 8.54781C17.3146 8.22292 17.5712 7.96628 17.9042 7.95536C18.2536 7.94444 18.5348 8.20381 18.5429 8.54781C18.5511 8.88908 18.2782 9.15664 17.926 9.15664Z" stroke="#9E9E9E" stroke-width="2" stroke-miterlimit="10"/>
</svg>
