<svg width="35" height="35" viewBox="0 0 35 35" fill="none" xmlns="http://www.w3.org/2000/svg">
<path d="M10.1062 30C11.4676 30 12.5712 28.9086 12.5712 27.5623C12.5712 26.216 11.4676 25.1246 10.1062 25.1246C8.74484 25.1246 7.64124 26.216 7.64124 27.5623C7.64124 28.9086 8.74484 30 10.1062 30Z" fill="#9E9E9E"/>
<path d="M21.6073 30C22.9686 30 24.0722 28.9086 24.0722 27.5623C24.0722 26.216 22.9686 25.1246 21.6073 25.1246C20.2459 25.1246 19.1423 26.216 19.1423 27.5623C19.1423 28.9086 20.2459 30 21.6073 30Z" fill="#9E9E9E"/>
<path d="M6 7.25231V18.6262C6 21.3128 8.21007 23.5015 10.9299 23.5015H24.0722C24.9799 23.5015 25.7166 22.773 25.7166 21.8754C25.7166 20.9778 24.9799 20.2492 24.0722 20.2492H10.9299C10.0254 20.2492 9.28558 19.5207 9.28558 18.6231V16.9969H24.0722C24.781 16.9969 25.4057 16.5481 25.6295 15.8872L28.9151 6.13951C29.083 5.6446 28.9991 5.1005 28.6882 4.67628C28.3805 4.25207 27.8831 4 27.3547 4H6.01865M25.0763 7.24923L22.8848 13.7477H9.28558V7.25231H25.0794L25.0763 7.24923Z" fill="#9E9E9E"/>
</svg>
