<svg width="35" height="35" viewBox="0 0 35 35" fill="none" xmlns="http://www.w3.org/2000/svg">
<path d="M27.6754 26.7966L21.8887 21.012C25.0815 17.3408 24.6907 11.7769 21.0181 8.58771C17.3482 5.39855 11.7823 5.78673 8.5895 9.45794C5.39668 13.1292 5.78753 18.6931 9.46004 21.8822C12.7721 24.7593 17.6959 24.7619 21.0105 21.8898L26.7972 27.6745C27.0409 27.918 27.4342 27.918 27.6754 27.6745C27.9165 27.4309 27.919 27.0377 27.6754 26.7966ZM7.72657 15.2679C7.72657 11.1071 11.0996 7.73524 15.2619 7.73524C19.4243 7.73524 22.7973 11.1071 22.7973 15.2679C22.7973 19.4288 19.4243 22.8007 15.2619 22.8007C11.1021 22.7956 7.73165 19.4263 7.72657 15.2679Z" fill="#231815"/>
</svg>
