<svg width="35" height="35" viewBox="0 0 35 35" fill="none" xmlns="http://www.w3.org/2000/svg">
<path d="M16.9487 24.6514C13.909 24.6514 10.8693 24.6514 7.82957 24.6514C7.01601 24.6514 7.0474 24.6409 7.00555 23.8533C6.95061 22.8129 7.30115 22.0332 8.16441 21.4116C9.51947 20.437 10.0034 18.9462 10.265 17.3763C10.3932 16.5993 10.4141 15.8065 10.5004 15.0216C10.7882 12.456 12.3133 10.6518 14.7958 9.9722C15.1699 9.86947 15.2588 9.67983 15.2588 9.32951C15.2588 8.68155 15.251 8.02832 15.3347 7.39089C15.4446 6.54012 16.1744 5.98961 17.0481 6.00015C17.8931 6.01068 18.5968 6.63231 18.6753 7.49625C18.7328 8.12051 18.7354 8.75003 18.7354 9.37692C18.7354 9.72197 18.8898 9.86421 19.2063 9.9643C21.919 10.8282 23.2584 12.5825 23.5304 15.4614C23.6377 16.6046 23.8313 17.7477 24.1007 18.8593C24.3545 19.9023 24.9404 20.7952 25.8351 21.4195C26.7454 22.0543 27.0358 22.9288 26.9966 23.9955C26.9782 24.496 26.803 24.6646 26.3086 24.6593C24.0144 24.6382 21.7176 24.6488 19.4234 24.6488C18.5968 24.6488 17.7728 24.6488 16.9461 24.6488L16.9487 24.6514Z" fill="white"/>
<path d="M16.9827 25.3125C17.8068 25.3125 18.6334 25.3178 19.4574 25.3099C19.8289 25.3046 19.9388 25.4548 19.91 25.8288C19.8027 27.2722 18.466 28.4259 16.8964 28.3996C15.4524 28.3759 14.1052 27.1273 14.0372 25.7708C14.0189 25.41 14.1889 25.3073 14.5028 25.3073C15.3269 25.3125 16.1535 25.3073 16.9775 25.3073L16.9827 25.3125Z" fill="white"/>
</svg>
