<svg width="153" height="37" viewBox="0 0 153 37" fill="none" xmlns="http://www.w3.org/2000/svg">
<path d="M24.1699 15.8657C25.7353 13.2661 26.0316 10.694 25.2198 8.7202C24.387 6.69543 22.414 5.36339 19.6127 5.28428L19.6127 5.28427C15.9138 5.18014 12.207 5.19969 8.50491 5.21922C6.45875 5.23001 4.41399 5.2408 2.37275 5.23069C1.84298 5.22774 1.41449 5.32587 1.12874 5.62208C0.845158 5.91606 0.759132 6.34698 0.761488 6.86112C0.787662 13.0212 0.795625 19.1806 0.750111 25.3397L0.750111 25.3398C0.745974 25.9249 0.857328 26.3792 1.17923 26.6699C1.49588 26.9559 1.95401 27.0252 2.48646 27.0107C3.59244 26.9804 4.69643 26.9875 5.80548 26.9946L24.1699 15.8657ZM24.1699 15.8657C26.1868 18.321 25.7661 21.1251 25.25 23.7375L25.25 23.7376C25.046 24.7694 24.4958 25.5723 23.6726 26.1176C22.8546 26.6594 21.7813 26.938 20.5359 26.9572L20.5359 26.9572C17.3839 27.0051 14.2305 27.0027 11.0792 27.0004C9.87942 26.9995 8.67992 26.9986 7.48092 27.0005L24.1699 15.8657ZM12.5749 13.8313H12.8249C13.347 13.8313 13.8692 13.8308 14.3916 13.8303C15.6458 13.8291 16.9006 13.8279 18.1544 13.8335C18.7654 13.8357 19.1774 13.703 19.4377 13.4587C19.6948 13.2173 19.8512 12.8221 19.8496 12.1893C19.848 11.597 19.6952 11.215 19.4489 10.9773C19.2007 10.7379 18.8145 10.6032 18.2576 10.5994C16.2528 10.5862 14.2505 10.5852 12.2474 10.5842C10.644 10.5834 9.04006 10.5826 7.43378 10.5755C7.06517 10.574 6.85186 10.6415 6.72661 10.7251C6.60892 10.8036 6.5423 10.914 6.50568 11.0674C6.46702 11.2294 6.46549 11.4246 6.47521 11.6531C6.47729 11.7021 6.47995 11.7532 6.48267 11.8056C6.49192 11.9835 6.50194 12.1763 6.49299 12.3537L12.5749 13.8313ZM12.5749 13.8313V13.8423M12.5749 13.8313V13.8423M12.5749 13.8423C12.1268 13.8412 11.6774 13.8374 11.227 13.8336C9.98312 13.823 8.73262 13.8124 7.48717 13.8587C7.15481 13.8709 6.94188 13.8238 6.80502 13.755C6.67546 13.6899 6.59869 13.5978 6.54928 13.4789C6.49662 13.3521 6.47354 13.1902 6.46979 12.9915C6.46681 12.8339 6.47582 12.67 6.48541 12.4955C6.48797 12.449 6.49056 12.4018 6.49299 12.3537L12.5749 13.8423ZM14.3379 21.7977C13.8222 21.799 13.3068 21.8002 12.7919 21.8002H12.7896C12.2736 21.8002 11.7551 21.795 11.2352 21.7898C10.0311 21.7778 8.81956 21.7656 7.6142 21.8175C7.26995 21.8321 7.03769 21.7879 6.88085 21.7168C6.73035 21.6486 6.63785 21.5508 6.57667 21.4278C6.51223 21.2983 6.4781 21.1312 6.46751 20.924C6.45695 20.7172 6.4704 20.4885 6.48917 20.2413L6.48917 20.2413C6.50538 20.0275 6.49279 19.7965 6.48126 19.5852C6.47896 19.5428 6.47669 19.5013 6.47471 19.4608C6.4622 19.2054 6.46014 18.986 6.50132 18.8025C6.54035 18.6285 6.61474 18.5018 6.75142 18.4118C6.89697 18.3159 7.14414 18.2411 7.56902 18.2452C9.56868 18.2647 11.5724 18.2634 13.5748 18.2621C15.0752 18.2611 16.5748 18.2601 18.0714 18.2679L18.0715 18.2679C18.7487 18.2712 19.1973 18.4398 19.4757 18.7325C19.7549 19.0261 19.9084 19.4922 19.8884 20.1913L19.8884 20.1914C19.8687 20.8836 19.6631 21.2654 19.3654 21.4856C19.0531 21.7166 18.5869 21.8108 17.9603 21.8048C16.7526 21.792 15.5444 21.7949 14.3379 21.7977Z" fill="white" stroke="white" stroke-width="0.5"/>
<path d="M112.877 0.75H113.127H118.017H118.267V1V1.01049V1.02097V1.03145V1.04193V1.05241V1.06288V1.07335V1.08381V1.09427V1.10473V1.11519V1.12564V1.13609V1.14653V1.15698V1.16741V1.17785V1.18828V1.19871V1.20914V1.21956V1.22998V1.2404V1.25081V1.26122V1.27163V1.28203V1.29244V1.30283V1.31323V1.32362V1.33401V1.34439V1.35478V1.36516V1.37553V1.3859V1.39627V1.40664V1.41701V1.42737V1.43772V1.44808V1.45843V1.46878V1.47913V1.48947V1.49981V1.51014V1.52048V1.53081V1.54114V1.55146V1.56178V1.5721V1.58242V1.59273V1.60304V1.61335V1.62365V1.63395V1.64425V1.65455V1.66484V1.67513V1.68542V1.6957V1.70598V1.71626V1.72653V1.73681V1.74708V1.75734V1.76761V1.77787V1.78813V1.79838V1.80863V1.81888V1.82913V1.83938V1.84962V1.85986V1.87009V1.88032V1.89056V1.90078V1.91101V1.92123V1.93145V1.94167V1.95188V1.96209V1.9723V1.98251V1.99271V2.00291V2.01311V2.0233V2.03349V2.04368V2.05387V2.06406V2.07424V2.08442V2.09459V2.10477V2.11494V2.12511V2.13527V2.14544V2.1556V2.16576V2.17591V2.18606V2.19621V2.20636V2.21651V2.22665V2.23679V2.24693V2.25706V2.2672V2.27733V2.28746V2.29758V2.3077V2.31782V2.32794V2.33806V2.34817V2.35828V2.36839V2.37849V2.3886V2.3987V2.4088V2.41889V2.42898V2.43908V2.44916V2.45925V2.46933V2.47942V2.48949V2.49957V2.50965V2.51972V2.52979V2.53985V2.54992V2.55998V2.57004V2.5801V2.59016V2.60021V2.61026V2.62031V2.63035V2.6404V2.65044V2.66048V2.67052V2.68055V2.69059V2.70062V2.71064V2.72067V2.73069V2.74072V2.75074V2.76075V2.77077V2.78078V2.79079V2.8008V2.81081V2.82081V2.83081V2.84081V2.85081V2.86081V2.8708V2.88079V2.89078V2.90077V2.91075V2.92073V2.93071V2.94069V2.95067V2.96064V2.97062V2.98059V2.99056V3.00052V3.01049V3.02045V3.03041V3.04037V3.05032V3.06028V3.07023V3.08018V3.09013V3.10007V3.11002V3.11996V3.1299V3.13984V3.14978V3.15971V3.16964V3.17957V3.1895V3.19943V3.20935V3.21928V3.2292V3.23912V3.24903V3.25895V3.26886V3.27877V3.28868V3.29859V3.3085V3.3184V3.3283V3.3382V3.3481V3.358V3.36789V3.37779V3.38768V3.39757V3.40746V3.41734V3.42723V3.43711V3.44699V3.45687V3.46675V3.47662V3.4865V3.49637V3.50624V3.51611V3.52597V3.53584V3.5457V3.55557V3.56543V3.57528V3.58514V3.595V3.60485V3.6147V3.62455V3.6344V3.64425V3.65409V3.66394V3.67378V3.68362V3.69346V3.7033V3.71313V3.72297V3.7328V3.74263V3.75246V3.76229V3.77211V3.78194V3.79176V3.80158V3.8114V3.82122V3.83104V3.84086V3.85067V3.86048V3.8703V3.88011V3.88991V3.89972V3.90953V3.91933V3.92913V3.93893V3.94873V3.95853V3.96833V3.97812V3.98792V3.99771V4.0075V4.01729V4.02708V4.03687V4.04665V4.05644V4.06622V4.076V4.08578V4.09556V4.10534V4.11512V4.12489V4.13467V4.14444V4.15421V4.16398V4.17375V4.18352V4.19328V4.20305V4.21281V4.22257V4.23233V4.24209V4.25185V4.26161V4.27137V4.28112V4.29088V4.30063V4.31038V4.32013V4.32988V4.33963V4.34937V4.35912V4.36886V4.37861V4.38835V4.39809V4.40783V4.41757V4.42731V4.43704V4.44678V4.45651V4.46625V4.47598V4.48571V4.49544V4.50517V4.5149V4.52462V4.53435V4.54407V4.5538V4.56352V4.57324V4.58296V4.59268V4.6024V4.61212V4.62184V4.63155V4.64127V4.65098V4.6607V4.67041V4.68012V4.68983V4.69954V4.70925V4.71895V4.72866V4.73837V4.74807V4.75777V4.76748V4.77718V4.78688V4.79658V4.80628V4.81598V4.82568V4.83537V4.84507V4.85476V4.86446V4.87415V4.88384V4.89354V4.90323V4.91292V4.92261V4.9323V4.94198V4.95167V4.96136V4.97104V4.98073V4.99041V5.0001V5.00978V5.01946V5.02914V5.03882V5.0485V5.05818V5.06786V5.07754V5.08722V5.09689V5.10657V5.11624V5.12592V5.13559V5.14527V5.15494V5.16461V5.17428V5.18395V5.19362V5.20329V5.21296V5.22263V5.2323V5.24197V5.25163V5.2613V5.27097V5.28063V5.2903V5.29996V5.30962V5.31929V5.32895V5.33861V5.34827V5.35793V5.3676V5.37725V5.38691V5.39657V5.40623V5.41589V5.42555V5.43521V5.44486V5.45452V5.46418V5.47383V5.48349V5.49314V5.5028V5.51245V5.5221V5.53176V5.54141V5.55106V5.56072V5.57037V5.58002V5.58967V5.59932V5.60897V5.61862V5.62827V5.63792V5.64757V5.65722V5.66687V5.67652V5.68617V5.69581V5.70546V5.71511V5.72476V5.7344V5.74405V5.7537V5.76334V5.77299V5.78263V5.79228V5.80193V5.81157V5.82122V5.83086V5.84051V5.85015V5.8598V5.86944V5.87908V5.88873V5.89837V5.90802V5.91766V5.9273V5.93695V5.94659V5.95623V5.96588V5.97552V5.98516V5.9948V6.00445V6.01409V6.02373V6.03338V6.04302V6.05266V6.0623V6.07195V6.08159C118.267 7.51053 118.268 8.93973 118.268 10.3691C118.27 13.4324 118.272 16.4963 118.266 19.5594C118.26 22.2223 117.909 24.054 116.826 25.2335C115.74 26.4167 113.977 26.8816 111.33 26.9821M112.877 0.75L94.9455 21.9816C95.0793 23.4636 95.4561 24.5852 96.2213 25.3692C96.9874 26.1542 98.104 26.5609 99.6271 26.7013M112.877 0.75V1M112.877 0.75V1M111.33 26.9821L111.32 26.7323L111.33 26.9821C111.33 26.9821 111.33 26.9821 111.33 26.9821ZM111.33 26.9821C107.437 27.1304 103.507 27.0598 99.6271 26.7013M99.6271 26.7013L99.6502 26.4523L99.6271 26.7013ZM112.877 1V1.00114C112.877 1.67053 112.879 2.32813 112.88 2.97759C112.882 4.42703 112.885 5.83594 112.874 7.24505C112.871 7.61832 112.876 7.94156 112.881 8.21978L112.882 8.27223C112.887 8.52867 112.891 8.74174 112.887 8.92308C112.88 9.32861 112.834 9.49404 112.759 9.5813C112.689 9.66187 112.545 9.73139 112.142 9.76622C111.846 9.79184 111.459 9.79657 110.938 9.80291C110.769 9.80498 110.585 9.80721 110.386 9.8104C109.786 9.82002 109.186 9.82824 108.585 9.83646C105.567 9.87775 102.539 9.91918 99.525 10.1399M112.877 1L99.525 10.1399M113.145 20.285C113.154 21.6006 112.515 22.4975 111.209 22.535C108.096 22.6249 104.979 22.6352 101.867 22.535M113.145 20.285L112.9 15.6166C112.925 15.0796 112.818 14.8117 112.658 14.6687C112.49 14.5183 112.193 14.4408 111.68 14.4597C110.624 14.4989 109.562 14.49 108.507 14.4811C108.139 14.478 107.772 14.4749 107.406 14.4739V14.4894H107.156C106.671 14.4894 106.189 14.4855 105.707 14.4817C104.629 14.4729 103.557 14.4643 102.483 14.4995C101.518 14.5318 100.988 14.6904 100.682 15.0025C100.377 15.3144 100.235 15.8401 100.224 16.7825L100.224 16.7826C100.219 17.2372 100.225 17.7019 100.231 18.1701C100.24 18.8739 100.248 19.5856 100.22 20.2827C100.194 20.9221 100.34 21.4102 100.611 21.7391C100.877 22.0635 101.292 22.2659 101.875 22.2851C101.875 22.2851 101.875 22.2851 101.875 22.2851L101.867 22.535M113.145 20.285C113.142 19.8788 113.136 19.4723 113.13 19.0658C113.114 17.9188 113.098 16.7715 113.15 15.6279L113.145 20.285ZM101.867 22.535C100.587 22.4929 99.9142 21.6325 99.97 20.2725L101.867 22.535ZM99.525 10.1399C98.2318 10.2343 97.1907 10.6143 96.432 11.3185M99.525 10.1399L96.432 11.3185M96.432 11.3185C95.6724 12.0235 95.2246 13.0269 95.067 14.3114L96.432 11.3185Z" fill="white" stroke="white" stroke-width="0.5"/>
<path d="M128.622 24.6454H128.602V24.8954C128.602 25.7102 128.602 26.525 128.601 27.3399C128.6 29.1331 128.599 30.9267 128.603 32.7205L128.603 32.7316C128.606 33.5754 128.607 34.2286 128.665 34.7196C128.723 35.2104 128.842 35.5992 129.131 35.8615C129.417 36.1218 129.82 36.212 130.324 36.2398C130.809 36.2665 131.444 36.2364 132.256 36.1979L132.368 36.1926C132.368 36.1926 132.368 36.1926 132.368 36.1926C132.899 36.1678 133.323 36.0543 133.603 35.7574C133.884 35.4598 133.965 35.035 133.954 34.5264L133.954 34.5264C133.936 33.6955 133.944 32.8639 133.952 32.028C133.954 31.8645 133.955 31.7008 133.957 31.537C133.965 30.5374 133.966 29.5325 133.916 28.5283C133.885 27.8992 133.986 27.5238 134.183 27.3071C134.375 27.0964 134.717 26.973 135.336 27.0014L135.336 27.0014C135.908 27.0273 136.485 27.0169 137.053 27.0066C137.267 27.0028 137.481 26.9989 137.692 26.9971L137.692 26.9971C138.573 26.9888 139.458 26.9934 140.346 26.9981C142.363 27.0086 144.391 27.0193 146.402 26.8781C146.402 26.8781 146.402 26.8781 146.402 26.8781L146.385 26.6287M128.622 24.6454L147.021 10.0361L147.006 10.2857M128.622 24.6454C128.621 23.7967 128.616 22.9468 128.611 22.0963C128.599 19.9772 128.587 17.854 128.637 15.7337C128.679 13.91 129.07 12.4998 129.946 11.5245C130.826 10.5449 132.153 10.0491 133.965 9.96314L133.965 9.96313C138.308 9.75786 142.68 9.78295 147.021 10.0361L147.006 10.2857M128.622 24.6454L133.977 10.2129C138.311 10.008 142.674 10.033 147.006 10.2857M146.385 26.6287C150.086 26.3692 151.662 24.6052 151.753 20.9451C151.8 19.0604 151.807 17.1689 151.702 15.2876C151.527 12.1385 150.16 10.4689 147.006 10.2857M146.385 26.6287C144.383 26.7692 142.371 26.7586 140.358 26.7481C139.468 26.7434 138.579 26.7387 137.69 26.7471L146.385 26.6287ZM139.265 22.3678V22.0145L139.632 22.3806C139.817 22.3807 140.002 22.381 140.186 22.3814C140.631 22.3821 141.076 22.3829 141.521 22.3806M139.265 22.3678L144.589 14.2906L144.587 14.5406C144.587 14.5406 144.587 14.5406 144.587 14.5406C145.204 14.5444 145.659 14.6964 145.972 14.9726C146.284 15.2472 146.488 15.675 146.543 16.3018L146.792 16.28M139.265 22.3678C138.92 22.367 138.574 22.3647 138.227 22.3624C137.207 22.3558 136.182 22.3491 135.16 22.3796L135.16 22.3796C134.654 22.3949 134.356 22.3069 134.184 22.147C134.017 21.992 133.909 21.7129 133.931 21.191C133.969 20.2909 133.963 19.3781 133.958 18.4722C133.954 17.8737 133.951 17.2781 133.96 16.6913L133.96 16.6912C133.971 15.9655 134.149 15.4353 134.476 15.0866C134.799 14.7415 135.305 14.5343 136.059 14.5327L139.265 22.3678ZM141.521 22.3806C141.521 22.3806 141.521 22.3806 141.521 22.3806L141.523 22.6306L141.521 22.3806C141.521 22.3806 141.521 22.3806 141.521 22.3806ZM141.521 22.3806C141.819 22.3787 142.1 22.378 142.365 22.3774C143.281 22.3753 144.006 22.3736 144.587 22.321C145.338 22.253 145.782 22.1038 146.067 21.8166C146.352 21.5282 146.524 21.0527 146.599 20.2064C146.674 19.3645 146.65 18.211 146.593 16.6167L146.593 16.6155C146.592 16.5844 146.586 16.5491 146.575 16.494C146.574 16.4892 146.573 16.4842 146.572 16.4789C146.562 16.4313 146.548 16.3667 146.543 16.3008L146.792 16.28M146.792 16.28C146.796 16.3297 146.806 16.3792 146.817 16.4287C146.829 16.4881 146.841 16.5476 146.843 16.6078L146.792 16.28Z" fill="white" stroke="white" stroke-width="0.5"/>
<path d="M60.0135 14.3954C60.669 14.4659 61.6751 15.3252 61.7457 15.9158C61.8628 16.8947 61.1249 16.8099 60.4832 16.7363C60.3146 16.7169 60.1527 16.6983 60.0146 16.7C58.247 16.7221 56.4794 16.7186 54.7118 16.7151C53.0265 16.7118 51.3411 16.7084 49.6557 16.7273C46.9334 16.758 45.546 18.0862 45.48 20.6071C45.4641 21.216 45.4641 21.826 45.4777 22.4349L60.0135 14.3954ZM60.0135 14.3954C58.4747 14.2295 56.9159 14.2395 55.3584 14.2494C54.8528 14.2527 54.3473 14.2559 53.8427 14.2531L60.0135 14.3954ZM45.8977 9.78418H45.2938L45.649 10.1391C45.6501 10.4746 45.6564 10.7758 45.6623 11.0539C45.6748 11.653 45.6851 12.1445 45.6364 12.6387C45.5735 13.2769 45.6532 13.7938 45.9975 14.1315C46.3364 14.4639 46.8629 14.5529 47.5051 14.5256H47.5051C49.1336 14.4563 50.7646 14.4733 52.4031 14.4903C52.8818 14.4953 53.3611 14.5003 53.8413 14.5031L53.8414 14.5031C54.3528 14.5059 54.8626 14.5027 55.3707 14.4994C56.9246 14.4896 58.4634 14.4798 59.9867 14.6439L59.9867 14.6439C60.2402 14.6712 60.6084 14.8655 60.935 15.1493C61.0936 15.2872 61.2316 15.4371 61.3321 15.5817C61.4351 15.7298 61.4866 15.8549 61.4974 15.9455L61.4974 15.9456C61.5305 16.2219 61.48 16.3465 61.4349 16.4036C61.3905 16.4596 61.3097 16.5031 61.1571 16.5199C61.0036 16.5368 60.8192 16.5222 60.6133 16.4994C60.5819 16.496 60.5496 16.4922 60.5169 16.4885C60.3487 16.4691 60.1671 16.4481 60.0116 16.45L60.0115 16.45C58.2871 16.4716 56.5624 16.4688 54.8357 16.4654L54.7116 16.4651C53.0267 16.4618 51.3399 16.4584 49.6529 16.4773H49.6529C48.2546 16.4931 47.1575 16.8425 46.4009 17.5509C45.6421 18.2613 45.2643 19.2963 45.2301 20.6005L45.48 20.6071L45.2301 20.6005C45.2141 21.2138 45.2141 21.8278 45.2278 22.4405L45.2278 22.4406C45.2622 23.9364 45.5084 25.056 46.1767 25.8068C46.8514 26.5648 47.9044 26.891 49.4051 26.9333C52.9657 27.0337 56.5337 27.019 60.0971 27.0043C61.9891 26.9965 63.8799 26.9888 65.7676 26.9982L65.7678 26.9982C66.0603 26.9995 66.3039 26.9574 66.502 26.8649C66.7055 26.7698 66.8484 26.6272 66.9429 26.4524C67.0343 26.2833 67.0753 26.0937 67.095 25.9077C67.1147 25.7217 67.1148 25.5216 67.1137 25.3276C67.1061 24.0027 67.1075 22.6731 67.1089 21.3426C67.1106 19.6774 67.1124 18.0107 67.0966 16.3494V16.3493C67.0759 14.2265 66.6495 12.6529 65.6443 11.5814C64.6384 10.5091 63.0991 9.98881 60.9707 9.86201C59.2449 9.75919 57.5087 9.76996 55.7824 9.78067C55.1111 9.78484 54.4413 9.78899 53.7743 9.78646L53.7742 9.78646C52.0028 9.78013 50.2317 9.7815 48.3843 9.78292C47.5723 9.78354 46.7456 9.78418 45.8977 9.78418ZM60.6323 22.5765L60.6322 22.5765C59.579 22.5445 58.5225 22.5517 57.4713 22.5589C57.0227 22.5619 56.5751 22.565 56.1292 22.565L56.128 22.565L56.1274 22.565C55.6046 22.5662 55.0806 22.5656 54.5561 22.5651C53.6367 22.5641 52.7158 22.5631 51.7964 22.5718C51.3285 22.5762 50.9886 22.4923 50.77 22.3223C50.5646 22.1625 50.4223 21.8913 50.4269 21.4073C50.4316 20.9317 50.5697 20.6552 50.7735 20.4898C50.9872 20.3163 51.3209 20.225 51.7962 20.2277H51.7962L51.7976 20.2277C54.7386 20.2436 57.6828 20.2596 60.6264 20.2117C61.1274 20.2037 61.3658 20.3153 61.4914 20.4658C61.6265 20.6277 61.6918 20.9026 61.6801 21.3644C61.6688 21.8122 61.6108 22.1128 61.4726 22.3001C61.3515 22.4643 61.1277 22.5916 60.6323 22.5765ZM56.128 22.815H56.1292C56.5789 22.815 57.0285 22.8119 57.4782 22.8088C58.5273 22.8017 59.5763 22.7945 60.6246 22.8264L56.128 22.815Z" fill="white" stroke="white" stroke-width="0.5"/>
<path d="M71.7613 26.9121L71.7636 27.1621C71.7635 27.1621 71.7634 27.1621 71.7633 27.1621C71.1246 27.168 70.6216 27.169 70.2357 27.1251C69.8511 27.0813 69.5337 26.9887 69.3051 26.7671C69.0754 26.5445 68.9775 26.2328 68.9298 25.856C68.8821 25.479 68.8797 24.9879 68.8812 24.3668L68.8812 24.3667C68.8835 23.4204 68.8806 22.4726 68.8778 21.524C68.8723 19.6969 68.8668 17.8668 68.8983 16.039C68.9324 14.0565 69.3797 12.556 70.3613 11.5228C71.3432 10.4891 72.8174 9.96752 74.8042 9.84724L74.8043 9.84724C76.1922 9.76351 77.5929 9.78492 78.9825 9.80617C79.6046 9.81569 80.2244 9.82516 80.8399 9.82516H81.0899V9.91001C81.6852 9.90764 82.2843 9.89729 82.8852 9.88692C84.4344 9.86017 85.9966 9.8332 87.5426 9.94186C89.0949 10.0509 90.3302 10.5695 91.1863 11.4698C92.0423 12.3698 92.4924 13.6233 92.5288 15.1507C92.5741 17.0256 92.5795 18.9141 92.5849 20.7996C92.5894 22.3621 92.5938 23.9226 92.621 25.4715L92.621 25.4715C92.6303 26.012 92.5536 26.4703 92.2603 26.7803C91.9631 27.0945 91.5061 27.1922 90.927 27.1768L90.9269 27.1768C90.4101 27.163 89.9688 27.1601 89.5907 27.1582L89.5171 27.1579C89.1726 27.1562 88.8783 27.1548 88.6311 27.1451C88.368 27.1349 88.143 27.115 87.9564 27.0706C87.7674 27.0256 87.5999 26.9514 87.4689 26.82C87.3373 26.688 87.2659 26.5216 87.2255 26.3362C87.1859 26.1541 87.1728 25.9373 87.1697 25.6881C87.1672 25.4845 87.1714 25.2474 87.1761 24.9766C87.1772 24.9143 87.1784 24.8503 87.1794 24.7845C87.1853 24.4303 87.1901 24.0181 87.1829 23.5369L87.1829 23.5368C87.1692 22.6145 87.1716 21.6994 87.174 20.787C87.1775 19.4849 87.181 18.1883 87.1375 16.8836L87.1375 16.8836C87.1069 15.9622 86.9597 15.4586 86.662 15.1646C86.3639 14.8704 85.8554 14.7271 84.9264 14.7045L84.9263 14.7045C82.2532 14.6385 79.5788 14.617 76.9101 14.6908L76.91 14.6908C75.8732 14.7191 75.3021 14.8872 74.9694 15.2288C74.6354 15.5717 74.4819 16.1499 74.4604 17.1753C74.4604 17.1753 74.4604 17.1753 74.4604 17.1753L74.2105 17.17M71.7613 26.9121C71.9114 26.9109 72.0616 26.9074 72.2117 26.9038C72.3404 26.9008 72.4691 26.8978 72.5978 26.8962M71.7613 26.9121C69.1881 26.936 69.1255 26.8712 69.1312 24.3673L71.7613 26.9121ZM72.5978 26.8962L72.6005 27.1462C72.6006 27.1462 72.6007 27.1462 72.6009 27.1462L72.5978 26.8962ZM72.5978 26.8962C73.7564 26.8837 74.2219 26.4045 74.1809 25.1583C74.0959 22.612 74.1496 20.0594 74.2033 17.5105C74.2057 17.397 74.2081 17.2835 74.2105 17.17M74.2105 17.17C74.2537 15.1101 74.8159 14.4978 76.9032 14.4409L74.2105 17.17Z" fill="white" stroke="white" stroke-width="0.5"/>
<path d="M43.9766 9.63623H44.2521H44.2544L44.2598 9.88549L44.501 9.86204C44.6443 11.3369 44.4402 12.4988 43.8297 13.2955C43.2118 14.102 42.2213 14.4792 40.9243 14.4792C40.4773 14.4792 40.0308 14.4781 39.5848 14.4769C38.2489 14.4735 36.9165 14.4701 35.5838 14.4974L35.5838 14.4974C34.5035 14.5194 33.8962 14.6887 33.5425 15.0427C33.1899 15.3956 33.0284 15.9934 33.021 17.0534V17.0534C33.0181 17.4681 33.0148 17.8826 33.0115 18.2969C32.9928 20.6533 32.974 23.0054 33.0301 25.3561M43.9766 9.63623L27.6568 23.641C27.6543 24.085 27.6445 24.4758 27.636 24.8137C27.627 25.1758 27.6194 25.4771 27.624 25.7176C27.6325 26.1726 27.6791 26.5532 27.9442 26.7916C28.0767 26.9106 28.2417 26.9745 28.4228 27.0123C28.6025 27.0498 28.8177 27.0655 29.0667 27.0736C29.2613 27.08 29.4738 27.082 29.7144 27.0843C30.1175 27.0881 30.5994 27.0927 31.2087 27.1198L31.2088 27.1198C31.7908 27.1454 32.2779 27.0697 32.6072 26.7622C32.9397 26.4518 33.0448 25.9685 33.0301 25.3561M43.9766 9.63623L43.9778 9.6477M43.9766 9.63623L43.9778 9.6477M33.0301 25.3561L32.7801 25.362M33.0301 25.3561L32.7801 25.362M32.7801 25.362C32.8086 26.5479 32.3556 26.9201 31.2198 26.87M32.7801 25.362C32.724 23.007 32.7428 20.6504 32.7615 18.2942C32.7648 17.88 32.7681 17.4658 32.771 17.0517C32.7858 14.9177 33.4061 14.2918 35.5787 14.2474C36.9145 14.2201 38.251 14.2235 39.5876 14.2269C40.0332 14.2281 40.4788 14.2292 40.9243 14.2292C43.3928 14.2292 44.5054 12.8179 44.2621 9.99516L31.2198 26.87M31.2198 26.87C29.2535 26.7828 28.4258 26.926 28.0896 26.5848C27.7674 26.258 27.8962 25.4867 27.9068 23.6424C27.9239 20.4921 27.9854 17.3362 28.2198 14.1962L27.9705 14.1776C27.7354 17.3262 27.6739 20.4889 27.6568 23.6409L31.2198 26.87ZM43.9778 9.6477C42.8376 9.69507 41.7005 9.73186 40.5663 9.76855C37.5926 9.86476 34.6398 9.96029 31.709 10.244L31.7089 10.244C29.6387 10.4452 28.1316 12.012 27.9705 14.1776L43.9778 9.6477Z" fill="white" stroke="white" stroke-width="0.5"/>
<path d="M120.688 13.373C120.666 14.5051 120.672 15.6402 120.678 16.7717C120.681 17.305 120.685 17.8374 120.685 18.3685V18.3843V18.4002V18.4161V18.432V18.4478V18.4637V18.4796V18.4955V18.5114V18.5272V18.5431V18.559V18.5749V18.5908V18.6066V18.6225V18.6384V18.6543V18.6702V18.686V18.7019V18.7178V18.7337V18.7496V18.7654V18.7813V18.7972V18.8131V18.829V18.8449V18.8607V18.8766V18.8925V18.9084V18.9243V18.9402V18.9561V18.972V18.9878V19.0037V19.0196V19.0355V19.0514V19.0673V19.0832V19.0991V19.115V19.1309V19.1468V19.1627V19.1786V19.1945V19.2104V19.2263V19.2422V19.2581V19.274V19.2899V19.3058V19.3217V19.3376V19.3535V19.3694V19.3853V19.4012V19.4171V19.4331V19.449V19.4649V19.4808V19.4967V19.5126V19.5286V19.5445V19.5604V19.5763V19.5922V19.6082V19.6241V19.64V19.6559V19.6719V19.6878V19.7037V19.7197V19.7356V19.7515V19.7675V19.7834V19.7994V19.8153V19.8312V19.8472V19.8631V19.8791V19.895V19.911V19.9269V19.9429V19.9589V19.9748V19.9908V20.0067V20.0227V20.0387V20.0546V20.0706V20.0866V20.1025V20.1185V20.1345V20.1504V20.1664V20.1824V20.1984V20.2144V20.2303V20.2463V20.2623V20.2783V20.2943V20.3103V20.3263V20.3423V20.3583V20.3743V20.3903V20.4063V20.4223V20.4383V20.4543V20.4703V20.4864V20.5024V20.5184V20.5344V20.5504V20.5665V20.5825V20.5985V20.6146V20.6306V20.6466V20.6627V20.6787V20.6948V20.7108V20.7269V20.7429V20.759V20.775V20.7911V20.8071V20.8232V20.8393V20.8553V20.8714V20.8875V20.9035V20.9196V20.9357V20.9518V20.9679V20.984V21.0001V21.0161V21.0322V21.0483V21.0644V21.0805V21.0967V21.1128V21.1289V21.145V21.1611V21.1772V21.1933V21.2095V21.2256V21.2417V21.2579V21.274V21.2901V21.3063V21.3224V21.3386V21.3547V21.3709V21.387V21.4032V21.4194V21.4355V21.4517V21.4679V21.484V21.5002V21.5164V21.5326V21.5488V21.565V21.5812V21.5974V21.6136V21.6298V21.646V21.6622V21.6784V21.6946V21.7108V21.727V21.7433V21.7595V21.7757V21.792V21.8082V21.8245V21.8407V21.8569V21.8732V21.8895V21.9057V21.922V21.9382V21.9545V21.9708V21.9871V22.0034V22.0196V22.0359V22.0522V22.0685V22.0848V22.1011V22.1174V22.1337V22.15V22.1664V22.1827V22.199V22.2153V22.2317V22.248V22.2643V22.2807V22.297V22.3134V22.3297V22.3461V22.3625V22.3788V22.3952V22.4116V22.428V22.4443V22.4607V22.4771V22.4935V22.5099V22.5263V22.5427V22.5591V22.5755V22.592V22.6084V22.6248V22.6413V22.6577V22.6741V22.6906V22.707V22.7235V22.7399V22.7564V22.7729V22.7893V22.8058V22.8223V22.8388V22.8553V22.8717V22.8882V22.9047V22.9212V22.9378V22.9543V22.9708V22.9873V23.0038V23.0204V23.0369V23.0534V23.07V23.0865V23.1031V23.1197V23.1362V23.1528V23.1694V23.1859V23.2025V23.2191V23.2357V23.2523V23.2689V23.2855V23.3021V23.3187V23.3354V23.352V23.3686V23.3852V23.4019V23.4185V23.4352V23.4518V23.4685V23.4852V23.5018V23.5185V23.5352V23.5519V23.5686V23.5853V23.602V23.6187V23.6354V23.6521V23.6688V23.6855V23.7023V23.719V23.7358V23.7525V23.7692V23.786V23.8028V23.8195V23.8363V23.8531V23.8699V23.8867V23.9035V23.9203V23.9371V23.9539V23.9707V23.9875V24.0043V24.0212V24.038V24.0548V24.0717V24.0886V24.1054V24.1223V24.1391V24.156V24.1729V24.1898V24.2067V24.2236V24.2405V24.2574V24.2743V24.2912V24.3082V24.3251V24.342V24.359V24.3759V24.3929V24.4099V24.4268V24.4438V24.4608V24.4778V24.4948V24.5118V24.5288V24.5458V24.5628V24.5798V24.5968V24.6139V24.6309V24.648V24.665V24.6821V24.6991V24.7162V24.7333V24.7504V24.7674V24.7845V24.8016V24.8188V24.8359V24.853V24.8701V24.8872V24.9044V24.9215V24.9387V24.9558V24.973V24.9902V25.0073V25.0245V25.0417V25.0589V25.0761V25.0933V25.1105V25.1278V25.145V25.1622V25.1795V25.1967V25.214V25.2312V25.2485V25.2658V25.2831V25.3003V25.3176V25.3349V25.3522V25.3696V25.3869V25.4042V25.4215V25.4389V25.4562V25.4736V25.4909V25.5083V25.5257V25.5431V25.5605V25.5779V25.5953V25.6127V25.6301V25.6475V25.6649V25.6824V25.6998V25.7173V25.7347V25.7522V25.7697V25.7872V25.8046V25.8221V25.8396V25.8571V25.8747V25.8922V25.9097V25.9273V25.9448V25.9624V25.9799V25.9975V26.015V26.0326V26.0502V26.0678V26.0854V26.103V26.1206V26.1383V26.1559V26.1735V26.1912V26.2088V26.2265V26.2442V26.2619V26.2795V26.2972V26.3149V26.3326V26.3504V26.3681V26.3858V26.4035V26.4213V26.439V26.4568V26.4746V26.4924V26.5101V26.5279V26.5457V26.5635V26.5814V26.5992V26.617V26.6348V26.6527V26.6705V26.6884V26.7063V26.7242V26.742V26.7599V26.7778V26.7958V26.8137V26.8316V26.8495H120.933V27.0995C120.934 27.0995 120.934 27.0995 120.935 27.0995C121.32 27.0995 121.698 27.1026 122.069 27.1056C123.152 27.1143 124.179 27.1227 125.198 27.0534L125.198 27.0534C125.348 27.043 125.469 26.9474 125.544 26.8739C125.63 26.7908 125.71 26.6846 125.778 26.5743C125.908 26.3629 126.028 26.0794 126.029 25.8432M120.688 13.373L120.938 13.3779M120.688 13.373L120.938 13.3779M120.688 13.373C120.701 12.7391 120.684 12.2336 120.671 11.8149C120.665 11.6171 120.659 11.4387 120.657 11.2752C120.655 11.0273 120.661 10.8086 120.695 10.6234C120.729 10.4352 120.795 10.2623 120.926 10.1232C121.056 9.9842 121.228 9.90422 121.426 9.85618C121.621 9.80877 121.858 9.78841 122.14 9.78099C122.492 9.77172 122.942 9.78256 123.508 9.79614C123.841 9.80416 124.215 9.81313 124.631 9.8195C124.797 9.82194 124.963 9.89509 125.101 9.97904C125.245 10.0667 125.388 10.1843 125.515 10.312C125.642 10.4398 125.758 10.5841 125.845 10.7292C125.929 10.8682 126.001 11.0341 126.003 11.1992M120.938 13.3779C120.916 14.5069 120.922 15.6365 120.928 16.7662C120.931 17.3002 120.935 17.8344 120.935 18.3685V26.5995L120.938 13.3779ZM126.003 11.1992C126.082 16.0811 126.068 20.9635 126.029 25.8432M126.003 11.1992C126.003 11.1993 126.003 11.1994 126.003 11.1995L125.753 11.203M126.003 11.1992C126.003 11.1991 126.003 11.1991 126.003 11.199L125.753 11.203M126.029 25.8432L125.779 25.8412M126.029 25.8432C126.029 25.8431 126.029 25.843 126.029 25.8429L125.779 25.8412M125.779 25.8412C125.777 26.1792 125.41 26.7881 125.181 26.804M125.779 25.8412C125.818 20.9622 125.832 16.082 125.753 11.203M125.181 26.804L125.753 11.203M125.181 26.804C124.172 26.8725 123.158 26.8643 122.079 26.8556C121.786 26.8533 121.488 26.8509 121.185 26.8499L125.181 26.804Z" fill="white" stroke="white" stroke-width="0.5"/>
<path d="M123.481 1.25803L123.256 0.804011L123.032 1.25811L121.887 3.57806L119.326 3.95065L118.825 4.02354L119.187 4.37706L121.04 6.18365L120.603 8.73433L120.517 9.23363L120.966 8.99788L123.256 7.79348L125.547 8.99788L125.995 9.23363L125.91 8.73433L125.472 6.18365L127.325 4.37706L127.688 4.02357L127.187 3.95065L124.626 3.57806L123.481 1.25803Z" fill="#E6030A" stroke="#E6030A" stroke-width="0.5"/>
</svg>
