<svg width="19" height="18" viewBox="0 0 19 18" fill="none" xmlns="http://www.w3.org/2000/svg">
<path d="M9.49772 1.92851C9.56635 1.98454 9.63447 2.04214 9.70205 2.10128L9.70358 2.10262C9.71463 2.11238 9.72465 2.12151 9.73265 2.12883L9.74037 2.1359L9.92777 2.2224C10.2654 1.95194 10.6304 1.71965 11.0316 1.54288C12.5067 0.893611 14.0051 0.7634 15.4784 1.50185C16.925 2.22782 17.733 3.45145 17.9524 5.04251C18.1629 6.58364 17.6706 7.89644 16.5718 8.99342C14.6583 10.9024 12.7473 12.8152 10.8367 14.7275C10.5033 15.0612 10.17 15.3949 9.8366 15.7285C9.83666 15.7286 9.83672 15.7287 9.83678 15.7288C9.84679 15.7443 9.85468 15.7568 9.86163 15.7678C9.87568 15.79 9.88587 15.8061 9.90189 15.829L9.75251 15.9336L9.75248 15.9336L9.49227 16.1158L9.30301 15.9626L9.30299 15.9625L9.10365 15.8012C9.11868 15.7826 9.13543 15.7612 9.15341 15.7382C9.15662 15.7342 9.15985 15.73 9.16313 15.7258L4.37845 0.662039C2.11807 1.15583 0.509899 3.26583 0.500051 5.58799L0.50005 5.58806C0.494152 7.02722 1.00716 8.2714 2.02283 9.291L2.02338 9.29155C3.18554 10.4546 4.34814 11.6172 5.51066 12.7797C6.66992 13.939 7.82909 15.0982 8.98782 16.2578M9.49772 1.92851C9.8947 1.59525 10.3346 1.30362 10.83 1.08533L10.8302 1.08525C12.4033 0.392843 14.0625 0.23293 15.7024 1.05486L15.7027 1.05497C17.3084 1.86082 18.2077 3.23378 18.4477 4.97421L18.4478 4.97485C18.6811 6.68302 18.1257 8.14863 16.9251 9.34726L16.9249 9.34739C15.0118 11.2561 13.1011 13.1686 11.1904 15.0809C10.8089 15.4628 10.4273 15.8447 10.0457 16.2266L10.0456 16.2267C10.0253 16.247 10.0141 16.2615 9.98706 16.2964C9.96567 16.3239 9.93438 16.3643 9.8809 16.4304L9.46328 16.9462L9.08266 16.4025C9.05196 16.3586 9.0232 16.3131 9.00643 16.2866C9.00218 16.2799 8.9987 16.2744 8.99615 16.2704C8.99251 16.2647 8.98976 16.2606 8.98782 16.2578M9.49772 1.92851C8.02052 0.722581 6.29975 0.241372 4.37873 0.661978L9.39176 2.45601L9.39168 2.45593L9.16961 2.22178C9.27571 2.12115 9.38498 2.02315 9.49772 1.92851ZM8.98782 16.2578C8.9911 16.261 8.99439 16.2643 8.99767 16.2676L8.99781 16.2678C8.9893 16.2593 8.98419 16.2525 8.98417 16.2525C8.98415 16.2525 8.98531 16.2541 8.98782 16.2578Z" fill="white" stroke="black"/>
</svg>
