<svg width="65" height="65" viewBox="0 0 65 65" fill="none" xmlns="http://www.w3.org/2000/svg">
<circle cx="32.5" cy="32.5" r="32.5" fill="#25282C"/>
<path fill-rule="evenodd" clip-rule="evenodd" d="M44.1952 30.6324C44.6893 31.1229 44.969 31.8027 44.969 32.5135V42.4008C44.969 43.8363 43.8511 45 42.4721 45H39.9752C38.5962 45 37.4783 43.8363 37.4783 42.4008V38.5019C37.4783 35.6309 35.2425 33.3035 32.4845 33.3035C29.7265 33.3035 27.4907 35.6309 27.4907 38.5019V42.4008C27.4907 43.8363 26.3728 45 24.9938 45H22.4969C21.1179 45 20 43.8363 20 42.4008V32.5135C20 31.8027 20.2796 31.1229 20.7738 30.6324L30.7614 20.7182C31.726 19.7606 33.243 19.7606 34.2076 20.7182L44.1952 30.6324Z" fill="white" stroke="white"/>
</svg>
