<svg width="56" height="56" viewBox="0 0 56 56" fill="none" xmlns="http://www.w3.org/2000/svg">
<g filter="url(#filter0_d_1409_1044)">
<rect x="3" y="2" width="50" height="50" rx="25" fill="#FF1A77"/>
<path d="M35.9909 34.9645V28.0343H37.9988V28.4913C37.9988 30.5823 37.9997 32.6734 37.9988 34.7644C37.998 36.1957 37.198 36.9987 35.7678 36.9987C30.5804 37.0004 25.3938 37.0004 20.2064 36.9987C18.8042 36.997 18 36.1872 18 34.7847C18 29.5996 18 24.4144 18 19.2301C18 17.8064 18.8093 17.0017 20.2378 17.0008C22.3153 17 24.3928 17 26.4712 17C26.6247 17 26.7783 17 26.9657 17V18.9969H20.0402V34.9645H35.9909Z" fill="white"/>
<path d="M22.0676 33.0049C22.0676 31.4065 22.0167 29.8684 22.088 28.3361C22.1262 27.5162 22.5927 26.8158 23.1772 26.2307C25.9232 23.4817 28.6802 20.7428 31.4193 17.9862C32.12 17.2807 32.9056 16.8143 33.9117 17.0763C34.3689 17.195 34.827 17.4587 35.1867 17.7708C35.8679 18.3618 36.4786 19.0351 37.1191 19.6736C38.2864 20.8361 38.2949 22.2929 37.1369 23.4511C35.0289 25.56 32.9192 27.6663 30.8103 29.7743C30.1409 30.4433 29.4733 31.1157 28.8066 31.7873C28.01 32.5894 27.0438 32.9947 25.9164 33.0032C24.6321 33.0125 23.3477 33.0058 22.0676 33.0058V33.0049ZM30.7636 21.4924C28.687 23.5682 26.601 25.638 24.5387 27.7316C24.3038 27.9707 24.0874 28.3285 24.0586 28.649C23.989 29.4139 24.0357 30.1889 24.0357 31.0004C24.6533 31.0004 25.2445 30.9902 25.835 31.0029C26.4695 31.0165 26.9827 30.7765 27.4238 30.3331C29.0984 28.6507 30.7772 26.9727 32.4568 25.2954C32.8131 24.9393 33.1804 24.5933 33.5401 24.244C32.5934 23.307 31.6925 22.415 30.7628 21.4932L30.7636 21.4924ZM32.2643 19.9466C33.2118 20.9022 34.1102 21.807 35.0442 22.7499C35.2834 22.4964 35.543 22.2191 35.8051 21.9452C36.0426 21.6976 36.0545 21.4509 35.8093 21.2049C35.1426 20.5351 34.4741 19.8669 33.8048 19.1996C33.5435 18.9392 33.289 18.9621 33.032 19.2165C32.7715 19.4743 32.5009 19.7219 32.2634 19.9474L32.2643 19.9466Z" fill="white"/>
</g>
<defs>
<filter id="filter0_d_1409_1044" x="0" y="0" width="56" height="56" filterUnits="userSpaceOnUse" color-interpolation-filters="sRGB">
<feFlood flood-opacity="0" result="BackgroundImageFix"/>
<feColorMatrix in="SourceAlpha" type="matrix" values="0 0 0 0 0 0 0 0 0 0 0 0 0 0 0 0 0 0 127 0" result="hardAlpha"/>
<feOffset dy="1"/>
<feGaussianBlur stdDeviation="1.5"/>
<feComposite in2="hardAlpha" operator="out"/>
<feColorMatrix type="matrix" values="0 0 0 0 0 0 0 0 0 0 0 0 0 0 0 0 0 0 0.5 0"/>
<feBlend mode="normal" in2="BackgroundImageFix" result="effect1_dropShadow_1409_1044"/>
<feBlend mode="normal" in="SourceGraphic" in2="effect1_dropShadow_1409_1044" result="shape"/>
</filter>
</defs>
</svg>
