<svg width="472" height="107" viewBox="0 0 472 107" fill="none" xmlns="http://www.w3.org/2000/svg">
<path d="M32.0677 78.5872C23.3053 78.5872 14.535 78.6265 5.77259 78.5715C0.924979 78.54 0.0798371 77.7849 0.0638911 73.1362C0.00010676 55.4537 0.0798371 37.7791 0.000106758 20.0966C-0.0158393 16.1794 1.75417 14.7871 5.58123 14.8107C22.8429 14.9051 40.1125 14.8028 57.3741 14.9051C63.2183 14.9444 69.3895 15.5422 71.893 21.7248C74.6517 28.5524 75.3214 35.8913 71.0239 42.4671C69.3177 45.0865 69.3257 46.4944 71.287 48.8228C75.4011 53.7075 75.3214 68.0863 71.4784 73.1991C68.3051 77.4231 63.6409 78.4299 58.7534 78.5086C49.8555 78.6501 40.9576 78.5479 32.0597 78.5479C32.0597 78.5558 32.0597 78.5715 32.0597 78.5794L32.0677 78.5872Z" fill="#EF3426"/>
<path d="M365.819 33.6967C365.819 42.4671 365.859 51.2376 365.803 60.0159C365.731 72.1293 361.37 77.3837 349.267 78.2018C336.167 79.0828 322.988 79.2716 309.888 77.9265C300.807 76.9904 296.39 72.2945 295.927 63.2252C295.608 56.9561 295.6 50.6476 295.911 44.3785C296.382 34.9237 300.376 30.5975 309.824 29.1345C320.373 27.4984 331.033 28.5524 341.637 28.3793C353.756 28.1748 352.281 29.4176 352.416 17.9099C352.472 13.3319 352.464 8.74611 352.448 4.1603C352.44 1.41511 353.756 0.0228484 356.562 0.0464461C357.224 0.0464461 357.886 0.0149826 358.556 0.00711667C365.452 -0.0636762 365.811 0.266691 365.827 6.99202C365.843 15.8962 365.827 24.8004 365.827 33.7045L365.819 33.6967Z" fill="#EF3426"/>
<path d="M437.6 78.6187C431.27 78.6187 425.824 78.7209 420.378 78.5794C416.671 78.485 415.06 79.9244 415.156 83.6686C415.3 89.686 415.236 95.7191 415.092 101.736C414.973 106.487 414.12 107.03 407.996 106.999C402.694 106.967 401.921 106.401 401.905 101.611C401.849 83.2753 401.857 64.9399 401.937 46.6046C401.945 44.2684 402.328 41.9008 402.83 39.6039C403.93 34.554 407.056 31.2504 412.166 29.9132C416.033 28.8985 419.972 28.3557 423.982 28.3557C432.88 28.3557 441.778 28.3557 450.676 28.3715C452 28.3715 453.331 28.4187 454.655 28.5524C467.276 29.7952 471.717 34.5226 471.916 47.0293C471.996 52.1343 472.084 57.255 471.844 62.3521C471.39 72.0743 467.132 76.5342 457.397 78.0366C450.525 79.0985 443.604 78.3276 437.592 78.6187H437.6Z" fill="#EF3426"/>
<path d="M174.857 78.603C167.952 78.603 161.055 78.658 154.151 78.5872C143.228 78.4771 139.56 74.8116 139.544 64.1691C139.544 63.1229 139.536 62.0767 139.576 61.0306C139.863 53.6445 143.323 49.7824 150.834 49.5307C161.303 49.1846 171.795 49.3262 182.272 49.279C183.595 49.279 184.935 49.4284 186.25 49.3498C188.164 49.2239 190.58 49.6801 191.082 47.0215C191.592 44.3313 190.508 42.066 188.02 40.7524C185.62 39.486 182.941 39.3601 180.262 39.368C169.379 39.368 158.496 39.3758 147.613 39.368C141.617 39.3601 139.664 36.6778 141.298 30.9043C141.824 29.0401 143.14 28.4029 144.862 28.4265C159.588 28.5838 174.347 27.459 189.017 28.9693C200.466 30.1492 204.493 34.853 204.772 46.2506C204.979 54.6199 204.891 63.0049 204.764 71.3742C204.684 76.7623 202.978 78.4535 197.54 78.5479C189.974 78.6816 182.407 78.5794 174.849 78.5794C174.849 78.5872 174.849 78.5951 174.849 78.603H174.857Z" fill="#EF3426"/>
<path d="M249.516 28.3085C256.828 28.6389 264.011 27.8366 271.147 29.1109C279.846 30.6604 284.063 34.6956 284.853 43.4268C285.786 53.7389 285.204 64.1061 285.164 74.4419C285.156 77.132 283.768 78.5636 280.97 78.5558C279.774 78.5558 278.578 78.6266 277.382 78.6108C272.566 78.54 271.881 77.9029 271.857 73.089C271.809 65.3647 271.928 57.6325 271.825 49.9082C271.721 42.3491 269.648 40.2804 262.09 40.186C253.854 40.0838 245.617 40.0602 237.389 40.186C230.214 40.2961 227.941 42.648 227.854 49.7588C227.75 57.6168 227.782 65.4669 227.662 73.325C227.582 78.2097 226.857 78.6659 220.271 78.6108C215.232 78.5715 214.539 78.0051 214.507 73.3407C214.451 64.3028 214.371 55.2649 214.523 46.2349C214.714 34.9473 218.557 30.6368 229.799 28.8749C236.393 27.8445 243.058 28.5445 249.532 28.3164L249.516 28.3085Z" fill="#EF3426"/>
<path d="M84.6658 58.9933C84.6658 54.0142 84.4027 49.0273 84.7216 44.0718C85.3196 34.8608 89.3779 30.5582 98.5708 29.1502C109.135 27.5298 119.787 28.5209 130.391 28.4423C134.601 28.4108 134.003 31.7774 134.099 34.4911C134.194 37.3307 133.445 39.3916 129.969 39.368C123.064 39.3208 116.151 39.3208 109.247 39.3916C100.054 39.486 98.0127 41.5625 98.0127 50.5768C98.0127 58.0416 98.0127 65.5063 97.9808 72.971C97.9568 77.9343 97.2871 78.5558 92.1604 78.6108C91.2276 78.6187 90.3027 78.5558 89.3699 78.603C86.0451 78.7524 84.4665 77.2815 84.5223 73.9306C84.602 68.9515 84.5462 63.9803 84.5462 59.0012C84.5861 59.0012 84.6259 59.0012 84.6738 59.0012L84.6658 58.9933Z" fill="#EF3426"/>
<path d="M377.173 53.1332C377.173 46.7226 377.125 40.3119 377.189 33.909C377.236 29.1109 377.946 28.4659 382.714 28.3636C390.049 28.2141 390.512 28.5996 390.535 35.6395C390.583 48.0676 390.591 60.4878 390.551 72.9159C390.535 78.2097 389.977 78.6108 383.599 78.5951C377.826 78.5872 377.228 78.0759 377.189 72.7429C377.141 66.2063 377.181 59.6619 377.173 53.1254V53.1332Z" fill="#EF3426"/>
<path d="M395.136 12.0262C394.984 13.1825 394.171 13.505 393.501 13.8511C389.985 15.6681 387.346 18.3661 385.441 21.7484C384.245 23.8801 383.176 23.6913 382.14 21.7091C380.314 18.2245 377.627 15.6287 374.111 13.8117C372.006 12.7262 372.086 11.5621 374.159 10.5395C377.731 8.78543 380.354 6.15037 382.172 2.65792C382.826 1.40724 383.854 0.125105 385.042 2.05224C387.362 5.81213 390.129 9.04501 394.203 11.0351C394.626 11.2396 394.889 11.7587 395.128 12.0183L395.136 12.0262Z" fill="#EF3426"/>
<path d="M36.3173 66.0411C30.6245 66.0411 24.9238 65.9704 19.2311 66.0647C15.699 66.1198 14.3277 64.5938 14.2559 61.1092C14.0406 51.1668 13.9449 51.1668 24.0707 51.2061C33.6065 51.2376 43.1422 51.1353 52.678 51.3477C57.9481 51.4657 59.5507 52.9995 59.9653 57.2235C60.6191 63.9252 58.7773 65.931 51.8169 66.0333C49.1698 66.0726 46.5228 66.0333 43.8678 66.0254C41.3483 66.0254 38.8368 66.0254 36.3173 66.0254V66.0411Z" fill="black"/>
<path d="M36.389 41.0513C30.5608 41.0513 24.7245 41.0119 18.8962 41.067C15.7469 41.0985 14.4313 39.7062 14.2878 36.5756C13.8732 27.8366 14.1762 27.4197 22.9306 27.4118C32.7374 27.404 42.5522 27.3568 52.359 27.4276C58.9288 27.4748 61.4084 30.8571 59.6703 37.1419C58.8571 40.0759 56.5927 40.9175 53.8978 40.949C48.0695 41.0119 42.2333 40.9726 36.405 40.9726V41.0434L36.389 41.0513Z" fill="black"/>
<path d="M333.122 39.3994C338.169 39.3994 343.207 39.423 348.254 39.3916C351.053 39.3758 352.408 40.6265 352.376 43.4346C352.321 48.7991 352.52 54.1715 352.281 59.5282C352.05 64.7826 350.032 67.1109 344.73 67.2997C335.322 67.6301 325.882 67.6222 316.474 67.3154C311.562 67.1581 309.434 64.5702 309.234 59.6541C309.067 55.4773 308.915 51.269 309.25 47.108C309.657 42.066 311.666 40.0208 316.809 39.6826C322.222 39.3286 327.684 39.6039 333.122 39.6039C333.122 39.5331 333.122 39.4624 333.122 39.3916V39.3994Z" fill="black"/>
<path d="M434.06 67.575C429.276 67.575 424.501 67.5435 419.717 67.5907C416.83 67.6222 415.172 66.5131 415.212 63.4611C415.268 57.9629 415.108 52.4568 415.348 46.9664C415.539 42.4514 417.62 40.0287 422.164 39.7141C431.963 39.0455 441.81 39.0297 451.609 39.777C456.249 40.131 458.051 42.3334 458.33 47.0687C458.561 51.1117 458.553 55.1862 458.394 59.245C458.171 64.9399 456.193 67.103 450.397 67.4334C444.967 67.7402 439.514 67.4963 434.068 67.4963V67.5829L434.06 67.575Z" fill="black"/>
<path d="M172.21 68.4402C167.569 68.4402 162.921 68.5268 158.289 68.4166C154.246 68.3223 152.572 66.639 152.54 62.9892C152.508 59.4259 154.239 57.5696 158.265 57.5145C167.944 57.3887 177.623 57.5067 187.303 57.4201C190.843 57.3887 191.465 59.4023 191.401 62.2498C191.329 65.168 191.72 68.3616 187.327 68.4166C182.288 68.4796 177.249 68.4324 172.21 68.4324C172.21 68.4324 172.21 68.4402 172.21 68.4481V68.4402Z" fill="black"/>
</svg>
