<svg width="50" height="50" viewBox="0 0 50 50" fill="none" xmlns="http://www.w3.org/2000/svg">
<circle cx="25" cy="25" r="25" fill="url(#paint0_linear_1059_254)"/>
<path d="M23.4428 27.679H26.7099L28.3523 29.7919L29.968 31.674L33.0131 35.4915H29.4265L27.3313 32.9169L26.2571 31.3899L23.4428 27.679ZM33.2884 24.9091C33.2884 26.8918 32.9125 28.5786 32.1609 29.9695C31.4151 31.3603 30.3971 32.4227 29.1069 33.1566C27.8226 33.8846 26.3784 34.2486 24.7745 34.2486C23.1587 34.2486 21.7087 33.8816 20.4244 33.1477C19.14 32.4138 18.125 31.3514 17.3793 29.9606C16.6335 28.5697 16.2607 26.8859 16.2607 24.9091C16.2607 22.9264 16.6335 21.2396 17.3793 19.8487C18.125 18.4579 19.14 17.3984 20.4244 16.6705C21.7087 15.9366 23.1587 15.5696 24.7745 15.5696C26.3784 15.5696 27.8226 15.9366 29.1069 16.6705C30.3971 17.3984 31.4151 18.4579 32.1609 19.8487C32.9125 21.2396 33.2884 22.9264 33.2884 24.9091ZM29.391 24.9091C29.391 23.6248 29.1986 22.5417 28.8139 21.6598C28.4351 20.7779 27.8995 20.1091 27.207 19.6534C26.5146 19.1977 25.7037 18.9698 24.7745 18.9698C23.8453 18.9698 23.0344 19.1977 22.342 19.6534C21.6495 20.1091 21.1109 20.7779 20.7262 21.6598C20.3474 22.5417 20.158 23.6248 20.158 24.9091C20.158 26.1934 20.3474 27.2765 20.7262 28.1584C21.1109 29.0402 21.6495 29.709 22.342 30.1648C23.0344 30.6205 23.8453 30.8484 24.7745 30.8484C25.7037 30.8484 26.5146 30.6205 27.207 30.1648C27.8995 29.709 28.4351 29.0402 28.8139 28.1584C29.1986 27.2765 29.391 26.1934 29.391 24.9091Z" fill="white"/>
<defs>
<linearGradient id="paint0_linear_1059_254" x1="53.8306" y1="2.82258" x2="-9.69117e-09" y2="41.9355" gradientUnits="userSpaceOnUse">
<stop stop-color="#5A99E6"/>
<stop offset="0.5" stop-color="#E16BE8"/>
<stop offset="1" stop-color="#FCB0B4"/>
</linearGradient>
</defs>
</svg>
