<svg width="20" height="18" viewBox="0 0 20 18" fill="none" xmlns="http://www.w3.org/2000/svg">
<path d="M10.4657 0C7.8758 0 7.55291 0.0105833 6.53491 0.0550329C5.74338 0.0698495 4.96081 0.211665 4.22085 0.47413C3.58404 0.700612 3.01001 1.05409 2.5324 1.51129C2.04806 1.96002 1.67136 2.504 1.43367 3.10513C1.15563 3.80362 1.00539 4.54233 0.989696 5.28951C0.942608 6.24835 0.931396 6.55527 0.931396 9C0.931396 11.4447 0.942608 11.7495 0.989696 12.7105C1.00539 13.4577 1.15563 14.1943 1.43367 14.8949C1.6736 15.496 2.04806 16.04 2.5324 16.4887C3.00777 16.9459 3.58404 17.3015 4.22085 17.5259C4.96081 17.7883 5.74338 17.928 6.53491 17.945C7.55067 17.9894 7.8758 18 10.4657 18C13.0555 18 13.3784 17.9894 14.3964 17.945C15.1879 17.9302 15.9683 17.7883 16.7105 17.5259C17.9908 17.0581 19.0021 16.1035 19.4977 14.8949C19.7757 14.1964 19.9237 13.4577 19.9416 12.7105C19.9887 11.7516 19.9999 11.4447 19.9999 9C19.9999 6.55527 19.9887 6.25047 19.9416 5.28951C19.9259 4.54233 19.7757 3.80362 19.4977 3.10513C19.2577 2.504 18.8833 1.96002 18.3989 1.51129C17.9236 1.05409 17.3473 0.698495 16.7105 0.47413C15.9705 0.211665 15.1879 0.0719661 14.3964 0.0550329C13.3807 0.0105833 13.0555 0 10.4657 0Z" fill="white"/>
<path d="M11.024 3.04586C11.024 3.11148 11.024 3.16651 11.024 3.21943C11.0195 5.92451 11.0173 8.62959 11.0128 11.3347C11.0128 11.4744 10.9993 11.6183 10.9679 11.7559C10.7818 12.5644 10.0329 13.1592 9.12477 13.227C8.30184 13.2883 7.53722 12.8798 7.18966 12.1961C6.83089 11.4871 6.96095 10.6637 7.53273 10.0985C7.97895 9.65828 8.5328 9.47625 9.18531 9.52916V7.73424C8.93193 7.74906 8.68527 7.74694 8.44086 7.77658C6.26359 8.05597 4.77246 9.98848 5.16038 12.0205C5.58193 14.2324 8.02828 15.5659 10.2616 14.8017C11.7931 14.2768 12.8111 12.9137 12.8156 11.3749C12.8178 9.80433 12.8156 8.23377 12.8156 6.66322C12.8156 6.6103 12.8156 6.55738 12.8156 6.50235C12.8403 6.50447 12.847 6.50235 12.8492 6.50658C12.8784 6.54257 12.9098 6.57855 12.9389 6.61453C13.6632 7.48871 14.6139 7.90993 15.7866 7.89723C15.9189 7.89723 15.9728 7.86124 15.9705 7.72366C15.9615 7.16063 15.9683 6.59972 15.9683 6.03669C15.9683 5.99224 15.9638 5.94779 15.9615 5.91181C14.1946 5.65146 13.1519 4.70532 12.8268 3.04586H11.024Z" fill="black"/>
</svg>
