<svg width="400" height="55" viewBox="0 0 400 55" fill="none" xmlns="http://www.w3.org/2000/svg">
<rect width="400" height="55" rx="25" fill="black"/>
<path d="M53.5417 23.3416C49.8697 27.1729 50.1063 30.7934 54.2565 33.3185C53.444 35.5608 52.3383 37.6333 50.5126 39.2327C49.628 40.0041 48.5018 40.215 47.4372 39.6904C45.5087 38.739 43.6573 38.7493 41.7339 39.7058C40.6642 40.2407 39.5585 40.0247 38.6739 39.2327C35.3363 36.2499 32.8986 30.0271 34.5083 25.4089C35.3054 23.1256 36.8534 21.5313 39.3219 21.2227C40.3505 21.0942 41.5025 21.2845 42.4796 21.6496C43.7447 22.1227 44.8607 22.1536 46.0949 21.6033C48.3886 20.5799 50.6 20.7702 52.6314 22.3284C52.8165 22.4673 52.9862 22.6319 53.1405 22.8016C53.2897 22.9713 53.4131 23.1616 53.5417 23.3416Z" fill="white"/>
<path d="M49.016 15C49.4635 17.5251 46.8869 20.9553 44.2024 20.6056C43.7087 18.0651 46.0024 15.3651 49.016 15Z" fill="white"/>
</svg>
