<svg width="25" height="25" viewBox="0 0 25 25" fill="none" xmlns="http://www.w3.org/2000/svg">
    <path d="M12.4986 0C9.10189 0 8.67841 0.0147041 7.34328 0.0764616C6.30516 0.0970474 5.27881 0.294083 4.30834 0.658746C3.47314 0.973415 2.72029 1.46453 2.09389 2.09975C1.45867 2.72321 0.964615 3.479 0.652887 4.3142C0.288224 5.28467 0.091188 6.31102 0.0706022 7.34913C0.00884477 8.68133 -0.00585938 9.10775 -0.00585938 12.5044C-0.00585938 15.9011 0.00884477 16.3245 0.0706022 17.6597C0.091188 18.6978 0.288224 19.7212 0.652887 20.6946C0.967556 21.5298 1.45867 22.2856 2.09389 22.9091C2.71735 23.5443 3.47314 24.0383 4.30834 24.3501C5.27881 24.7147 6.30516 24.9088 7.34328 24.9324C8.67547 24.9941 9.10189 25.0088 12.4986 25.0088C15.8952 25.0088 16.3187 24.9941 17.6538 24.9324C18.6919 24.9118 19.7153 24.7147 20.6888 24.3501C22.368 23.7002 23.6943 22.3738 24.3442 20.6946C24.7089 19.7241 24.903 18.6978 24.9265 17.6597C24.9883 16.3275 25.003 15.9011 25.003 12.5044C25.003 9.10775 24.9883 8.68427 24.9265 7.34913C24.9059 6.31102 24.7089 5.28467 24.3442 4.3142C24.0295 3.479 23.5384 2.72321 22.9032 2.09975C22.2798 1.46453 21.524 0.970474 20.6888 0.658746C19.7183 0.294083 18.6919 0.0999882 17.6538 0.0764616C16.3216 0.0147041 15.8952 0 12.4986 0Z" fill="#231815"/>
    <path d="M12.772 20.4505H12.625C12.4662 20.3564 12.3839 20.2094 12.3133 20.0447C11.8427 18.9301 11.3693 17.8185 10.9017 16.7039C10.8517 16.5863 10.7929 16.5481 10.6664 16.5481C9.23423 16.5539 7.80205 16.551 6.3728 16.5481C6.26105 16.5481 6.1493 16.5392 6.04049 16.5216C5.07295 16.3863 4.3201 15.6746 4.12307 14.7159C4.10542 14.6277 4.08189 14.5424 4.05837 14.4542C4.05837 11.831 4.05837 9.21068 4.05837 6.58746C4.07013 6.55217 4.09072 6.51688 4.09366 6.47865C4.20247 5.51112 4.9465 4.69945 5.89933 4.51712C5.99638 4.49947 6.09636 4.473 6.19341 4.45242C10.5223 4.45242 14.8483 4.45242 19.1772 4.45242C19.2125 4.46418 19.2478 4.48477 19.286 4.48771C20.2094 4.59064 20.9976 5.28173 21.2181 6.18163C21.2563 6.33455 21.2828 6.49041 21.3122 6.64628V14.366C21.2975 14.4512 21.2828 14.5365 21.2681 14.6189C21.0681 15.7805 20.0771 16.5598 18.9596 16.551C17.5509 16.5392 16.1452 16.551 14.7365 16.5451C14.6071 16.5451 14.5513 16.5892 14.5013 16.7039C14.0337 17.8185 13.5573 18.9301 13.0867 20.0447C13.0161 20.2123 12.9338 20.3564 12.772 20.4476V20.4505Z" fill="white"/>
    <path d="M18.0244 9.30773C18.0303 9.26362 18.042 9.23421 18.0391 9.20774C18.0185 9.0754 18.0832 9.05482 18.1979 9.05776C18.4508 9.06658 18.7037 9.05776 18.9625 9.05776C18.9625 9.10775 18.9684 9.14598 18.9684 9.18421C18.9684 10.0812 18.9772 10.9781 18.9684 11.8751C18.9625 12.4132 18.7743 12.8661 18.2773 13.1455C17.9538 13.3249 17.6038 13.3573 17.2451 13.3337C17.2215 13.3337 17.1804 13.2867 17.1804 13.2602C17.1745 13.0308 17.1745 12.8014 17.1804 12.5691C17.1804 12.5426 17.2245 12.5015 17.2539 12.4956C17.3098 12.4838 17.3715 12.4956 17.4274 12.4897C17.7832 12.4632 17.9773 12.2897 18.0244 11.9339C18.042 11.8133 18.0244 11.6898 18.0244 11.5516C17.995 11.5663 17.9773 11.5722 17.9656 11.5839C17.345 12.1339 16.3628 11.9574 16.0011 11.2134C15.7364 10.6693 15.7364 10.1135 16.0275 9.5724C16.3599 8.95189 17.4068 8.71956 17.945 9.25185C17.9626 9.2695 17.9861 9.28126 18.0185 9.30479L18.0244 9.30773ZM17.4421 11.0987C17.7979 11.0987 18.0773 10.8164 18.0744 10.4605C18.0744 10.1047 17.7891 9.81943 17.4362 9.81943C17.0862 9.81943 16.7951 10.1106 16.7951 10.4576C16.7951 10.8134 17.0804 11.0987 17.4421 11.0987Z" fill="#231815"/>
    <path d="M7.40209 9.32537C7.48444 9.26362 7.54031 9.21656 7.60207 9.17539C8.22847 8.74897 8.99896 8.92542 9.37245 9.58417C9.60183 9.99 9.6783 10.4282 9.56654 10.884C9.4195 11.4869 9.0019 11.8074 8.41668 11.9251C8.04613 11.9986 7.73147 11.8898 7.4815 11.6045C7.46973 11.5898 7.45503 11.578 7.40797 11.5692C7.40797 11.6339 7.40797 11.7016 7.40797 11.7663C7.40797 11.828 7.38445 11.8515 7.32563 11.8515C7.05507 11.8515 6.78746 11.8515 6.5169 11.8515C6.45809 11.8515 6.42868 11.831 6.43456 11.7692C6.43456 11.7486 6.43456 11.731 6.43456 11.7104C6.43456 10.4458 6.43456 9.18421 6.43162 7.91966C6.43162 7.79614 6.46985 7.76967 6.58454 7.77261C6.81687 7.78144 7.05213 7.7785 7.2874 7.77261C7.37857 7.77261 7.40797 7.79614 7.40797 7.89025C7.40209 8.31667 7.40797 8.74015 7.40797 9.16657C7.40797 9.20774 7.40797 9.25185 7.40797 9.32537H7.40209ZM8.02849 11.0987C8.38433 11.0987 8.66371 10.8193 8.66665 10.4635C8.66665 10.1135 8.38139 9.82237 8.03143 9.81943C7.68147 9.81943 7.37857 10.1194 7.38445 10.4664C7.39033 10.8193 7.67559 11.0987 8.03143 11.0987H8.02849Z" fill="#231815"/>
    <path d="M12.0427 10.5194C12.0574 9.69004 12.4868 9.17539 13.2279 9.01365C13.5867 8.93718 13.9425 8.93718 14.2925 9.04305C14.8865 9.22538 15.2012 9.64886 15.2894 10.2459C15.3806 10.8781 15.1394 11.4075 14.6189 11.6839C14.416 11.7927 14.1866 11.8604 13.9601 11.9104C13.5602 11.9986 13.1661 11.9515 12.7985 11.7663C12.2574 11.4928 12.0633 11.0134 12.0427 10.5194ZM13.6514 11.0987C14.0131 11.0987 14.3013 10.8134 14.2983 10.4576C14.2983 10.1106 14.0013 9.81943 13.6543 9.81943C13.3073 9.81943 13.0161 10.1135 13.0132 10.4605C13.0132 10.8076 13.3014 11.0987 13.6543 11.0987H13.6514Z" fill="#231815"/>
    <path d="M11.331 10.4635C11.331 10.884 11.331 11.3075 11.331 11.728C11.331 11.8251 11.2987 11.8574 11.2016 11.8545C10.984 11.8486 10.7635 11.8486 10.5458 11.8545C10.4341 11.8574 10.3988 11.8251 10.3988 11.7104C10.4047 10.9487 10.4017 10.19 10.3988 9.4283C10.3988 9.22833 10.387 9.02541 10.2723 8.85484C10.2106 8.76367 10.1047 8.70486 10.0224 8.62546C9.99296 8.59899 9.95473 8.55782 9.95179 8.52547C9.94591 8.2755 9.95179 8.02553 9.94885 7.77556C9.94885 7.71086 9.97532 7.68733 10.04 7.68733C10.5576 7.69321 11.0281 8.01376 11.184 8.51664C11.2605 8.76073 11.3016 9.02541 11.3163 9.28126C11.3369 9.67533 11.3222 10.0694 11.3222 10.4635H11.331Z" fill="#231815"/>
    <path d="M17.4421 11.0987C17.0804 11.0987 16.7922 10.8164 16.7951 10.4576C16.7951 10.1076 17.0892 9.81943 17.4362 9.81943C17.7862 9.81943 18.0714 10.1047 18.0744 10.4605C18.0744 10.8164 17.7979 11.0987 17.4421 11.0987Z" fill="white"/>
    <path d="M8.02849 11.0987C7.67265 11.0987 7.38739 10.8193 7.38151 10.4664C7.37563 10.1194 7.67853 9.81649 8.02849 9.81943C8.37845 9.81943 8.66665 10.1135 8.66371 10.4635C8.66371 10.8223 8.38433 11.0987 8.02555 11.0987L8.02849 11.0987Z" fill="white"/>
    <path d="M13.6484 11.0987C13.2955 11.0987 13.0044 10.8105 13.0073 10.4605C13.0073 10.1135 13.3014 9.81943 13.6484 9.81943C13.9954 9.81943 14.2895 10.1076 14.2925 10.4576C14.2954 10.8134 14.0072 11.0987 13.6455 11.0987H13.6484Z" fill="white"/>
</svg>
