<svg width="35" height="35" viewBox="0 0 35 35" fill="none" xmlns="http://www.w3.org/2000/svg">
<path d="M15.2949 8.17648C16.071 7.38172 16.8195 6.60411 17.5814 5.83918C19.0731 4.34286 20.5723 2.85325 22.0685 1.36141C22.1126 1.31742 22.1574 1.27418 22.2045 1.23392C22.5667 0.921531 22.9402 0.922277 23.2278 1.23466C23.4743 1.50231 23.4437 1.94219 23.1486 2.23892C22.1567 3.23423 21.1624 4.2273 20.1689 5.22037C18.9551 6.43338 17.7398 7.6449 16.5267 8.85866C16.458 8.92725 16.3989 9.00404 16.2764 9.1442C16.4714 9.15389 16.5969 9.16508 16.7224 9.16508C21.2663 9.16881 25.8101 9.16955 30.354 9.17552C31.5073 9.17701 32.3387 9.75257 32.6539 10.7732C32.7331 11.0297 32.7712 11.31 32.772 11.5792C32.7787 17.2573 32.7794 22.9361 32.7749 28.6142C32.7734 30.039 31.7949 30.9903 30.3742 30.9903C21.4231 30.9903 12.4728 30.9918 3.5218 31C2.94662 31 2.41104 30.9269 1.93746 30.5706C1.26443 30.0651 1 29.3799 1 28.5606C1.00224 23.0316 0.999253 17.5018 1.00523 11.9728C1.00523 11.5784 1.00747 11.1676 1.11205 10.7934C1.40113 9.75779 2.24969 9.17477 3.38734 9.17328C6.73604 9.1703 10.0847 9.1703 13.4334 9.16881C13.6658 9.16881 13.8988 9.16881 14.2484 9.16881C14.0811 8.98391 13.9914 8.8758 13.8928 8.77739C12.8194 7.70529 11.7453 6.63468 10.6704 5.56482C10.3066 5.20248 10.2625 4.79094 10.5576 4.48228C10.8526 4.17287 11.2732 4.19375 11.6422 4.55907C12.791 5.69529 13.9339 6.83896 15.079 7.97891C15.1224 8.02215 15.1694 8.06241 15.2949 8.17648ZM14.2118 12.8287C14.2118 12.8235 14.2118 12.819 14.2118 12.8138C12.4071 12.8138 10.6031 12.8101 8.79845 12.816C8.26436 12.8175 7.72504 12.8086 7.19693 12.8712C6.06974 13.0062 5.21818 13.9575 5.2152 15.0795C5.20548 18.3957 5.20773 21.7127 5.21669 25.0289C5.21669 25.2824 5.26898 25.5523 5.36459 25.7864C5.80083 26.8518 6.66284 27.27 7.76314 27.2752C9.0823 27.2819 10.4015 27.2723 11.7206 27.2715C14.645 27.2693 17.5695 27.2693 20.4939 27.2655C22.2538 27.2633 23.1748 26.3522 23.1755 24.6084C23.1778 21.5159 23.1785 18.4226 23.1703 15.33C23.1696 15.049 23.1344 14.7567 23.0523 14.4883C22.7244 13.4087 21.8743 12.8354 20.5955 12.8302C18.4673 12.822 16.3392 12.828 14.211 12.828L14.2118 12.8287ZM30.2853 15.8005C30.2845 14.4302 29.2193 13.37 27.8494 13.3759C26.519 13.3819 25.4508 14.4592 25.4381 15.8064C25.4262 17.0962 26.5354 18.2086 27.8367 18.2123C29.2171 18.2161 30.286 17.1633 30.2853 15.8005ZM25.4493 24.2274C25.4493 25.5881 26.516 26.637 27.8972 26.6356C29.232 26.6341 30.2823 25.5843 30.2845 24.249C30.2868 22.8899 29.2358 21.8171 27.8994 21.8133C26.5324 21.8096 25.4493 22.8772 25.4493 24.2274Z" fill="#FF1A77"/>
<path d="M11.2455 20.0605C11.2455 18.9937 11.2411 17.926 11.247 16.8592C11.2508 16.1733 11.5481 16.0077 12.1322 16.3671C13.8771 17.4399 15.6191 18.5173 17.3611 19.5946C17.7921 19.8615 17.8055 20.2298 17.3827 20.4915C15.7565 21.4965 14.1259 22.494 12.4982 23.496C12.3608 23.5803 12.2331 23.6794 12.0941 23.7607C11.5578 24.0738 11.256 23.9158 11.25 23.2992C11.2396 22.2197 11.247 21.1401 11.247 20.0605H11.2455Z" fill="#FF1A77"/>
</svg>
