<svg width="71" height="71" viewBox="0 0 71 71" fill="none" xmlns="http://www.w3.org/2000/svg">
    <circle cx="35.5" cy="35.5" r="35.5" fill="url(#paint0_linear_462_1810)"/>
    <path d="M41.5337 30.7761L41.2623 29.095L41.6169 27.692C40.6704 24.3121 37.3126 22.3148 34.0282 23.2178C32.4288 23.6565 31.1375 24.7075 30.3256 26.0646L23.6246 38.0538C22.7564 39.5205 22.441 41.3419 22.8958 43.1402C23.7738 46.6222 27.1927 48.7012 30.531 47.7829C32.2184 47.3186 33.5611 46.1784 34.3632 44.7167L41.0055 32.8346C41.3332 32.2556 41.5728 31.6204 41.7171 30.9572L41.5362 30.7812L41.5337 30.7761Z" fill="white"/>
    <path d="M23.8426 23.2171C25.442 23.6559 26.7333 24.7069 27.5452 26.0639L34.2462 38.0531C35.1143 39.5199 35.4298 41.3412 34.9749 43.1396C34.097 46.6216 30.678 48.7005 27.3398 47.7822C25.6523 47.318 24.3097 46.1777 23.5075 44.716L16.8678 32.8289C16.0509 31.3825 15.7648 29.6122 16.2074 27.8598C17.0854 24.3778 20.5044 22.2988 23.8426 23.2171Z" fill="white"/>
    <path d="M46.7089 35.8166C45.0508 35.3498 43.6641 34.1891 42.8546 32.651C42.7275 32.4214 42.6125 32.1561 42.5098 31.8729C42.4487 31.7097 42.3949 31.5439 42.346 31.3755C41.9229 29.9572 41.7663 28.3425 41.7663 28.3425C41.737 28.1818 41.7052 28.0236 41.6661 27.8629C40.7881 24.381 37.3692 22.302 34.0309 23.2203C32.4315 23.6591 31.1402 24.71 30.3283 26.0671L25.0091 35.5794C27.9438 34.3269 30.5778 35.1916 30.5778 35.1916C31.8226 35.5462 32.9133 36.286 33.7203 37.2859C33.8133 37.4007 33.9013 37.5206 33.9869 37.6405C33.9869 37.6405 34.004 37.666 34.0138 37.6788C34.0383 37.7145 34.0627 37.7527 34.0872 37.7885C34.1067 37.8165 34.1239 37.8446 34.141 37.8726C34.3391 38.1838 34.5127 38.5104 34.657 38.8547C34.6594 38.8624 34.6643 38.87 34.6668 38.8777C34.679 38.9083 34.6937 38.9415 34.7059 38.9721C35.4567 40.7781 35.5081 42.6658 35.5081 42.6658C35.5374 42.8239 35.5692 42.9821 35.6083 43.1402C36.4863 46.6222 39.9052 48.7012 43.2435 47.7829C44.9309 47.3186 46.2736 46.1783 47.0757 44.7167L52.2653 35.4314C49.333 36.6763 46.7089 35.8166 46.7089 35.8166Z" fill="white"/>
    <path d="M28.1419 47.9439C28.1419 47.9439 32.4193 41.1505 25.0091 35.5794C25.0091 35.5794 27.0243 34.5007 30.2182 35.0976C30.2182 35.0976 33.1065 35.5746 34.5127 38.5336C34.5127 38.5336 35.3198 39.9749 35.5105 42.6686C35.5105 42.6686 33.5614 48.5969 28.1444 47.9464L28.1419 47.9439Z" fill="white"/>
    <path d="M53.6203 34.4468C53.6374 34.4442 53.6545 34.4391 53.6716 34.4365C53.7377 34.4212 53.8013 34.4034 53.8624 34.3855C53.8697 34.3855 53.8771 34.3804 53.882 34.3804C53.9504 34.3575 54.0165 34.332 54.08 34.3039C54.0923 34.2988 54.1021 34.2937 54.1118 34.2886C54.1607 34.2656 54.2097 34.2401 54.2537 34.2121C54.2708 34.2019 54.2904 34.1891 54.3075 34.1789C54.3442 34.1559 54.3809 34.1304 54.4151 34.1024C54.4322 34.0896 54.4493 34.0743 54.4664 34.0616C54.5007 34.0335 54.5325 34.0029 54.5643 33.9697C54.5789 33.957 54.5912 33.9417 54.6058 33.9289C54.6474 33.883 54.689 33.8345 54.7232 33.781C55.7504 32.2912 53.8281 29.021 50.4337 26.4778C47.0441 23.9345 43.4588 23.0825 42.4341 24.5723C42.3999 24.6233 42.3681 24.6768 42.3387 24.733C42.329 24.7508 42.3216 24.7712 42.3143 24.7891C42.2972 24.8299 42.2801 24.8707 42.2629 24.9115C42.2556 24.9345 42.2483 24.9549 42.2409 24.9778C42.2287 25.0187 42.2165 25.062 42.2067 25.1054C42.2018 25.1283 42.1969 25.1488 42.192 25.1717C42.1822 25.2227 42.1749 25.2763 42.17 25.3299C42.17 25.3452 42.1651 25.3605 42.1651 25.3732C42.1602 25.4447 42.1578 25.5186 42.1578 25.5926C42.1578 25.5977 42.1578 25.6028 42.1578 25.6079C42.1578 25.6768 42.1651 25.7482 42.1724 25.8196C42.1724 25.8375 42.1773 25.8554 42.1798 25.8732C42.1871 25.9344 42.1969 25.9956 42.2091 26.0594C42.2116 26.0798 42.2165 26.0977 42.2214 26.1181C42.236 26.187 42.2507 26.2533 42.2678 26.3247C42.2703 26.3375 42.2752 26.3502 42.2776 26.3655C42.3485 26.6257 42.4488 26.8987 42.5809 27.1793C42.5833 27.1869 42.5882 27.192 42.5906 27.1997C42.6322 27.289 42.6762 27.3782 42.7227 27.4701C42.7251 27.4752 42.7276 27.4828 42.7325 27.4879C42.9379 27.8782 43.1923 28.2838 43.4955 28.6945C43.3414 30.5056 44.0825 32.3499 45.5987 33.4876C47.115 34.6228 49.025 34.7656 50.6195 34.0386C51.094 34.2095 51.5489 34.3345 51.9719 34.4136H51.9817C52.082 34.434 52.1798 34.4493 52.2752 34.4621C52.2825 34.4621 52.2899 34.4621 52.2972 34.4646C52.598 34.5029 52.8793 34.5182 53.1409 34.5054C53.1507 34.5054 53.1629 34.5054 53.1727 34.5054C53.2437 34.5003 53.3146 34.4952 53.3831 34.4876C53.4002 34.4876 53.4197 34.4825 53.4369 34.4799C53.498 34.4723 53.5591 34.4595 53.6178 34.4493L53.6203 34.4468ZM53.7548 33.1815C53.7548 33.1815 53.7377 33.1994 53.7279 33.207C53.7108 33.2223 53.6961 33.2376 53.679 33.2529C53.6667 33.2631 53.6545 33.2708 53.6423 33.281C53.6252 33.2937 53.6105 33.304 53.5934 33.3142C53.5787 33.3218 53.564 33.332 53.5469 33.3397C53.5298 33.3499 53.5127 33.3575 53.4955 33.3652C53.4784 33.3728 53.4613 33.3805 53.4417 33.3881C53.4246 33.3958 53.4075 33.4009 53.3879 33.406C53.3684 33.4136 53.3464 33.4187 53.3268 33.4238C53.3097 33.4289 53.2926 33.4315 53.273 33.4366C53.2485 33.4417 53.2265 33.4468 53.1996 33.4519C53.185 33.4545 53.1678 33.457 53.1507 33.4596C53.1214 33.4647 53.0945 33.4672 53.0651 33.4698C53.0553 33.4698 53.0456 33.4698 53.0382 33.4698C52.8695 33.4825 52.6836 33.4749 52.4782 33.4494C52.4268 33.4417 52.3755 33.434 52.3241 33.4264C52.3192 33.4264 52.3143 33.4264 52.3094 33.4264C52.2581 33.4162 52.2067 33.406 52.1529 33.3958C52.148 33.3958 52.1407 33.3958 52.1358 33.3932C52.082 33.3805 52.0282 33.3703 51.9719 33.355C51.967 33.355 51.9622 33.355 51.9573 33.3524C51.901 33.3371 51.8423 33.3218 51.7836 33.3065C50.5633 32.9647 48.9688 32.1331 47.3718 30.9367C45.765 29.7327 44.4933 28.4139 43.7963 27.3145C43.7645 27.266 43.7352 27.2175 43.7058 27.1691C43.7009 27.1614 43.696 27.1512 43.6912 27.1435C43.6643 27.0976 43.6398 27.0543 43.6129 27.0084C43.608 26.9981 43.6007 26.9879 43.5958 26.9752C43.5713 26.9318 43.5493 26.8885 43.5273 26.8476C43.5224 26.8374 43.5151 26.8247 43.5102 26.8145C43.4882 26.7737 43.4686 26.7303 43.449 26.6895C43.4442 26.6793 43.4393 26.6691 43.4344 26.6589C43.4148 26.6181 43.3977 26.5773 43.3806 26.5364C43.3781 26.5288 43.3757 26.5237 43.3732 26.516C43.3194 26.3859 43.2803 26.2609 43.2509 26.141C43.2509 26.1334 43.2461 26.1232 43.2436 26.1155C43.2363 26.0875 43.2314 26.062 43.2265 26.0339C43.2241 26.0161 43.2192 25.9956 43.2167 25.9778C43.2118 25.9548 43.2118 25.9319 43.2069 25.9089C43.2069 25.8885 43.202 25.8681 43.202 25.8477C43.202 25.8273 43.202 25.8069 43.1996 25.7865C43.1996 25.7661 43.1996 25.7431 43.1996 25.7227C43.1996 25.7048 43.1996 25.6844 43.202 25.6666C43.202 25.6462 43.2069 25.6232 43.2094 25.6028C43.2094 25.585 43.2143 25.5697 43.2167 25.5543C43.2216 25.5339 43.2265 25.511 43.2314 25.4906C43.2363 25.4753 43.2387 25.4625 43.2436 25.4472C43.251 25.4242 43.2607 25.4013 43.2705 25.3809C43.2754 25.3707 43.2779 25.3605 43.2852 25.3477C43.2999 25.3171 43.317 25.2865 43.3365 25.2559C44.0042 24.2866 46.89 25.2559 49.7856 27.4241C52.6812 29.5924 54.486 32.1331 53.8184 33.1024C53.8184 33.1024 53.8184 33.1024 53.8184 33.105C53.7988 33.133 53.7792 33.1586 53.7548 33.1815ZM44.1509 29.5133C44.1509 29.5133 44.1411 29.5031 44.1363 29.498C44.1411 29.5031 44.146 29.5082 44.1509 29.5133Z" fill="white"/>
    <path d="M52.7272 32.2654C54.3609 29.8804 53.8351 26.5668 51.5509 24.8551C49.2642 23.1435 46.0801 23.6894 44.4366 26.0744C44.4269 26.0897 44.4171 26.105 44.4073 26.1203C45.1997 27.4392 46.4176 28.7835 47.9558 29.9365C49.5553 31.1329 51.2305 31.9211 52.7248 32.2654H52.7272Z" fill="white"/>
    <defs>
        <linearGradient id="paint0_linear_462_1810" x1="76.4395" y1="4.00806" x2="-1.37615e-08" y2="59.5484" gradientUnits="userSpaceOnUse">
            <stop stop-color="#5A99E6"/>
            <stop offset="0.5" stop-color="#E16BE8"/>
            <stop offset="1" stop-color="#FCB0B4"/>
        </linearGradient>
    </defs>
</svg>
