<svg width="30" height="30" viewBox="0 0 30 30" fill="none" xmlns="http://www.w3.org/2000/svg">
    <rect width="30" height="30" rx="15" fill="#F1F1F1"/>
    <path d="M15.0118 10.3991C15.4084 10.0229 15.8475 9.70188 16.3512 9.47997C17.6527 8.90711 18.9747 8.79222 20.2747 9.44378C21.551 10.0843 22.264 11.164 22.4575 12.5678C22.6433 13.9276 22.2089 15.0859 21.2394 16.0538C19.2139 18.0746 17.1916 20.1001 15.1692 22.124C15.1157 22.1775 15.0732 22.2389 14.993 22.338C14.9379 22.2593 14.9111 22.2027 14.8686 22.1602C12.818 20.1079 10.7657 18.0572 8.71502 16.005C7.90136 15.1882 7.49532 14.203 7.50004 13.051C7.50791 11.1954 8.79529 9.52247 10.5753 9.13374C12.1994 8.77805 13.6395 9.21243 14.8875 10.3047C14.9143 10.3283 14.9379 10.3519 14.9662 10.3739C14.9772 10.3833 14.993 10.3881 15.0134 10.3975L15.0118 10.3991Z" fill="#FF1A77"/>
</svg>
