<svg width="400" height="55" viewBox="0 0 400 55" fill="none" xmlns="http://www.w3.org/2000/svg">
<rect width="400" height="55" rx="25" fill="white"/>
<path d="M33.3289 22.9016C35.2039 19.3177 38.1073 17.048 42.0755 16.2637C45.7788 15.5313 49.1808 16.3208 52.1778 18.6789C52.4063 18.8607 52.7647 19.0269 52.7958 19.271C52.8218 19.4995 52.4582 19.6813 52.2609 19.8787C51.3207 20.8292 50.3755 21.7641 49.4353 22.7146C49.3159 22.834 49.2536 22.8548 49.1133 22.7302C46.5111 20.3565 42.33 20.424 39.624 22.9119C38.6423 23.8157 37.9567 24.9012 37.51 26.1478C37.4061 26.2049 37.349 26.1166 37.2815 26.0647C36.0245 25.0882 34.7624 24.1117 33.5055 23.1405C33.4276 23.0781 33.3496 23.021 33.3393 22.9119L33.3289 22.9016Z" fill="#DA4234"/>
<path d="M37.5048 30.8795C37.9048 31.9546 38.4605 32.9363 39.2708 33.7569C40.6108 35.1229 42.2209 35.902 44.1375 35.9955C45.784 36.0786 47.3266 35.7254 48.7238 34.8217C48.9575 34.8425 49.1029 35.0243 49.2691 35.1489C50.3443 35.9851 51.4246 36.8214 52.4998 37.6576C52.6037 37.7407 52.7491 37.7926 52.7543 37.9588C51.4714 39.1846 49.9651 40.026 48.2615 40.4727C43.7116 41.6725 39.598 40.8571 36.0349 37.694C34.8923 36.6811 33.9989 35.4709 33.3237 34.0997C33.6249 33.731 34.0301 33.492 34.3936 33.2012C35.3078 32.4688 36.2479 31.7625 37.1672 31.0457C37.2659 30.9678 37.3542 30.8691 37.4944 30.8743L37.5048 30.8795Z" fill="#35A052"/>
<path d="M52.7543 37.9588C51.409 36.9149 50.0638 35.8657 48.7238 34.8217C49.9392 33.9751 50.7598 32.8532 51.1234 31.4093C51.2065 31.0768 51.2065 31.0768 50.8637 31.0768C48.8432 31.0768 46.8176 31.0768 44.7971 31.082C44.5582 31.082 44.4803 31.0301 44.4803 30.7756C44.4907 29.3525 44.4907 27.9293 44.4803 26.5062C44.4803 26.2724 44.5478 26.2101 44.7764 26.2101C48.5056 26.2153 52.2349 26.2153 55.9642 26.2101C56.1823 26.2101 56.2706 26.2672 56.3018 26.4906C56.8212 30.2718 56.2187 33.7777 53.8035 36.8473C53.4866 37.2473 53.1542 37.6316 52.7491 37.9537L52.7543 37.9588Z" fill="#4377BC"/>
<path d="M37.5048 30.8795C36.1128 31.9546 34.7209 33.0298 33.3289 34.1049C32.6329 32.7493 32.2226 31.3106 32.0667 29.7939C31.8382 27.5242 32.1966 25.3479 33.1419 23.2703C33.199 23.1457 33.2665 23.0262 33.3289 22.9067C34.617 23.9092 35.9051 24.9116 37.1984 25.9141C37.2971 25.992 37.4009 26.0699 37.4996 26.1478C37.3023 26.8957 37.1412 27.6488 37.1309 28.4279C37.1205 29.2694 37.2867 30.0796 37.5048 30.8847V30.8795Z" fill="#EFB619"/>
</svg>
