<svg width="25" height="25" viewBox="0 0 25 25" fill="none" xmlns="http://www.w3.org/2000/svg">
<path d="M12.4977 5.91844C12.8951 5.5872 13.3355 5.29741 13.8313 5.0806L13.8315 5.08052C15.4041 4.39365 17.0621 4.23516 18.7011 5.05033L18.7013 5.05044C20.3066 5.8499 21.2073 7.21297 21.4476 8.94274L21.4477 8.94338C21.6814 10.6413 21.1247 12.0975 19.9237 13.2874L19.9236 13.2875C18.0103 15.1817 16.0996 17.0795 14.1889 18.9773C13.8074 19.3562 13.4259 19.7352 13.0444 20.114L13.0442 20.1142C13.0241 20.1342 13.0129 20.1484 12.986 20.1829C12.9647 20.2102 12.9334 20.2503 12.8797 20.3161L12.4634 20.8264L12.0837 20.2882C12.0529 20.2446 12.0241 20.1993 12.0073 20.173C12.0031 20.1663 11.9996 20.1609 11.9971 20.157C11.9936 20.1516 11.9909 20.1476 11.989 20.1448C10.8303 18.9941 9.67122 17.8439 8.51202 16.6936C7.3495 15.54 6.1869 14.3863 5.02474 13.2321L5.02419 13.2316C4.0081 12.2194 3.49414 10.9833 3.50005 9.55289L3.50005 9.55282C3.50992 7.24394 5.12086 5.15029 7.37923 4.66072L12.4977 5.91844ZM12.4977 5.91844C11.0201 4.7208 9.29973 4.24345 7.37951 4.66066L12.4977 5.91844Z" fill="white" stroke="black"/>
</svg>
