<svg width="15" height="16" viewBox="0 0 15 16" fill="none" xmlns="http://www.w3.org/2000/svg">
<path d="M11.6907 6.70818C13.5181 6.70818 14.9995 5.2065 14.9995 3.35409C14.9995 1.50168 13.5181 0 11.6907 0C9.86325 0 8.38184 1.50168 8.38184 3.35409C8.38184 5.2065 9.86325 6.70818 11.6907 6.70818Z" fill="#231815"/>
<path d="M3.30883 11.1799C5.13625 11.1799 6.61766 9.67818 6.61766 7.82577C6.61766 5.97336 5.13625 4.47168 3.30883 4.47168C1.48141 4.47168 0 5.97336 0 7.82577C0 9.67818 1.48141 11.1799 3.30883 11.1799Z" fill="#231815"/>
<path d="M11.6907 15.652C13.5181 15.652 14.9995 14.1503 14.9995 12.2979C14.9995 10.4455 13.5181 8.94385 11.6907 8.94385C9.86325 8.94385 8.38184 10.4455 8.38184 12.2979C8.38184 14.1503 9.86325 15.652 11.6907 15.652Z" fill="#231815"/>
<path d="M11.9124 3.57812L3.08887 7.75207L11.9124 12.0751" stroke="#231815" stroke-miterlimit="10"/>
</svg>
