<svg width="38" height="39" viewBox="0 0 38 39" fill="none" xmlns="http://www.w3.org/2000/svg">
<path d="M26.0691 11.5031L26.069 11.5031C25.7087 11.4484 25.3865 11.2107 25.2145 10.8479C25.2144 10.8477 25.2143 10.8476 25.2142 10.8474L20.9223 1.74404C20.1405 0.0853184 17.8608 0.0853184 17.079 1.74404L12.7826 10.8524L12.7823 10.8532C12.6146 11.2104 12.289 11.4526 11.9282 11.5073L11.9281 11.5074L2.32729 12.9666L2.32717 12.9666C0.552229 13.2368 -0.0959331 15.4736 1.1389 16.7336L1.13891 16.7336L8.08069 23.8163C8.08086 23.8165 8.08104 23.8167 8.08122 23.8169C8.35297 24.0957 8.48126 24.5007 8.41644 24.906C8.4164 24.9062 8.41637 24.9064 8.41633 24.9067L6.77851 34.9113L6.77843 34.9118C6.49258 36.6695 8.27547 38.1236 9.89011 37.2386L9.89095 37.2381L18.4756 32.5116L18.477 32.5108C18.8017 32.3307 19.1915 32.3307 19.5162 32.5108L19.5176 32.5116L28.1022 37.2381L28.1031 37.2386C29.7177 38.1236 31.5006 36.6695 31.2147 34.9118L31.2146 34.9113L29.5768 24.9067C29.5768 24.9064 29.5767 24.9062 29.5767 24.9059C29.5119 24.5006 29.6402 24.0956 29.912 23.8168C29.9122 23.8166 29.9123 23.8165 29.9125 23.8163L36.8576 16.7301C36.8577 16.73 36.8578 16.7299 36.8579 16.7298C38.0981 15.469 37.4482 13.2322 35.6698 12.9623L26.0691 11.5031Z" fill="#FF1A77" stroke="black"/>
</svg>
