<svg width="40" height="40" viewBox="0 0 40 40" fill="none" xmlns="http://www.w3.org/2000/svg">
<rect width="40" height="40" rx="20" fill="#1D55F0"/>
<path d="M23.1961 18.9001C23.1961 19.0237 23.1961 19.1126 23.1961 19.2016C23.1961 22.1962 23.1961 25.1908 23.1961 28.1854C23.1961 28.7592 22.9611 29 22.4041 29C20.7458 29 19.087 29 17.4286 29C16.8608 29 16.634 28.7614 16.6336 28.1638C16.6336 25.1841 16.6336 22.2047 16.6336 19.2249C16.6336 19.1279 16.6336 19.0313 16.6336 18.8997C16.5392 18.8997 16.4561 18.8997 16.3726 18.8997C15.1539 18.8997 13.9353 18.9019 12.7166 18.8983C12.2059 18.897 11.8818 18.4719 12.0406 18.0082C12.08 17.8937 12.1596 17.7849 12.2436 17.6978C14.6255 15.2172 17.0101 12.7392 19.396 10.2618C19.7348 9.90998 20.0962 9.91402 20.435 10.2663C22.8005 12.7222 25.1661 15.1781 27.532 17.634C27.5675 17.6708 27.6043 17.7072 27.6385 17.7454C27.8272 17.957 27.8856 18.201 27.7839 18.471C27.6818 18.7428 27.4745 18.8826 27.1992 18.8943C26.9041 18.9068 26.6081 18.8997 26.3125 18.8997C25.3608 18.8997 24.4087 18.8997 23.4571 18.8997C23.3792 18.8997 23.3013 18.8997 23.1965 18.8997L23.1961 18.9001Z" fill="white"/>
</svg>
