<svg width="400" height="55" viewBox="0 0 400 55" fill="none" xmlns="http://www.w3.org/2000/svg">
<rect width="400" height="55" rx="25" fill="#40B044"/>
<path d="M39.6396 27.2877C39.6055 27.2098 39.5724 27.0531 39.4721 27.1991C39.4107 27.2887 39.4546 27.4503 39.4546 27.5798C39.4546 31.159 39.4497 34.7392 39.4623 38.3183C39.4633 38.6835 39.3903 38.812 38.9911 38.8091C36.5131 38.7896 34.0352 38.8003 31.5572 38.7974C31.3965 38.7974 31.2368 38.7701 31.0762 38.7555C30.9691 38.6095 31.0197 38.441 31.0197 38.2843C31.0168 31.01 31.0168 23.7348 31.0217 16.4606C31.0217 16.3126 30.936 16.1354 31.1054 16.0147C33.8132 16.0127 36.5219 16.0176 39.2296 16.0001C39.549 15.9981 39.6843 16.1558 39.8353 16.3769C42.3132 20.0223 44.7951 23.6657 47.276 27.3091C47.3636 27.4377 47.4571 27.5604 47.5632 27.7084C47.682 27.5078 47.6285 27.3296 47.6285 27.1612C47.6323 23.6102 47.6382 20.0583 47.6216 16.5073C47.6197 16.0994 47.7307 15.9971 48.1328 16.0001C50.5971 16.0186 53.0625 16.0195 55.5268 16.0001C55.927 15.9971 55.999 16.1276 55.9981 16.4927C55.9883 23.7738 55.9873 31.0548 56 38.3359C56 38.7312 55.8802 38.81 55.5112 38.8081C52.9816 38.7925 50.4521 38.7935 47.9225 38.8081C47.6041 38.81 47.4298 38.699 47.2575 38.444C44.8574 34.9018 42.4476 31.3674 40.0378 27.832C39.9472 27.6996 39.844 27.575 39.7476 27.4474C39.6727 27.4211 39.6396 27.3656 39.6376 27.2887L39.6396 27.2877Z" fill="white"/>
</svg>
