<svg width="35" height="35" viewBox="0 0 35 35" fill="none" xmlns="http://www.w3.org/2000/svg">
<path d="M17.4999 5C10.601 4.99402 5.00598 10.583 5 17.4817C5 21.2974 6.73742 24.9037 9.72782 27.2751C9.76968 27.3169 9.81753 27.3528 9.87136 27.3827C14.3599 30.8724 20.6458 30.8724 25.1343 27.3827C25.1852 27.3528 25.233 27.3169 25.2779 27.2751C30.6815 22.9869 31.5876 15.1313 27.2994 9.72773C24.925 6.73739 21.3156 4.99701 17.4999 5ZM25.1493 25.6214C24.1086 22.2931 20.9867 20.0564 17.4999 20.1461C14.0131 20.0594 10.8911 22.2931 9.85042 25.6214C5.35885 21.396 5.14055 14.3299 9.36299 9.83838C13.5884 5.34688 20.6547 5.12859 25.1463 9.35394C29.6379 13.5793 29.8562 20.6425 25.6308 25.137C25.4753 25.3044 25.3108 25.4659 25.1463 25.6214H25.1493ZM21.8718 13.7497C21.8778 16.1659 19.9251 18.1276 17.5088 18.1336C15.0926 18.1396 13.1309 16.1869 13.1249 13.7707C13.1189 11.3545 15.0717 9.39282 17.4879 9.38684C18.6512 9.38684 19.7666 9.84436 20.5889 10.6637C21.4083 11.4801 21.8718 12.5895 21.8718 13.7497Z" fill="#9E9E9E"/>
</svg>
