<svg width="23" height="26" viewBox="0 0 23 26" fill="none" xmlns="http://www.w3.org/2000/svg">
<path d="M4.1062 26C5.46756 26 6.57116 24.9086 6.57116 23.5623C6.57116 22.216 5.46756 21.1246 4.1062 21.1246C2.74484 21.1246 1.64124 22.216 1.64124 23.5623C1.64124 24.9086 2.74484 26 4.1062 26Z" fill="#FF1A77"/>
<path d="M15.6073 26C16.9686 26 18.0722 24.9086 18.0722 23.5623C18.0722 22.216 16.9686 21.1246 15.6073 21.1246C14.2459 21.1246 13.1423 22.216 13.1423 23.5623C13.1423 24.9086 14.2459 26 15.6073 26Z" fill="#FF1A77"/>
<path d="M0 3.25231V14.6262C0 17.3128 2.21007 19.5015 4.92992 19.5015H18.0722C18.9799 19.5015 19.7166 18.773 19.7166 17.8754C19.7166 16.9778 18.9799 16.2492 18.0722 16.2492H4.92992C4.02538 16.2492 3.28558 15.5207 3.28558 14.6231V12.9969H18.0722C18.781 12.9969 19.4057 12.5481 19.6295 11.8872L22.9151 2.13951C23.083 1.6446 22.9991 1.1005 22.6882 0.676283C22.3805 0.252069 21.8831 0 21.3547 0H0.0186504M19.0763 3.24923L16.8848 9.74769H3.28558V3.25231H19.0794L19.0763 3.24923Z" fill="#FF1A77"/>
</svg>
