<svg width="163" height="19" viewBox="0 0 163 19" fill="none" xmlns="http://www.w3.org/2000/svg">
<path d="M19.369 5.62821L19.1717 4.41145L19.4294 3.39593C18.7415 0.949471 16.3008 -0.49625 13.9135 0.157371C12.751 0.47495 11.8124 1.23566 11.2223 2.21794L6.35164 10.896C5.72059 11.9576 5.49128 13.2759 5.82191 14.5776C6.46007 17.098 8.94515 18.6028 11.3716 17.9381C12.5981 17.602 13.574 16.7767 14.1571 15.7187L18.985 7.11825C19.2232 6.69912 19.3974 6.23937 19.5023 5.75931L19.3708 5.63191L19.369 5.62821Z" fill="white"/>
<path d="M6.51007 0.157164C7.67261 0.474743 8.61118 1.23545 9.20135 2.21773L14.072 10.8957C14.703 11.9574 14.9323 13.2757 14.6017 14.5774C13.9635 17.0978 11.4784 18.6026 9.05203 17.9379C7.82549 17.6018 6.84959 16.7765 6.26653 15.7185L1.44036 7.11435C0.846646 6.06745 0.638667 4.78605 0.960412 3.51759C1.59857 0.99727 4.08365 -0.507535 6.51007 0.157164Z" fill="white"/>
<path d="M23.1304 9.27667C21.9252 8.93878 20.9173 8.09868 20.3289 6.98531C20.2364 6.81913 20.1529 6.62711 20.0782 6.42216C20.0338 6.30399 19.9947 6.18398 19.9591 6.06212C19.6516 5.03552 19.5378 3.86676 19.5378 3.86676C19.5165 3.75044 19.4934 3.63596 19.465 3.51964C18.8268 0.999323 16.3417 -0.505481 13.9153 0.159218C12.7528 0.476796 11.8142 1.23751 11.224 2.21978L7.35776 9.10496C9.49087 8.19838 11.4053 8.82431 11.4053 8.82431C12.3101 9.08096 13.1029 9.61641 13.6896 10.3402C13.7571 10.4233 13.8211 10.5101 13.8833 10.5968C13.8833 10.5968 13.8958 10.6153 13.9029 10.6245C13.9206 10.6504 13.9384 10.6781 13.9562 10.7039C13.9704 10.7242 13.9829 10.7446 13.9953 10.7649C14.1393 10.9901 14.2655 11.2265 14.3704 11.4757C14.3721 11.4813 14.3757 11.4868 14.3775 11.4923C14.3864 11.5145 14.397 11.5385 14.4059 11.5607C14.9516 12.8679 14.989 14.2342 14.989 14.2342C15.0103 14.3487 15.0334 14.4632 15.0619 14.5776C15.7 17.098 18.1851 18.6028 20.6115 17.9381C21.838 17.602 22.8139 16.7767 23.397 15.7187L27.1691 8.99787C25.0377 9.89891 23.1304 9.27667 23.1304 9.27667Z" fill="white"/>
<path d="M9.63486 18.0544C9.63486 18.0544 12.7439 13.1375 7.35776 9.10496C7.35776 9.10496 8.82249 8.32394 11.144 8.75599C11.144 8.75599 13.2434 9.10127 14.2655 11.2431C14.2655 11.2431 14.8521 12.2863 14.9908 14.2361C14.9908 14.2361 13.574 18.5271 9.63663 18.0562L9.63486 18.0544Z" fill="white"/>
<path d="M28.1539 8.28516C28.1663 8.28332 28.1787 8.27962 28.1912 8.27778C28.2392 8.2667 28.2854 8.25377 28.3298 8.24085C28.3352 8.24085 28.3405 8.23716 28.3441 8.23716C28.3938 8.22054 28.4418 8.20208 28.488 8.18177C28.4969 8.17807 28.504 8.17438 28.5111 8.17069C28.5467 8.15407 28.5823 8.13561 28.6142 8.1153C28.6267 8.10791 28.6409 8.09868 28.6534 8.09129C28.68 8.07468 28.7067 8.05621 28.7316 8.0359C28.744 8.02667 28.7565 8.01559 28.7689 8.00636C28.7938 7.98605 28.8169 7.96389 28.84 7.93989C28.8507 7.93066 28.8596 7.91958 28.8702 7.91035C28.9004 7.87711 28.9307 7.84203 28.9555 7.80326C29.7021 6.72497 28.3049 4.3579 25.8376 2.51705C23.3739 0.676206 20.7679 0.0595127 20.0231 1.1378C19.9982 1.17473 19.9751 1.2135 19.9538 1.25412C19.9467 1.26705 19.9414 1.28182 19.936 1.29475C19.9236 1.32429 19.9111 1.35383 19.8987 1.38337C19.8934 1.39999 19.888 1.41476 19.8827 1.43138C19.8738 1.46092 19.8649 1.49231 19.8578 1.5237C19.8543 1.54031 19.8507 1.55509 19.8471 1.5717C19.84 1.60863 19.8347 1.6474 19.8311 1.68618C19.8311 1.69726 19.8276 1.70834 19.8276 1.71757C19.824 1.76927 19.8223 1.82281 19.8223 1.87636C19.8223 1.88005 19.8223 1.88374 19.8223 1.88744C19.8223 1.93729 19.8276 1.98899 19.8329 2.04069C19.8329 2.05361 19.8365 2.06653 19.8383 2.07946C19.8436 2.12377 19.8507 2.16809 19.8596 2.21425C19.8614 2.22902 19.8649 2.24194 19.8685 2.25671C19.8791 2.30657 19.8898 2.35457 19.9023 2.40627C19.904 2.4155 19.9076 2.42473 19.9094 2.43581C19.9609 2.62414 20.0338 2.82171 20.1298 3.02481C20.1316 3.03035 20.1351 3.03404 20.1369 3.03958C20.1671 3.1042 20.1991 3.16883 20.2329 3.2353C20.2347 3.23899 20.2364 3.24453 20.24 3.24822C20.3893 3.53072 20.5742 3.82429 20.7946 4.12156C20.6826 5.4325 21.2212 6.76743 22.3233 7.59092C23.4254 8.41256 24.8137 8.51596 25.9727 7.98974C26.3176 8.11345 26.6482 8.20392 26.9558 8.26116H26.9629C27.0357 8.27593 27.1068 8.28701 27.1762 8.29624C27.1815 8.29624 27.1868 8.29624 27.1922 8.29809C27.4108 8.32578 27.6152 8.33686 27.8054 8.32763C27.8126 8.32763 27.8214 8.32763 27.8286 8.32763C27.8801 8.32394 27.9317 8.32024 27.9814 8.31471C27.9939 8.31471 28.0081 8.31101 28.0205 8.30917C28.065 8.30363 28.1094 8.2944 28.1521 8.28701L28.1539 8.28516ZM28.2516 7.36936C28.2516 7.36936 28.2392 7.38228 28.2321 7.38782C28.2196 7.3989 28.209 7.40998 28.1965 7.42105C28.1876 7.42844 28.1787 7.43398 28.1698 7.44136C28.1574 7.4506 28.1467 7.45798 28.1343 7.46537C28.1236 7.47091 28.113 7.47829 28.1005 7.48383C28.0881 7.49122 28.0756 7.49676 28.0632 7.5023C28.0508 7.50783 28.0383 7.51337 28.0241 7.51891C28.0116 7.52445 27.9992 7.52815 27.985 7.53184C27.9708 7.53738 27.9548 7.54107 27.9405 7.54476C27.9281 7.54846 27.9157 7.5503 27.9014 7.55399C27.8837 7.55769 27.8677 7.56138 27.8481 7.56507C27.8374 7.56692 27.825 7.56877 27.8126 7.57061C27.7912 7.57431 27.7717 7.57615 27.7503 7.578C27.7432 7.578 27.7361 7.578 27.7308 7.578C27.6081 7.58723 27.473 7.58169 27.3237 7.56323C27.2864 7.55769 27.2491 7.55215 27.2117 7.54661C27.2082 7.54661 27.2046 7.54661 27.2011 7.54661C27.1637 7.53922 27.1264 7.53184 27.0873 7.52445C27.0837 7.52445 27.0784 7.52445 27.0748 7.52261C27.0357 7.51337 26.9966 7.50599 26.9558 7.49491C26.9522 7.49491 26.9486 7.49491 26.9451 7.49306C26.9042 7.48199 26.8615 7.47091 26.8189 7.45983C25.9319 7.21241 24.7729 6.61049 23.6121 5.74454C22.4442 4.87304 21.5199 3.91846 21.0132 3.12267C20.9901 3.08759 20.9688 3.0525 20.9475 3.01742C20.9439 3.01188 20.9404 3.0045 20.9368 2.99896C20.9173 2.96572 20.8995 2.93434 20.8799 2.9011C20.8764 2.89372 20.871 2.88633 20.8675 2.8771C20.8497 2.84571 20.8337 2.81432 20.8177 2.78478C20.8142 2.77739 20.8088 2.76816 20.8053 2.76078C20.7893 2.73123 20.7751 2.69985 20.7608 2.6703C20.7573 2.66292 20.7537 2.65553 20.7502 2.64815C20.7359 2.6186 20.7235 2.58906 20.7111 2.55952C20.7093 2.55398 20.7075 2.55029 20.7057 2.54475C20.6666 2.45058 20.6382 2.36011 20.6168 2.27333C20.6168 2.26779 20.6133 2.26041 20.6115 2.25487C20.6062 2.23456 20.6026 2.21609 20.5991 2.19578C20.5973 2.18286 20.5937 2.16809 20.592 2.15516C20.5884 2.13854 20.5884 2.12193 20.5848 2.10531C20.5848 2.09054 20.5813 2.07577 20.5813 2.061C20.5813 2.04622 20.5813 2.03145 20.5795 2.01668C20.5795 2.00191 20.5795 1.98529 20.5795 1.97052C20.5795 1.9576 20.5795 1.94283 20.5813 1.9299C20.5813 1.91513 20.5848 1.89851 20.5866 1.88374C20.5866 1.87082 20.5902 1.85974 20.592 1.84866C20.5955 1.83389 20.5991 1.81727 20.6026 1.8025C20.6062 1.79142 20.608 1.78219 20.6115 1.77111C20.6168 1.7545 20.624 1.73788 20.6311 1.72311C20.6346 1.71572 20.6364 1.70834 20.6417 1.6991C20.6524 1.67695 20.6648 1.65479 20.6791 1.63263C21.1643 0.931007 23.2619 1.63263 25.3666 3.20206C27.4713 4.77149 28.7831 6.61049 28.2978 7.31212C28.2978 7.31212 28.2978 7.31212 28.2978 7.31396C28.2836 7.33427 28.2694 7.35274 28.2516 7.36936ZM21.271 4.71425C21.271 4.71425 21.2639 4.70687 21.2603 4.70317C21.2639 4.70687 21.2674 4.71056 21.271 4.71425Z" fill="white"/>
<path d="M27.505 6.7065C28.6925 4.98013 28.3103 2.58168 26.65 1.34275C24.988 0.103826 22.6735 0.498953 21.479 2.22532C21.4719 2.2364 21.4648 2.24748 21.4576 2.25856C22.0336 3.21314 22.9188 4.18619 24.0369 5.02075C25.1995 5.88671 26.4171 6.45724 27.5033 6.7065H27.505Z" fill="white"/>
<path d="M32.7152 2.87341H35.9006L38.2701 13.0839H38.3875L40.9703 2.87341H43.7096L46.2924 13.1042H46.4098L48.7793 2.87341H51.9647L47.9438 17.482H45.089L42.4084 7.83649H42.2911L39.5909 17.482H36.7361L32.7152 2.87341Z" fill="white"/>
<path d="M59.4875 17.6851C55.7386 17.6851 52.9015 14.9303 52.9015 10.1796C52.9015 5.4288 55.7386 2.674 59.4875 2.674C63.2365 2.674 66.054 5.40849 66.054 10.1796C66.054 14.9506 63.208 17.6851 59.4875 17.6851ZM59.4875 15.0023C61.6544 14.9931 63.0907 13.2981 63.0818 10.1796C63.0925 7.05178 61.6544 5.36603 59.4875 5.35679C57.3029 5.36603 55.8737 7.05178 55.8737 10.1796C55.8737 13.3073 57.3011 14.9931 59.4875 15.0023Z" fill="white"/>
<path d="M66.7721 2.87341H69.9576L72.3271 13.0839H72.4444L75.0273 2.87341H77.7665L80.3494 13.1042H80.4667L82.8363 2.87341H86.0217L82.0008 17.482H79.146L76.4653 7.83649H76.348L73.6479 17.482H70.793L66.7721 2.87341Z" fill="white"/>
<path d="M88.5174 2.87341H94.0351C97.2312 2.87341 99.0657 4.92105 99.0657 7.79772C99.0657 10.6744 97.201 12.722 93.9569 12.722H91.4309V17.4839H88.5174V2.87341ZM93.4912 10.2793C95.2208 10.2793 96.0651 9.27113 96.0562 7.79772C96.0669 6.34461 95.2208 5.36603 93.4912 5.3568H91.4327V10.2811H93.4912V10.2793Z" fill="white"/>
<path d="M100.913 2.87341H103.826V14.9802H109.888V17.482H100.913V2.87341Z" fill="white"/>
<path d="M111.344 17.4839L116.219 2.87525H119.968L124.825 17.4839H121.698L120.639 14.1142H115.549L114.492 17.4839H111.344ZM119.901 11.7527L118.143 6.16367H118.045L116.287 11.7527H119.901Z" fill="white"/>
<path d="M137.654 17.4839H135.128L128.951 8.20208H128.833V17.4839H125.92V2.87341H128.485L134.623 12.1552H134.758V2.87341H137.652V17.482L137.654 17.4839Z" fill="white"/>
<path d="M140.023 2.87341H149.464V5.37526H142.937V8.92586H148.979V11.4277H142.937V14.9783H149.484V17.4802H140.023V2.87341Z" fill="white"/>
<path d="M151.194 2.87341H162.714V5.37526H158.402V17.482H155.508V5.37526H151.195V2.87341H151.194Z" fill="white"/>
</svg>
