<svg width="25" height="25" viewBox="0 0 25 25" fill="none" xmlns="http://www.w3.org/2000/svg">
    <path d="M12.5015 0C9.10482 0 8.68134 0.0147041 7.34621 0.0764616C6.30809 0.0970474 5.28174 0.294083 4.31127 0.658746C3.47607 0.973415 2.72322 1.46453 2.09682 2.09975C1.4616 2.72321 0.967544 3.479 0.655816 4.3142C0.291153 5.28467 0.0941177 6.31102 0.0735319 7.34913C0.0117745 8.68133 -0.00292969 9.10775 -0.00292969 12.5044C-0.00292969 15.9011 0.0117745 16.3245 0.0735319 17.6597C0.0941177 18.6978 0.291153 19.7212 0.655816 20.6946C0.970485 21.5298 1.4616 22.2856 2.09682 22.9091C2.72028 23.5443 3.47607 24.0383 4.31127 24.3501C5.28174 24.7147 6.30809 24.9088 7.34621 24.9324C8.6784 24.9941 9.10482 25.0088 12.5015 25.0088C15.8981 25.0088 16.3216 24.9941 17.6568 24.9324C18.6949 24.9118 19.7183 24.7147 20.6917 24.3501C22.3709 23.7002 23.6972 22.3738 24.3471 20.6946C24.7118 19.7241 24.9059 18.6978 24.9294 17.6597C24.9912 16.3275 25.0059 15.9011 25.0059 12.5044C25.0059 9.10775 24.9912 8.68427 24.9294 7.34913C24.9088 6.31102 24.7118 5.28467 24.3471 4.3142C24.0325 3.479 23.5414 2.72321 22.9061 2.09975C22.2827 1.46453 21.5269 0.970474 20.6917 0.658746C19.7212 0.294083 18.6949 0.0999882 17.6568 0.0764616C16.3246 0.0147041 15.8981 0 12.5015 0Z" fill="#231815"/>
    <path d="M13.2337 4.23185C13.2337 4.32302 13.2337 4.39948 13.2337 4.473C13.2279 8.23138 13.2249 11.9898 13.219 15.7481C13.219 15.9422 13.2014 16.1422 13.1602 16.3334C12.9161 17.4568 11.9339 18.2831 10.7429 18.3772C9.66358 18.4625 8.66076 17.895 8.20493 16.9451C7.7344 15.9599 7.90496 14.8159 8.65488 14.0307C9.2401 13.419 9.96649 13.1661 10.8223 13.2396V10.7458C10.49 10.7664 10.1665 10.7634 9.84591 10.8046C6.99037 11.1928 5.03471 13.8778 5.54348 16.701C6.09635 19.7741 9.3048 21.6269 12.2339 20.5652C14.2425 19.8359 15.5776 17.942 15.5835 15.804C15.5864 13.6219 15.5835 11.4398 15.5835 9.25773C15.5835 9.18421 15.5835 9.11069 15.5835 9.03423C15.6158 9.03717 15.6246 9.03423 15.6276 9.04011C15.6658 9.09011 15.707 9.1401 15.7452 9.19009C16.6951 10.4047 17.942 10.9899 19.4801 10.9722C19.6536 10.9722 19.7242 10.9222 19.7212 10.7311C19.7095 9.94883 19.7183 9.16951 19.7183 8.38725C19.7183 8.32549 19.7124 8.26373 19.7095 8.21374C17.3921 7.85202 16.0246 6.53747 15.5982 4.23185H13.2337Z" fill="white"/>
</svg>
