<svg width="18" height="18" viewBox="0 0 18 18" fill="none" xmlns="http://www.w3.org/2000/svg">
<path d="M4.17937 1.58284C2.06984 2.04355 0.570751 4.0117 0.561571 6.17656L0.56157 6.17663C0.556073 7.51806 1.03464 8.67866 1.98128 9.62897L1.98183 9.62952C3.05577 10.7043 4.13012 11.7786 5.20438 12.8529L5.2081 12.8566C6.27974 13.9282 7.35129 14.9998 8.42243 16.0718C8.42384 16.0739 8.4256 16.0765 8.42771 16.0798L8.44075 16.1003L8.45869 16.1286C8.47225 16.1497 8.48882 16.1751 8.50855 16.2032L8.88917 16.747L9.30678 16.2311C9.35881 16.1668 9.38792 16.1292 9.4072 16.1043C9.43026 16.0745 9.43924 16.0629 9.45654 16.0456L9.45667 16.0455C9.80965 15.6922 10.1626 15.339 10.5156 14.9857C12.2832 13.2164 14.0509 11.4471 15.8209 9.68122L15.8211 9.6811C16.9394 8.56457 17.458 7.19722 17.2405 5.60441L17.2404 5.60376C17.0168 3.98242 16.178 2.70105 14.6805 1.94954L14.6803 1.94942C13.1507 1.18277 11.6036 1.33293 10.1409 1.97674L10.1407 1.97682C9.68841 2.1761 9.28614 2.44073 8.92287 2.74265C7.55355 1.63475 5.95838 1.19334 4.17937 1.58284ZM4.17937 1.58284L4.28605 2.07133L4.17909 1.58291C4.17919 1.58289 4.17928 1.58286 4.17937 1.58284Z" fill="#FF1A77" stroke="black"/>
</svg>
