<svg width="27" height="27" viewBox="0 0 27 27" fill="none" xmlns="http://www.w3.org/2000/svg">
<path fill-rule="evenodd" clip-rule="evenodd" d="M7.41026 12.2179C7.41026 11.6869 7.84075 11.2564 8.37179 11.2564H18.6282C19.1592 11.2564 19.5897 11.6869 19.5897 12.2179C19.5897 12.749 19.1592 13.1795 18.6282 13.1795H8.37179C7.84075 13.1795 7.41026 12.749 7.41026 12.2179Z" fill="black"/>
<path fill-rule="evenodd" clip-rule="evenodd" d="M7.41026 17.3462C7.41026 16.8151 7.84075 16.3846 8.37179 16.3846H13.5C14.031 16.3846 14.4615 16.8151 14.4615 17.3462C14.4615 17.8772 14.031 18.3077 13.5 18.3077H8.37179C7.84075 18.3077 7.41026 17.8772 7.41026 17.3462Z" fill="black"/>
<path fill-rule="evenodd" clip-rule="evenodd" d="M13.5 4.20513C10.7863 4.20513 7.07877 4.44028 4.76474 4.60959C4.0032 4.66531 3.40314 5.2604 3.3413 6.02002C3.16281 8.21249 2.92308 11.6304 2.92308 14.141C2.92308 16.6516 3.16281 20.0696 3.3413 22.262C3.40314 23.0216 4.0032 23.6167 4.76474 23.6725C7.07877 23.8418 10.7863 24.0769 13.5 24.0769C16.2137 24.0769 19.9212 23.8418 22.2353 23.6725C22.9968 23.6167 23.5969 23.0216 23.6587 22.262C23.8372 20.0696 24.0769 16.6516 24.0769 14.141C24.0769 11.6304 23.8372 8.21249 23.6587 6.02002C23.5969 5.2604 22.9968 4.66531 22.2353 4.60959C19.9212 4.44028 16.2137 4.20513 13.5 4.20513ZM4.62441 2.69164C6.93949 2.52225 10.7092 2.28205 13.5 2.28205C16.2908 2.28205 20.0605 2.52225 22.3756 2.69164C24.0812 2.81643 25.4366 4.15805 25.5754 5.86398C25.7541 8.05819 26 11.5448 26 14.141C26 16.7372 25.7541 20.2239 25.5754 22.4181C25.4366 24.124 24.0812 25.4656 22.3756 25.5904C20.0605 25.7598 16.2908 26 13.5 26C10.7092 26 6.93949 25.7598 4.62441 25.5904C2.91884 25.4656 1.56344 24.124 1.42456 22.4181C1.24593 20.2239 1 16.7372 1 14.141C1 11.5448 1.24593 8.05819 1.42456 5.86398C1.56344 4.15805 2.91884 2.81643 4.62441 2.69164Z" fill="black"/>
<path fill-rule="evenodd" clip-rule="evenodd" d="M9.65385 1C10.1849 1 10.6154 1.4305 10.6154 1.96154V5.16667C10.6154 5.69771 10.1849 6.1282 9.65385 6.1282C9.1228 6.1282 8.69231 5.69771 8.69231 5.16667V1.96154C8.69231 1.4305 9.1228 1 9.65385 1Z" fill="black"/>
<path fill-rule="evenodd" clip-rule="evenodd" d="M17.3462 1C17.8772 1 18.3077 1.4305 18.3077 1.96154V5.16667C18.3077 5.69771 17.8772 6.1282 17.3462 6.1282C16.8151 6.1282 16.3846 5.69771 16.3846 5.16667L16.3846 1.96154C16.3846 1.4305 16.8151 1 17.3462 1Z" fill="black"/>
<path fill-rule="evenodd" clip-rule="evenodd" d="M7.41026 12.2179C7.41026 11.6869 7.84075 11.2564 8.37179 11.2564H18.6282C19.1592 11.2564 19.5897 11.6869 19.5897 12.2179C19.5897 12.749 19.1592 13.1795 18.6282 13.1795H8.37179C7.84075 13.1795 7.41026 12.749 7.41026 12.2179Z" stroke="black" stroke-width="0.5" stroke-linecap="round" stroke-linejoin="round"/>
<path fill-rule="evenodd" clip-rule="evenodd" d="M7.41026 17.3462C7.41026 16.8151 7.84075 16.3846 8.37179 16.3846H13.5C14.031 16.3846 14.4615 16.8151 14.4615 17.3462C14.4615 17.8772 14.031 18.3077 13.5 18.3077H8.37179C7.84075 18.3077 7.41026 17.8772 7.41026 17.3462Z" stroke="black" stroke-width="0.5" stroke-linecap="round" stroke-linejoin="round"/>
<path fill-rule="evenodd" clip-rule="evenodd" d="M13.5 4.20513C10.7863 4.20513 7.07877 4.44028 4.76474 4.60959C4.0032 4.66531 3.40314 5.2604 3.3413 6.02002C3.16281 8.21249 2.92308 11.6304 2.92308 14.141C2.92308 16.6516 3.16281 20.0696 3.3413 22.262C3.40314 23.0216 4.0032 23.6167 4.76474 23.6725C7.07877 23.8418 10.7863 24.0769 13.5 24.0769C16.2137 24.0769 19.9212 23.8418 22.2353 23.6725C22.9968 23.6167 23.5969 23.0216 23.6587 22.262C23.8372 20.0696 24.0769 16.6516 24.0769 14.141C24.0769 11.6304 23.8372 8.21249 23.6587 6.02002C23.5969 5.2604 22.9968 4.66531 22.2353 4.60959C19.9212 4.44028 16.2137 4.20513 13.5 4.20513ZM4.62441 2.69164C6.93949 2.52225 10.7092 2.28205 13.5 2.28205C16.2908 2.28205 20.0605 2.52225 22.3756 2.69164C24.0812 2.81643 25.4366 4.15805 25.5754 5.86398C25.7541 8.05819 26 11.5448 26 14.141C26 16.7372 25.7541 20.2239 25.5754 22.4181C25.4366 24.124 24.0812 25.4656 22.3756 25.5904C20.0605 25.7598 16.2908 26 13.5 26C10.7092 26 6.93949 25.7598 4.62441 25.5904C2.91884 25.4656 1.56344 24.124 1.42456 22.4181C1.24593 20.2239 1 16.7372 1 14.141C1 11.5448 1.24593 8.05819 1.42456 5.86398C1.56344 4.15805 2.91884 2.81643 4.62441 2.69164Z" stroke="black" stroke-width="0.5" stroke-linecap="round" stroke-linejoin="round"/>
<path fill-rule="evenodd" clip-rule="evenodd" d="M9.65385 1C10.1849 1 10.6154 1.4305 10.6154 1.96154V5.16667C10.6154 5.69771 10.1849 6.1282 9.65385 6.1282C9.1228 6.1282 8.69231 5.69771 8.69231 5.16667V1.96154C8.69231 1.4305 9.1228 1 9.65385 1Z" stroke="black" stroke-width="0.5" stroke-linecap="round" stroke-linejoin="round"/>
<path fill-rule="evenodd" clip-rule="evenodd" d="M17.3462 1C17.8772 1 18.3077 1.4305 18.3077 1.96154V5.16667C18.3077 5.69771 17.8772 6.1282 17.3462 6.1282C16.8151 6.1282 16.3846 5.69771 16.3846 5.16667L16.3846 1.96154C16.3846 1.4305 16.8151 1 17.3462 1Z" stroke="black" stroke-width="0.5" stroke-linecap="round" stroke-linejoin="round"/>
</svg>
