<svg width="25" height="25" viewBox="0 0 25 25" fill="none" xmlns="http://www.w3.org/2000/svg">
    <path d="M12.4971 2.25294C15.8353 2.25294 16.2294 2.26471 17.5471 2.32647C18.3382 2.33529 19.1235 2.48235 19.8676 2.75588C20.4118 2.95588 20.9029 3.27647 21.3059 3.69118C21.7206 4.09412 22.0412 4.58529 22.2412 5.12941C22.5176 5.87353 22.6618 6.65882 22.6706 7.45C22.7294 8.76765 22.7441 9.16471 22.7441 12.5C22.7441 15.8353 22.7324 16.2324 22.6706 17.55C22.6618 18.3412 22.5147 19.1265 22.2412 19.8706C21.8206 20.9618 20.9588 21.8235 19.8676 22.2441C19.1235 22.5206 18.3382 22.6647 17.5471 22.6735C16.2294 22.7324 15.8353 22.7471 12.4971 22.7471C9.15882 22.7471 8.76471 22.7353 7.44706 22.6735C6.65294 22.6647 5.87059 22.5176 5.12647 22.2441C4.58235 22.0441 4.09118 21.7235 3.68824 21.3088C3.27353 20.9059 2.95294 20.4147 2.75294 19.8706C2.47647 19.1265 2.33235 18.3412 2.32353 17.55C2.26471 16.2324 2.25 15.8353 2.25 12.5C2.25 9.16471 2.26176 8.76765 2.32353 7.45C2.33235 6.65882 2.47941 5.87353 2.75294 5.12941C2.95294 4.58529 3.27353 4.09412 3.68824 3.69118C4.09118 3.27647 4.58235 2.95588 5.12647 2.75588C5.87059 2.47941 6.65588 2.33529 7.44706 2.32647C8.76471 2.26765 9.16177 2.25294 12.4971 2.25294ZM12.4971 0C9.10294 0 8.67647 0.0147059 7.34412 0.0735294C6.30588 0.0941176 5.27941 0.291176 4.30882 0.655882C3.47353 0.970588 2.72059 1.46176 2.09412 2.09706C1.45882 2.72059 0.967647 3.47647 0.652941 4.31176C0.288235 5.28235 0.0941176 6.30882 0.0735294 7.34706C0.0117647 8.67941 0 9.10588 0 12.5C0 15.8941 0.0147059 16.3206 0.0764706 17.6529C0.0970588 18.6912 0.294118 19.7147 0.655882 20.6882C0.970588 21.5235 1.46176 22.2765 2.09706 22.9029C2.72059 23.5382 3.47647 24.0294 4.31176 24.3441C5.28235 24.7088 6.30882 24.9029 7.34706 24.9235C8.67941 24.9853 9.10588 24.9971 12.5 24.9971C15.8941 24.9971 16.3176 24.9824 17.6529 24.9235C18.6912 24.9029 19.7147 24.7059 20.6882 24.3441C22.3676 23.6941 23.6941 22.3676 24.3441 20.6882C24.7088 19.7176 24.9029 18.6912 24.9235 17.6529C24.9853 16.3206 24.9971 15.8941 24.9971 12.5C24.9971 9.10588 24.9824 8.67941 24.9235 7.34706C24.9029 6.30882 24.7059 5.28529 24.3441 4.31176C24.0294 3.47647 23.5382 2.72353 22.9029 2.09706C22.2794 1.46176 21.5235 0.970588 20.6882 0.655882C19.7176 0.291176 18.6912 0.0941176 17.6529 0.0735294C16.3176 0.0117647 15.8941 0 12.5 0" fill="#231815"/>
    <path d="M12.4971 6.07941C8.95294 6.07941 6.07941 8.95294 6.07941 12.4971C6.07941 16.0412 8.95294 18.9147 12.4971 18.9147C16.0412 18.9147 18.9147 16.0412 18.9147 12.4971C18.9147 8.95294 16.0412 6.07941 12.4971 6.07941ZM12.4971 16.6647C10.1971 16.6647 8.32941 14.8 8.32941 12.4971C8.32941 10.1971 10.1941 8.32941 12.4971 8.32941C14.7971 8.32941 16.6647 10.1941 16.6647 12.4971C16.6647 14.7971 14.8 16.6647 12.4971 16.6647Z" fill="#231815"/>
    <path d="M20.6676 5.82647C20.6676 6.65588 19.9971 7.32647 19.1676 7.32647C18.3382 7.32647 17.6676 6.65588 17.6676 5.82647C17.6676 4.99706 18.3382 4.32647 19.1676 4.32647C19.9971 4.32647 20.6676 4.99706 20.6676 5.82647Z" fill="#231815"/>
</svg>
