<svg width="497" height="116" viewBox="0 0 497 116" fill="none" xmlns="http://www.w3.org/2000/svg">
<path d="M75.359 49.0775C82.16 56.9476 80.8583 65.9918 79.1215 74.7847C77.8611 81.1581 72.373 84.6092 64.3791 84.733C50.0419 84.9506 35.7009 84.853 21.3599 84.8755C15.8643 84.8868 10.365 84.7593 4.87696 84.9093C1.44832 85.0031 -0.0259143 83.9452 0.000344342 80.2315C0.150394 59.9261 0.124135 39.6206 0.0378567 19.3151C0.0228518 16.0403 1.17073 14.7499 4.52059 14.7686C23.4568 14.8624 42.4043 14.4123 61.3256 14.945C79.2565 15.4514 86.0313 31.9006 75.3552 49.0775H75.359ZM38.8594 69.3829C44.5388 69.3829 50.2144 69.3379 55.8938 69.3979C60.129 69.4392 62.9424 68.16 63.0812 63.2797C63.22 58.4406 60.9805 56.1148 56.2727 56.0923C44.7339 56.0323 33.1951 56.1298 21.66 56.0173C15.7255 55.961 17.5074 60.2412 17.271 63.3584C17.0235 66.6183 16.9897 69.6455 21.8363 69.4392C27.5044 69.1954 33.1876 69.3829 38.8669 69.3829H38.8594ZM38.9757 43.1543C38.9757 43.1543 38.9757 43.1318 38.9757 43.1168C44.8314 43.1168 50.6871 43.098 56.539 43.1243C60.7667 43.1393 62.9649 41.3012 62.9536 36.8784C62.9424 32.7071 60.7929 30.8427 56.8879 30.8164C44.9965 30.7377 33.1013 30.7902 21.2099 30.7377C15.9994 30.7152 17.4248 34.5564 17.2823 37.3811C17.136 40.2846 16.7121 43.3793 21.4124 43.2068C27.2606 42.9892 33.12 43.1543 38.9757 43.1543Z" fill="white"/>
<path d="M369.58 0H385.695C385.695 5.9007 385.695 11.325 385.695 16.7493C385.695 31.5554 385.722 46.3653 385.692 61.1715C385.654 78.6972 381.014 84.1553 363.623 84.8155C350.824 85.3032 337.905 85.0706 325.158 83.8927C315.307 82.9849 311.338 78.6822 310.472 69.0828C309.722 60.7776 309.853 52.251 310.869 43.9758C311.875 35.7793 316.53 31.5517 324.805 30.9477C336.685 30.0774 348.633 30.0549 360.558 29.8636C371.103 29.6948 369.494 30.3438 369.569 20.5905C369.621 13.8608 369.58 7.12735 369.58 0.00375124V0ZM349.897 43.5894V43.6382C344.754 43.6382 339.604 43.5031 334.468 43.6719C328.061 43.8857 326.298 45.7576 326.227 52.0109C326.182 55.8484 326.369 59.6935 326.212 63.5235C326.028 68.0062 328.245 70.8421 332.465 70.9809C342.721 71.3111 352.996 71.2773 363.255 70.9809C367.562 70.8572 369.666 67.9012 369.636 63.5647C369.603 58.4481 369.422 53.3201 369.655 48.2147C369.824 44.5047 368.248 43.4131 364.778 43.5406C359.827 43.7244 354.86 43.5856 349.901 43.5856L349.897 43.5894Z" fill="white"/>
<path d="M421.474 78.761C421.474 68.7002 421.291 58.6394 421.523 48.5823C421.797 36.7359 426.602 30.9214 438.302 30.3663C452.587 29.691 466.969 29.7736 481.247 30.6063C491.641 31.2103 496.147 36.7134 496.724 47.093C497.069 53.2938 497.047 59.5284 496.893 65.7404C496.593 77.8044 491.397 83.6189 479.198 84.4741C469.685 85.1419 460.097 84.7742 450.539 84.8643C447.966 84.8868 445.389 84.9956 442.819 84.8793C438.561 84.6842 437.068 86.5111 437.278 90.7762C437.605 97.3446 437.263 103.943 437.402 110.523C437.47 113.745 436.329 115.017 432.961 115.174C421.452 115.718 421.444 115.831 421.414 104.551C421.392 95.9529 421.411 87.3588 421.411 78.761C421.433 78.761 421.456 78.761 421.478 78.761H421.474ZM456.556 71.251V71.296C458.762 71.296 460.967 71.3073 463.173 71.296C480.549 71.1835 481.453 72.4177 480.71 51.4445C480.699 51.0806 480.571 50.7242 480.541 50.3641C480.155 45.9414 477.597 43.8332 473.279 43.807C463.908 43.7507 454.534 43.7657 445.163 43.7807C439.893 43.792 437.496 46.6917 437.421 51.7071C437.346 56.6437 437.533 61.5878 437.327 66.517C437.177 70.1482 438.764 71.3973 442.226 71.2923C447.002 71.1497 451.781 71.2548 456.56 71.2548L456.556 71.251Z" fill="white"/>
<path d="M147.986 29.7773C157.143 29.7773 165.542 29.7548 173.945 29.7848C181.838 29.8149 189.749 29.5635 197.619 30.0324C211.472 30.8577 216.9 36.7734 217.035 50.6005C217.129 60.4625 217.035 70.3282 217.092 80.1902C217.107 82.7673 217.043 84.883 213.483 84.868C195.511 84.778 177.527 85.1606 159.57 84.6542C149.84 84.3804 146.827 80.4303 146.602 70.6508C146.557 68.6439 146.557 66.6333 146.61 64.6264C146.827 56.3174 151.4 51.9397 160.373 51.8384C171.754 51.7108 183.136 51.8909 194.517 51.7484C196.704 51.7221 200.71 53.2376 200.222 49.1637C199.99 47.2169 196.674 44.3847 194.513 44.1521C187.795 43.4281 180.96 43.7207 174.174 43.6832C167.197 43.6419 160.212 43.4619 153.249 43.7582C149.104 43.9345 147.544 42.5166 147.945 38.4427C148.193 35.9294 147.99 33.371 147.99 29.7811L147.986 29.7773ZM181.71 71.9038C186.65 71.9038 191.591 71.7912 196.527 71.9413C200.087 72.0501 200.755 70.1107 200.83 67.1434C200.909 64.0299 200.02 62.4431 196.52 62.4994C186.827 62.657 177.13 62.6044 167.433 62.5519C164.136 62.5332 162.125 63.7973 162.091 67.256C162.057 70.7971 164.207 71.9563 167.437 71.9263C172.193 71.8813 176.95 71.915 181.706 71.9038H181.71Z" fill="white"/>
<path d="M263.161 30.1937C270.506 30.1937 277.881 29.7811 285.192 30.295C295.121 30.9928 300.628 36.8934 300.861 46.6617C301.134 57.9942 300.966 69.3379 301.165 80.6742C301.225 84.1553 300.114 85.5545 296.427 85.457C282.723 85.0894 285.079 87.0625 284.888 74.2708C284.779 66.9559 284.982 59.6335 284.738 52.326C284.535 46.2153 282.806 44.4972 276.646 44.3472C267.827 44.1296 258.997 44.0583 250.181 44.3021C243.302 44.4897 241.449 46.5079 241.306 53.2976C241.122 62.0718 240.916 70.8609 241.208 79.6276C241.343 83.7352 239.809 85.3144 235.99 85.3557C235.071 85.367 234.152 85.4007 233.233 85.4082C224.752 85.487 224.545 85.2732 224.564 77.0205C224.587 67.8749 224.463 58.7294 224.62 49.5839C224.842 36.7171 230.424 30.7639 243.313 29.9837C249.904 29.586 256.54 29.9124 263.157 29.9124C263.157 30.0062 263.157 30.1037 263.157 30.1975L263.161 30.1937Z" fill="white"/>
<path d="M142.562 29.2897C143.49 38.8328 139.834 43.6044 131.594 43.6044C125.719 43.6044 119.845 43.5444 113.974 43.6644C106.813 43.8107 104.769 45.8739 104.72 52.9075C104.656 62.038 104.532 71.1723 104.75 80.299C104.844 84.2078 103.351 85.4345 99.607 85.2694C86.9166 84.7067 88.6159 87.055 88.6872 74.6309C88.7434 64.2475 88.946 53.8453 89.7187 43.4956C90.2214 36.7396 94.8917 31.9118 101.299 31.2891C114.901 29.9724 128.619 29.8899 142.57 29.2897H142.562Z" fill="white"/>
<path d="M395.314 85.2019C395.314 75.1111 395.314 66.1794 395.314 57.2477C395.314 51.7633 395.216 46.279 395.325 40.7985C395.569 28.4644 392.523 29.6648 407.487 29.8936C408.8 29.9124 411.178 32.3094 411.197 33.6299C411.455 49.7114 411.41 65.7967 411.283 81.8783C411.275 82.9924 410.064 84.9993 409.31 85.0518C404.838 85.3557 400.333 85.2019 395.31 85.2019H395.314Z" fill="white"/>
<path d="M402.966 1.21539L406.935 9.25055L415.803 10.541L409.384 16.798L410.9 25.6322L402.966 21.4608L395.032 25.6322L396.548 16.798L390.129 10.541L399.001 9.25055L402.966 1.21539Z" fill="#E6030A"/>
</svg>
