<svg xmlns="http://www.w3.org/2000/svg" xmlns:xlink="http://www.w3.org/1999/xlink" width="48" height="30" viewBox="0 0 48 30">
  <defs>
    <linearGradient id="linear-gradient" x1="0.491" y1="0.916" x2="0.507" y2="0.234" gradientUnits="objectBoundingBox">
      <stop offset="0" stop-color="#fc9dc3"/>
      <stop offset="1" stop-color="#bc47ff"/>
    </linearGradient>
    <linearGradient id="linear-gradient-2" x1="0.209" y1="0.085" x2="0.752" y2="0.86" xlink:href="#linear-gradient"/>
    <linearGradient id="linear-gradient-3" x1="0.255" y1="0.266" x2="0.78" y2="0.768" gradientUnits="objectBoundingBox">
      <stop offset="0" stop-color="#fcaeb4"/>
      <stop offset="0.51" stop-color="#fdb5b4"/>
      <stop offset="1" stop-color="#f551fe"/>
    </linearGradient>
    <linearGradient id="linear-gradient-4" x1="0.616" y1="0.655" x2="0.411" y2="0.011" gradientUnits="objectBoundingBox">
      <stop offset="0" stop-color="#fb97cc"/>
      <stop offset="1" stop-color="#f75cf6"/>
    </linearGradient>
    <linearGradient id="linear-gradient-5" x1="0.255" y1="0.706" x2="0.702" y2="0.33" gradientUnits="objectBoundingBox">
      <stop offset="0" stop-color="#1d55f0"/>
      <stop offset="1" stop-color="#92f0ee"/>
    </linearGradient>
    <linearGradient id="linear-gradient-6" x1="0.101" y1="0.877" x2="0.72" y2="0.399" xlink:href="#linear-gradient-5"/>
  </defs>
  <g id="그룹_82446" data-name="그룹 82446" transform="translate(-15 -59)">
    <g id="그룹_82440" data-name="그룹 82440" transform="translate(15.402 59.5)">
      <path id="패스_43237" data-name="패스 43237" d="M825.614,500.021l-.33-1.95.429-1.629a7.558,7.558,0,0,0-13.663-1.889L803.94,508.46a7.56,7.56,0,1,0,12.993,7.728h0L824.97,502.4a7.581,7.581,0,0,0,.862-2.177Z" transform="translate(-794.718 -491)" fill="url(#linear-gradient)"/>
      <g id="그룹_82438" data-name="그룹 82438" transform="translate(0 0)">
        <path id="패스_43238" data-name="패스 43238" d="M784.958,491.251a7.533,7.533,0,0,1,4.482,3.3l8.109,13.907a7.56,7.56,0,1,1-12.993,7.728h0L776.519,502.4a7.561,7.561,0,0,1,8.439-11.151Z" transform="translate(-775.469 -491)" fill="url(#linear-gradient-2)"/>
      </g>
      <path id="패스_43239" data-name="패스 43239" d="M838.565,505.872h0A7.578,7.578,0,0,1,833.9,502.2h0a6.11,6.11,0,0,1-.417-.9q-.11-.284-.2-.578a20.892,20.892,0,0,1-.7-3.519c-.034-.185-.073-.371-.122-.557a7.559,7.559,0,0,0-13.72-2.084L812.309,505.6h0a10.794,10.794,0,0,1,6.738-.451v0a7.562,7.562,0,0,1,3.8,2.428c.112.133.218.271.321.412v0l.033.047c.031.042.06.085.09.128l.066.1a7.551,7.551,0,0,1,.625,1.14l.012.026c.016.036.032.073.048.11a13.07,13.07,0,0,1,.97,4.284c.034.183.073.367.121.55A7.56,7.56,0,0,0,839.01,516.2h0l6.279-10.771A10.793,10.793,0,0,1,838.565,505.872Z" transform="translate(-801.407 -491.006)" fill="url(#linear-gradient-3)"/>
      <path id="패스_43240" data-name="패스 43240" d="M816.1,552.823s5.176-7.879-3.791-14.344a10.617,10.617,0,0,1,6.3-.56,7.578,7.578,0,0,1,5.2,3.987,11.95,11.95,0,0,1,1.208,4.8S822.657,553.577,816.1,552.823Z" transform="translate(-801.407 -523.887)" fill="url(#linear-gradient-4)"/>
      <path id="패스_43241" data-name="패스 43241" d="M896.3,506.589l.063-.012q.119-.026.231-.06l.025-.007a2.522,2.522,0,0,0,.24-.089l.04-.019c.059-.027.117-.056.172-.087.022-.012.043-.026.064-.039.045-.028.089-.057.131-.089l.062-.048c.041-.033.08-.069.117-.105.017-.016.034-.031.05-.048a1.709,1.709,0,0,0,.144-.172c1.241-1.73-1.082-5.522-5.19-8.471h0c-4.107-2.948-8.444-3.937-9.686-2.207v0a1.614,1.614,0,0,0-.115.187c-.011.021-.02.043-.031.065-.022.046-.043.093-.061.142-.01.025-.018.051-.026.076-.016.049-.029.1-.041.149-.006.025-.012.05-.017.076-.012.06-.02.121-.027.183,0,.017-.005.034-.006.052a2.515,2.515,0,0,0-.008.254c0,.006,0,.013,0,.019q0,.12.017.245c0,.021.005.042.008.063.009.071.02.143.034.216l.014.067q.025.118.058.239l.012.046a5.9,5.9,0,0,0,.366.945l.012.024q.075.155.161.313l.011.021a10.873,10.873,0,0,0,.924,1.4h0a6.167,6.167,0,0,0,8.62,6.2h0a10.9,10.9,0,0,0,1.636.435l.012,0q.181.032.356.055l.027,0a5.966,5.966,0,0,0,1.021.047l.038,0q.131-.007.255-.022l.065-.008C896.155,506.616,896.228,506.6,896.3,506.589Zm.164-1.469c-.01.011-.022.02-.033.031s-.038.036-.06.052-.03.021-.045.031-.039.027-.061.039-.036.02-.055.029l-.063.03-.065.025-.065.022-.075.022-.064.014c-.029.006-.057.012-.087.017l-.058.008c-.034,0-.069.01-.1.012l-.034,0a3.472,3.472,0,0,1-.676-.025h0c-.061-.008-.123-.017-.187-.028l-.017,0c-.062-.01-.125-.022-.189-.035l-.021,0q-.1-.02-.2-.044l-.017,0q-.1-.025-.211-.054a20.451,20.451,0,0,1-9.665-6.951c-.038-.057-.073-.112-.108-.168l-.019-.03q-.048-.079-.093-.156l-.021-.037c-.029-.05-.056-.1-.082-.148l-.021-.039c-.025-.049-.05-.1-.073-.144l-.017-.036c-.023-.048-.045-.1-.065-.143l-.01-.024a3.093,3.093,0,0,1-.149-.435c0-.01-.006-.021-.009-.031-.008-.033-.013-.064-.02-.1s-.009-.043-.013-.065-.007-.054-.011-.081-.005-.048-.007-.071,0-.049,0-.073,0-.049,0-.073,0-.044,0-.065.005-.049.008-.073.006-.039.009-.057.011-.049.018-.074.009-.033.014-.049.02-.052.032-.077.01-.025.016-.037a.786.786,0,0,1,.064-.105c.807-1.124,4.3,0,7.8,2.516s5.688,5.464,4.88,6.588l0,0A.846.846,0,0,1,896.463,505.12Zm-11.62-4.256-.017-.019Zm6.687,4.8.013.006Z" transform="translate(-850.777 -493.312)" fill="url(#linear-gradient-5)"/>
      <path id="패스_43242" data-name="패스 43242" d="M901.7,504.112a6.168,6.168,0,0,0-10.03-7.181c-.013.017-.024.036-.036.054a16.308,16.308,0,0,0,4.294,4.427A16.135,16.135,0,0,0,901.7,504.112Z" transform="translate(-857.26 -493.365)" fill="url(#linear-gradient-6)"/>
    </g>
    <rect id="사각형_146164" data-name="사각형 146164" width="48" height="30" transform="translate(15 59)" fill="none"/>
  </g>
</svg>
