<svg width="27" height="27" viewBox="0 0 27 27" fill="none" xmlns="http://www.w3.org/2000/svg">
<path fill-rule="evenodd" clip-rule="evenodd" d="M25.1952 11.6324C25.6893 12.1229 25.969 12.8027 25.969 13.5135V23.4008C25.969 24.8363 24.8511 26 23.4721 26H20.9752C19.5962 26 18.4783 24.8363 18.4783 23.4008V19.5019C18.4783 16.6309 16.2425 14.3035 13.4845 14.3035C10.7265 14.3035 8.49069 16.6309 8.49069 19.5019V23.4008C8.49069 24.8363 7.37279 26 5.99379 26H3.4969C2.1179 26 1 24.8363 1 23.4008V13.5135C1 12.8027 1.27962 12.1229 1.77377 11.6324L11.7614 1.71815C12.726 0.760616 14.243 0.760615 15.2076 1.71815L25.1952 11.6324Z" fill="black" stroke="black"/>
</svg>
