<svg width="20" height="18" viewBox="0 0 20 18" fill="none" xmlns="http://www.w3.org/2000/svg">
<path d="M9.84103 1.62135C12.386 1.62135 12.6865 1.62982 13.6933 1.67427C14.2987 1.68062 14.8974 1.78645 15.4625 1.9833C15.8773 2.12723 16.2518 2.35795 16.559 2.6564C16.8751 2.94638 17.1195 3.29986 17.272 3.69144C17.4828 4.22695 17.5927 4.7921 17.5994 5.36148C17.6442 6.30974 17.6554 6.59548 17.6554 8.99788C17.6554 11.4003 17.6465 11.686 17.5994 12.6343C17.5927 13.2058 17.4805 13.7709 17.272 14.3043C16.9514 15.0896 16.2944 15.7098 15.4625 16.0125C14.8952 16.2114 14.2965 16.3151 13.6933 16.3215C12.6887 16.3638 12.386 16.3744 9.84103 16.3744C7.29602 16.3744 6.99331 16.3659 5.98875 16.3215C5.38333 16.3151 4.78464 16.2093 4.21958 16.0125C3.80475 15.8685 3.43029 15.6378 3.12309 15.3394C2.80693 15.0494 2.56252 14.6959 2.41004 14.3043C2.19927 13.7688 2.08939 13.2037 2.08267 12.6343C2.03782 11.686 2.02661 11.4003 2.02661 8.99788C2.02661 6.59548 2.03558 6.30974 2.08267 5.36148C2.08939 4.78998 2.20151 4.22484 2.41004 3.69144C2.56252 3.29986 2.80693 2.94638 3.12309 2.6564C3.43029 2.35795 3.80475 2.12723 4.21958 1.9833C4.78688 1.78434 5.38558 1.68062 5.98875 1.67427C6.99331 1.63194 7.29602 1.62135 9.84103 1.62135ZM9.84103 0C7.25117 0 6.92828 0.0105833 5.91027 0.0550329C5.11874 0.0698495 4.33618 0.211665 3.59622 0.47413C2.95941 0.700612 2.38538 1.05409 1.90777 1.51129C1.42343 1.96002 1.04672 2.504 0.809038 3.10513C0.530993 3.80362 0.380759 4.54233 0.365063 5.28951C0.317974 6.24835 0.306763 6.55527 0.306763 9C0.306763 11.4447 0.317974 11.7495 0.365063 12.7105C0.380759 13.4577 0.530993 14.1943 0.809038 14.8949C1.04896 15.496 1.42343 16.04 1.90777 16.4887C2.38313 16.9459 2.95941 17.3015 3.59622 17.5259C4.33618 17.7883 5.11874 17.928 5.91027 17.945C6.92604 17.9894 7.25117 18 9.84103 18C12.4309 18 12.7538 17.9894 13.7718 17.945C14.5633 17.9302 15.3436 17.7883 16.0858 17.5259C17.3662 17.0581 18.3775 16.1035 18.873 14.8949C19.1511 14.1964 19.2991 13.4577 19.317 12.7105C19.3641 11.7516 19.3753 11.4447 19.3753 9C19.3753 6.55527 19.3641 6.25047 19.317 5.28951C19.3013 4.54233 19.1511 3.80362 18.873 3.10513C18.6331 2.504 18.2586 1.96002 17.7743 1.51129C17.2989 1.05409 16.7227 0.698495 16.0858 0.47413C15.3459 0.211665 14.5633 0.0719661 13.7718 0.0550329C12.756 0.0105833 12.4309 0 9.84103 0Z" fill="white"/>
<path fill-rule="evenodd" clip-rule="evenodd" d="M13.4377 9.3429C13.6395 9.2286 13.7045 8.98307 13.5857 8.79045C13.5498 8.7333 13.4982 8.68462 13.4377 8.65075L8.31626 5.75094C8.11446 5.63664 7.85211 5.69802 7.73102 5.88852C7.69066 5.95202 7.67048 6.02399 7.67048 6.09595V11.8977C7.67048 12.1199 7.86108 12.2999 8.09652 12.2999C8.17276 12.2999 8.24899 12.2808 8.31626 12.2427L13.4377 9.3429Z" fill="white"/>
</svg>
