<svg width="25" height="25" viewBox="0 0 25 25" fill="none" xmlns="http://www.w3.org/2000/svg">
    <circle cx="12.5" cy="12.5" r="12.5" fill="white"/>
    <path d="M14.691 8L7.05801 15.6344C6.88565 19.4741 6.8665 18.8668 10.4641 18.8449L18 11.309L14.691 8Z" fill="#231815"/>
    <path d="M13.0003 9.69075C14.1028 10.7933 15.2053 11.8958 16.3079 12.9984C16.5692 13.2597 16.9754 12.8534 16.7142 12.5921C15.6116 11.4896 14.5091 10.387 13.4065 9.28448C13.1453 9.0232 12.739 9.42948 13.0003 9.69075Z" fill="white"/>
    <path d="M7.91159 14.7794C9.01413 15.882 10.1167 16.9845 11.2192 18.087C11.4805 18.3483 11.8868 17.942 11.6255 17.6808C10.5229 16.5782 9.4204 15.4757 8.31786 14.3731C8.05659 14.1119 7.65032 14.5181 7.91159 14.7794Z" fill="white"/>
</svg>
