<svg width="25" height="25" viewBox="0 0 25 25" fill="none" xmlns="http://www.w3.org/2000/svg">
    <path d="M12.4986 2.25268C15.8364 2.25268 16.2305 2.26444 17.5509 2.3262C18.3449 2.33502 19.1301 2.48206 19.8712 2.75556C20.4153 2.95553 20.9064 3.27608 21.3093 3.69074C21.7239 4.09364 22.0445 4.58475 22.2445 5.12881C22.5209 5.87284 22.665 6.65804 22.6738 7.44912C22.7326 8.76661 22.7473 9.16363 22.7473 12.5015C22.7473 15.8393 22.7356 16.2363 22.6738 17.5538C22.665 18.3478 22.518 19.133 22.2445 19.8741C21.8239 20.9652 20.9623 21.8268 19.8712 22.2474C19.1272 22.5238 18.342 22.6679 17.5509 22.6767C16.2334 22.7356 15.8364 22.7503 12.4986 22.7503C9.16071 22.7503 8.7637 22.7385 7.4462 22.6767C6.65218 22.6679 5.86698 22.5209 5.12589 22.2474C4.58184 22.0474 4.09072 21.7269 3.68782 21.3122C3.27317 20.9093 2.95262 20.4182 2.75264 19.8741C2.4762 19.1301 2.3321 18.3449 2.32328 17.5538C2.26446 16.2363 2.24976 15.8393 2.24976 12.5015C2.24976 9.16363 2.26152 8.76661 2.32328 7.44912C2.3321 6.6551 2.47914 5.8699 2.75264 5.12881C2.95262 4.58475 3.27317 4.09364 3.68782 3.69074C4.09072 3.27608 4.58184 2.95553 5.12589 2.75556C5.86992 2.47912 6.65512 2.33502 7.4462 2.3262C8.7637 2.26738 9.16071 2.25268 12.4986 2.25268ZM12.4986 0C9.10189 0 8.67841 0.0147041 7.34328 0.0764616C6.30516 0.0970474 5.27881 0.294083 4.30834 0.658746C3.47314 0.973415 2.72029 1.46453 2.09389 2.09975C1.45867 2.72321 0.964615 3.479 0.652887 4.3142C0.288224 5.28467 0.091188 6.31102 0.0706022 7.34913C0.00884477 8.68133 -0.00585938 9.10775 -0.00585938 12.5044C-0.00585938 15.9011 0.00884477 16.3245 0.0706022 17.6597C0.091188 18.6978 0.288224 19.7212 0.652887 20.6946C0.967556 21.5298 1.45867 22.2856 2.09389 22.9091C2.71735 23.5443 3.47314 24.0383 4.30834 24.3501C5.27881 24.7147 6.30516 24.9088 7.34328 24.9324C8.67547 24.9941 9.10189 25.0088 12.4986 25.0088C15.8952 25.0088 16.3187 24.9941 17.6538 24.9324C18.6919 24.9118 19.7153 24.7147 20.6888 24.3501C22.368 23.7002 23.6943 22.3738 24.3442 20.6946C24.7089 19.7241 24.903 18.6978 24.9265 17.6597C24.9883 16.3275 25.003 15.9011 25.003 12.5044C25.003 9.10775 24.9883 8.68427 24.9265 7.34913C24.9059 6.31102 24.7089 5.28467 24.3442 4.3142C24.0295 3.479 23.5384 2.72321 22.9032 2.09975C22.2798 1.46453 21.524 0.970474 20.6888 0.658746C19.7183 0.294083 18.6919 0.0999882 17.6538 0.0764616C16.3216 0.0147041 15.8952 0 12.4986 0Z" fill="#231815"/>
    <path fill-rule="evenodd" clip-rule="evenodd" d="M17.2156 12.9808C17.4803 12.822 17.5656 12.4809 17.4097 12.2133C17.3627 12.1339 17.295 12.0662 17.2156 12.0192L10.4988 7.99024C10.2341 7.83143 9.89003 7.91672 9.73123 8.18139C9.67829 8.26962 9.65183 8.3696 9.65183 8.46959V16.5304C9.65183 16.8392 9.9018 17.0892 10.2106 17.0892C10.3106 17.0892 10.4106 17.0627 10.4988 17.0098L17.2156 12.9808Z" fill="#231815"/>
</svg>
