<svg width="35" height="35" viewBox="0 0 35 35" fill="none" xmlns="http://www.w3.org/2000/svg">
<path d="M27.4623 29.9978H6.03346C6.02246 29.7479 6.00266 29.5248 6.00266 29.3017C6.00046 24.4695 5.99386 19.6372 6.01586 14.805C6.01586 14.5172 6.16986 14.1402 6.37887 13.9573C9.7538 11.0124 13.1485 8.09209 16.5389 5.16509C16.6005 5.11155 16.6709 5.07139 16.7743 5C18.2043 6.22925 19.63 7.45181 21.0512 8.67883C23.0621 10.4145 25.0752 12.148 27.0707 13.9059C27.2775 14.0866 27.4799 14.4124 27.4821 14.6734C27.5063 19.6752 27.4997 24.6747 27.4975 29.6765C27.4975 29.7591 27.4821 29.8438 27.4645 30L27.4623 29.9978ZM19.8918 27.2448C21.3241 27.2448 22.6705 27.2247 24.017 27.2559C24.4944 27.2671 24.611 27.1065 24.6088 26.6424C24.5912 22.9926 24.6088 19.345 24.5824 15.6952C24.5824 15.4319 24.3976 15.0973 24.193 14.921C22.8619 13.7765 21.5001 12.6678 20.147 11.5478C19.0228 10.6175 17.8963 9.69168 16.7919 8.78146C16.7017 8.81492 16.6555 8.81938 16.6269 8.84392C14.1628 10.883 11.6965 12.9199 9.24778 14.979C9.06078 15.1352 8.92437 15.4676 8.92437 15.7175C8.90237 19.3651 8.90897 23.0149 8.91117 26.6647C8.91117 26.8454 8.93977 27.0261 8.95517 27.2024H13.626V18.0488H19.894V27.2448H19.8918Z" fill="#9E9E9E"/>
</svg>
