<svg width="21" height="21" viewBox="0 0 21 21" fill="none" xmlns="http://www.w3.org/2000/svg">
<path d="M10.4977 3.92851C10.5664 3.98454 10.6345 4.04214 10.7021 4.10128L10.7036 4.10262C10.7146 4.11238 10.7247 4.12151 10.7326 4.12883L10.7404 4.1359L10.9278 4.2224C11.2654 3.95194 11.6304 3.71965 12.0316 3.54288C13.5067 2.89361 15.0051 2.7634 16.4784 3.50185C17.925 4.22782 18.733 5.45145 18.9524 7.04251C19.1629 8.58364 18.6706 9.89644 17.5718 10.9934C15.6583 12.9024 13.7473 14.8152 11.8367 16.7275C11.5033 17.0612 11.17 17.3949 10.8366 17.7285C10.8367 17.7286 10.8367 17.7287 10.8368 17.7288C10.8468 17.7443 10.8547 17.7568 10.8616 17.7678C10.8757 17.79 10.8859 17.8061 10.9019 17.829L10.7525 17.9336L10.7525 17.9336L10.4923 18.1158L10.303 17.9626L10.303 17.9625L10.1037 17.8012C10.1187 17.7826 10.1354 17.7612 10.1534 17.7382C10.1566 17.7342 10.1599 17.73 10.1631 17.7258L5.37845 2.66204C3.11807 3.15583 1.5099 5.26583 1.50005 7.58799L1.50005 7.58806C1.49415 9.02722 2.00716 10.2714 3.02283 11.291L3.02338 11.2915C4.18554 12.4546 5.34814 13.6172 6.51066 14.7797C7.66992 15.939 8.82909 17.0982 9.98782 18.2578M10.4977 3.92851C10.8947 3.59525 11.3346 3.30362 11.83 3.08533L11.8302 3.08525C13.4033 2.39284 15.0625 2.23293 16.7024 3.05486L16.7027 3.05497C18.3084 3.86082 19.2077 5.23378 19.4477 6.97421L19.4478 6.97485C19.6811 8.68302 19.1257 10.1486 17.9251 11.3473L17.9249 11.3474C16.0118 13.2561 14.1011 15.1686 12.1904 17.0809C11.8089 17.4628 11.4273 17.8447 11.0457 18.2266L11.0456 18.2267C11.0253 18.247 11.0141 18.2615 10.9871 18.2964C10.9657 18.3239 10.9344 18.3643 10.8809 18.4304L10.4633 18.9462L10.0827 18.4025C10.052 18.3586 10.0232 18.3131 10.0064 18.2866C10.0022 18.2799 9.9987 18.2744 9.99615 18.2704C9.99251 18.2647 9.98976 18.2606 9.98782 18.2578M10.4977 3.92851C9.02052 2.72258 7.29975 2.24137 5.37873 2.66198L10.3918 4.45601L10.3917 4.45593L10.1696 4.22178C10.2757 4.12115 10.385 4.02315 10.4977 3.92851ZM9.98782 18.2578C9.9911 18.261 9.99439 18.2643 9.99767 18.2676L9.99781 18.2678C9.9893 18.2593 9.98419 18.2525 9.98417 18.2525C9.98415 18.2525 9.98531 18.2541 9.98782 18.2578Z" fill="#FF1A77" stroke="black"/>
</svg>
