<svg width="20" height="20" viewBox="0 0 20 20" fill="none" xmlns="http://www.w3.org/2000/svg">
<path d="M0 10C0 4.47715 4.47715 0 10 0C15.5228 0 20 4.47715 20 10C20 15.5228 15.5228 20 10 20C4.47715 20 0 15.5228 0 10Z" fill="black"/>
<path d="M12.6101 8.12041C12.6101 8.34661 12.6115 8.57212 12.6094 8.79833C12.6094 8.84537 12.6229 8.8765 12.6601 8.90901C13.3013 9.46933 13.7346 10.1528 13.9061 10.9739C14.1828 12.2972 13.8482 13.4684 12.8989 14.4604C12.2955 15.0906 11.5428 15.48 10.6664 15.6121C9.35744 15.8093 8.20436 15.4724 7.23571 14.5925C6.56088 13.9775 6.15698 13.2166 6.03831 12.3291C5.87675 11.1233 6.22704 10.0636 7.07201 9.16012C7.15636 9.0695 7.24715 8.9851 7.34223 8.90555C7.37726 8.87581 7.38941 8.84537 7.38941 8.8011C7.38798 8.38466 7.38441 7.96822 7.38941 7.55247C7.39942 6.65734 7.78044 5.94483 8.54034 5.43431C9.88072 4.53434 11.7937 5.09328 12.4099 6.55565C12.5443 6.87455 12.6108 7.20452 12.6101 7.54832C12.6101 7.73856 12.6101 7.92948 12.6101 8.12041Z" fill="white"/>
<path d="M13.1291 11.7936C13.1169 13.4739 11.7408 14.8021 10.043 14.8208C8.28942 14.8394 6.87185 13.4905 6.87185 11.8026C6.87185 10.112 8.26798 8.80663 9.92861 8.77066C11.6629 8.7333 13.1141 10.0719 13.1291 11.7936Z" fill="black"/>
<path d="M8.26369 8.30649C8.28013 7.88521 8.21579 7.4667 8.38951 7.0634C8.68618 6.37441 9.41963 5.94345 10.1802 6.02438C10.9552 6.1067 11.5828 6.67533 11.7122 7.41412C11.7265 7.49644 11.7344 7.58014 11.7344 7.66385C11.7329 7.87622 11.7344 8.08789 11.7344 8.3058C10.5756 7.79666 9.4232 7.79666 8.26369 8.30649Z" fill="black"/>
<path d="M9.49755 12.4218C9.49755 12.2896 9.4954 12.1575 9.49826 12.0261C9.49969 11.979 9.4854 11.9493 9.44608 11.9188C9.15727 11.6947 9.04361 11.3329 9.15084 10.9967C9.25592 10.6668 9.56117 10.4267 9.91646 10.3956C10.3061 10.361 10.6721 10.5761 10.8193 10.9255C10.9666 11.2762 10.8622 11.676 10.5563 11.914C10.5119 11.9486 10.4984 11.9825 10.4991 12.0351C10.5019 12.2938 10.5012 12.5525 10.4998 12.8112C10.4984 13.0713 10.3239 13.2712 10.0723 13.3065C9.7692 13.3494 9.5047 13.1315 9.49826 12.8327C9.4954 12.6957 9.49755 12.5587 9.49755 12.4218Z" fill="white"/>
</svg>
