<svg xmlns="http://www.w3.org/2000/svg" xmlns:xlink="http://www.w3.org/1999/xlink" width="6" height="10" viewBox="0 0 6 10">
  <defs>
    <clipPath id="clip-path">
      <rect id="사각형_1007" data-name="사각형 1007" width="10" height="6" transform="translate(0 0.007)" fill="#afafaf"/>
    </clipPath>
  </defs>
  <g id="그룹_1649" data-name="그룹 1649" transform="translate(6.007) rotate(90)">
    <g id="그룹_1040" data-name="그룹 1040" clip-path="url(#clip-path)">
      <path id="패스_151" data-name="패스 151" d="M4.636,0a.411.411,0,0,1,.255.132L9.029,4.482a.586.586,0,0,1,.164.375.623.623,0,0,1-.108.4.423.423,0,0,1-.314.186A.4.4,0,0,1,8.442,5.3L4.6,1.263.752,5.3a.4.4,0,0,1-.328.145A.423.423,0,0,1,.11,5.261.623.623,0,0,1,0,4.857a.586.586,0,0,1,.164-.375L4.3.134A.4.4,0,0,1,4.636,0Z" transform="translate(0.228 0.246)" fill="#afafaf"/>
    </g>
    <g id="그룹_1214" data-name="그룹 1214" clip-path="url(#clip-path)">
      <path id="패스_1127" data-name="패스 1127" d="M4.636,0a.411.411,0,0,1,.255.132L9.029,4.482a.586.586,0,0,1,.164.375.623.623,0,0,1-.108.4.423.423,0,0,1-.314.186A.4.4,0,0,1,8.442,5.3L4.6,1.263.752,5.3a.4.4,0,0,1-.328.145A.423.423,0,0,1,.11,5.261.623.623,0,0,1,0,4.857a.586.586,0,0,1,.164-.375L4.3.134A.4.4,0,0,1,4.636,0Z" transform="translate(0.228 0.246)" fill="#afafaf"/>
    </g>
  </g>
</svg>
