<svg width="85" height="85" viewBox="0 0 85 85" fill="none" xmlns="http://www.w3.org/2000/svg">
<g clip-path="url(#clip0_122_2)">
<path d="M78.84 16.2602C78.84 12.7402 78.83 9.6902 78.84 6.6402C78.84 5.8802 78.87 5.0902 79.05 4.3502C79.41 2.8302 80.52 2.1102 82 2.2302C83.49 2.3502 84.59 3.2702 84.61 4.7802C84.68 11.5802 84.69 18.3902 84.6 25.1902C84.58 26.8102 83.32 27.7102 81.75 27.7202C75.93 27.7702 70.11 27.7902 64.29 27.7102C62.46 27.6902 61.36 26.3902 61.45 24.7302C61.55 22.8502 62.68 21.9602 64.48 21.9402C68.12 21.9002 71.76 21.9302 75.48 21.9302C75.43 21.6102 75.47 21.3602 75.36 21.2402C64.08 9.0202 50.45 3.4802 33.8 6.8002C29.15 7.7302 24.95 9.8302 21.08 12.5602C19.16 13.9102 17.51 13.8102 16.46 12.3502C15.44 10.9202 15.88 9.1602 17.69 7.8702C26.44 1.6602 36.23 -0.789804 46.88 0.220196C58.96 1.3602 69.07 6.6702 77.62 15.1302C77.9 15.4002 78.18 15.6602 78.83 16.2702L78.84 16.2602Z" fill="black"/>
<path d="M10.14 69.1299C10.14 72.4199 10.16 75.7099 10.14 79.0099C10.13 81.1199 9.04002 82.4599 7.34002 82.5199C5.56002 82.5899 4.31002 81.2299 4.30002 78.9999C4.26002 72.8299 4.26002 66.6599 4.30002 60.4799C4.32002 58.0699 5.40002 56.9899 7.78002 56.9699C13.39 56.9299 19 56.9299 24.61 56.9699C26.77 56.9899 27.95 58.1299 27.9 59.9499C27.86 61.7799 26.72 62.7499 24.48 62.7699C20.84 62.7999 17.19 62.7699 13.23 62.7699C13.66 63.3999 13.89 63.8699 14.23 64.2499C19.97 70.7099 26.57 75.9399 35.15 77.9699C45.19 80.3399 54.44 78.1599 62.96 72.5099C63.43 72.1999 63.85 71.8199 64.34 71.5499C65.79 70.7499 67.18 70.7699 68.29 72.1299C69.35 73.4299 69.24 75.2299 67.69 76.1699C64.17 78.2999 60.67 80.6499 56.85 82.0399C40.81 87.8699 26.73 83.9799 14.37 72.7099C13.04 71.4999 11.85 70.1299 10.6 68.8299C10.44 68.9199 10.29 69.0199 10.13 69.1099L10.14 69.1299Z" fill="black"/>
<path d="M0 40.4801C0.3 34.0501 1.96 27.7501 5.2 21.9001C6.34 19.8401 7.81 19.2501 9.47 20.1101C11.1 20.9601 11.42 22.5401 10.31 24.6301C7.46 29.9601 5.86 35.6001 5.82 41.6901C5.81 44.0601 4.69 45.2101 2.81 45.1801C0.89 45.1401 0 44.0001 0 41.5601C0 41.2801 0 41.0001 0 40.4801Z" fill="black"/>
<path d="M84.6501 44.3801C84.3001 50.8501 82.6001 57.2101 79.2401 63.0901C78.1901 64.9301 76.6101 65.4601 75.0501 64.5701C73.5901 63.7401 73.1901 62.1501 74.1601 60.3701C77.0501 55.0601 78.7501 49.4401 78.8201 43.3501C78.8501 40.6701 79.9301 39.4601 81.9501 39.5501C83.8801 39.6401 84.6701 40.7801 84.6501 43.4701C84.6501 43.6801 84.6501 43.8901 84.6501 44.3801Z" fill="black"/>
</g>
<defs>
<clipPath id="clip0_122_2">
<rect width="84.67" height="84.74" fill="white"/>
</clipPath>
</defs>
</svg>
